<svg id="Layer_1" data-name="Layer 1" xmlns="http://www.w3.org/2000/svg" width="23" height="24" viewBox="0 0 23 24">
	<defs>
		<style>.cls-1{fill:white;}</style>
	</defs>
	<title>Page Templates</title>
	<rect class="cls-1" width="23" height="24"/>
	<path d="M13.5664 0L20 6.43359V9H18.5V7.5H12.5V1.5H2V22.5H11V24H0.5V0H13.5664ZM14 6H17.4336L14 2.56641V6ZM21.5 22.5H23V24H21.5V22.5ZM18.5 22.5H20V24H18.5V22.5ZM15.5 22.5H17V24H15.5V22.5ZM18.5 10.5H20V12H18.5V10.5ZM15.5 10.5H17V12H15.5V10.5ZM12.5 22.5H14V24H12.5V22.5ZM21.5 19.5H23V21H21.5V19.5ZM12.5 19.5H14V21H12.5V19.5ZM21.5 16.5H23V18H21.5V16.5ZM12.5 16.5H14V18H12.5V16.5ZM21.5 13.5H23V15H21.5V13.5ZM12.5 13.5H14V15H12.5V13.5ZM23 10.5V12H21.5V10.5H23ZM12.5 10.5H14V12H12.5V10.5Z"/>
</svg>