<svg width="32" height="32" viewBox="0 0 32 32" fill="none" xmlns="http://www.w3.org/2000/svg">
<path d="M17 1H31V15L15 31L1 17L17 1ZM24 10.75C24.375 10.75 24.7292 10.6771 25.0625 10.5312C25.3958 10.3854 25.6875 10.1875 25.9375 9.9375C26.1875 9.6875 26.3854 9.39583 26.5312 9.0625C26.6771 8.72917 26.75 8.375 26.75 8C26.75 7.625 26.6771 7.27083 26.5312 6.9375C26.3854 6.60417 26.1875 6.3125 25.9375 6.0625C25.6875 5.8125 25.3958 5.61458 25.0625 5.46875C24.7292 5.32292 24.375 5.25 24 5.25C23.625 5.25 23.2708 5.32292 22.9375 5.46875C22.6042 5.61458 22.3125 5.8125 22.0625 6.0625C21.8125 6.3125 21.6146 6.60417 21.4688 6.9375C21.3229 7.27083 21.25 7.625 21.25 8C21.25 8.375 21.3229 8.72917 21.4688 9.0625C21.6146 9.39583 21.8125 9.6875 22.0625 9.9375C22.3125 10.1875 22.6042 10.3854 22.9375 10.5312C23.2708 10.6771 23.625 10.75 24 10.75Z" fill="#FFA058"/>
</svg>
