<svg width="16" height="16" viewBox="0 0 16 16" fill="none" xmlns="http://www.w3.org/2000/svg">
<g clip-path="url(#clip0_1411_272770)">
<path fill-rule="evenodd" clip-rule="evenodd" d="M12.6734 6.5598L13.5141 5.92926C14.2139 5.40447 14.2139 4.35488 13.5141 3.83009L8.88459 0.357925C8.36036 -0.0352427 7.63956 -0.0352427 7.11533 0.357925L0.565687 5.27016C0.214444 5.53359 0.0395157 5.92926 0.0409017 6.3244C0.0422493 6.71648 0.217178 7.10804 0.565687 7.36942L3.32583 9.43953L2.48512 10.0701C1.78539 10.5949 1.7854 11.6444 2.48512 12.1692L7.11467 15.6414C7.6389 16.0346 8.3597 16.0346 8.88393 15.6414L11.1119 13.9704L11.1242 13.9613L15.4336 10.7292C16.1333 10.2044 16.1333 9.15479 15.4336 8.62999L12.6734 6.5598ZM8.28459 1.15793C8.11592 1.03142 7.884 1.03142 7.71533 1.15793L6.59195 2.00046C6.60966 2.01258 6.62718 2.02513 6.64448 2.0381L11.8401 5.9348L12.9141 5.12926C13.0805 5.00447 13.0805 4.75488 12.9141 4.63009L8.28459 1.15793ZM6.91204 10.8792C6.92973 10.8671 6.94722 10.8545 6.96449 10.8416L11.8401 7.18489L14.8336 9.42999C15 9.55479 15 9.80437 14.8336 9.92917L10.5172 13.1665C10.3491 13.2878 10.1213 13.2861 9.95491 13.1613L6.91204 10.8792ZM5.20056 10.8456C5.19878 10.8442 5.19701 10.8429 5.19524 10.8416L4.15917 10.0645L3.08512 10.8701C2.91873 10.9949 2.91873 11.2444 3.08512 11.3692L7.71467 14.8414C7.88334 14.9679 8.11526 14.9679 8.28393 14.8414L9.4073 13.9989C9.38963 13.9868 9.37216 13.9743 9.35491 13.9613L5.20056 10.8456ZM11.0068 6.5598L6.04448 2.8381C5.87581 2.7116 5.64389 2.7116 5.47522 2.8381L1.16569 6.07025C1.08186 6.13313 1.04026 6.22768 1.0409 6.32199C1.04156 6.41483 1.08316 6.50743 1.16569 6.56933L5.79524 10.0415C5.96391 10.168 6.19583 10.168 6.36449 10.0415L11.0068 6.5598Z" fill="#212121"/>
</g>
<defs>
<clipPath id="clip0_1411_272770">
<rect width="16" height="16" fill="white"/>
</clipPath>
</defs>
</svg>
