<svg id="Layer_1" data-name="Layer 1" xmlns="http://www.w3.org/2000/svg" width="17" height="23" viewBox="0 0 17 23">
	<defs>
		<style>.cls-1{fill:white;}</style>
	</defs>
	<title>Web templates</title>
	<rect class="cls-1" width="17" height="23"/>
	<path d="M10.0664 0L16.5 6.43359V7.5H9V0H10.0664ZM10.5 6H13.9336L10.5 2.56641V6ZM15 10.5V9H16.5V10.5H15ZM15 13.5V12H16.5V13.5H15ZM15 16.5V15H16.5V16.5H15ZM15 19.5V18H16.5V19.5H15ZM15 22.5V21H16.5V22.5H15ZM12 22.5V21H13.5V22.5H12ZM9 22.5V21H10.5V22.5H9ZM6 22.5V21H7.5V22.5H6ZM3 22.5V21H4.5V22.5H3ZM0 22.5V21H1.5V22.5H0ZM0 10.5V9H1.5V10.5H0ZM0 7.5V6H1.5V7.5H0ZM0 4.5V3H1.5V4.5H0ZM0 1.5V0H1.5V1.5H0ZM3 1.5V0H4.5V1.5H3ZM6 1.5V0H7.5V1.5H6ZM0 13.5V12H1.5V13.5H0ZM0 16.5V15H1.5V16.5H0ZM0 19.5V18H1.5V19.5H0Z"/>
</svg>