<svg id="Layer_1" data-name="Layer 1" xmlns="http://www.w3.org/2000/svg" width="21" height="24" viewBox="0 0 21 24">
	<defs>
		<style>.cls-1{fill:white;}</style>
	</defs>
	<title>Entity Form</title>
	<rect class="cls-1" width="21" height="24"/>
	<path d="M18.6562 10.5C18.9844 10.5 19.2891 10.5586 19.5703 10.6758C19.8594 10.793 20.1094 10.957 20.3203 11.168C20.5312 11.3789 20.6953 11.625 20.8125 11.9062C20.9375 12.1875 21 12.4922 21 12.8203C21 13.125 20.9414 13.4219 20.8242 13.7109C20.707 14 20.5391 14.2539 20.3203 14.4727L11.918 22.8984L7.5 24L8.60156 19.582L17.0039 11.168C17.2227 10.9492 17.4766 10.7852 17.7656 10.6758C18.0547 10.5586 18.3516 10.5 18.6562 10.5ZM19.2539 13.418C19.418 13.2539 19.5 13.0547 19.5 12.8203C19.5 12.5781 19.418 12.3828 19.2539 12.2344C19.0977 12.0781 18.8984 12 18.6562 12C18.5469 12 18.4414 12.0195 18.3398 12.0586C18.2383 12.0898 18.1484 12.1445 18.0703 12.2227L9.96094 20.3555L9.5625 21.9375L11.1445 21.5391L19.2539 13.418ZM4.5 10.5H3V9H4.5V10.5ZM15 10.5H6V9H15V10.5ZM3 13.5H4.5V15H3V13.5ZM4.5 6H3V4.5H4.5V6ZM15 6H6V4.5H15V6ZM1.5 19.5H6.69141L6.31641 21H0V0H18V8.70703C17.4766 8.78516 16.9766 8.95703 16.5 9.22266V1.5H1.5V19.5ZM6 13.5H12.0234L10.5234 15H6V13.5Z"/>
</svg>