<svg width="32" height="32" viewBox="0 0 32 32" fill="none" xmlns="http://www.w3.org/2000/svg">
<path fill-rule="evenodd" clip-rule="evenodd" d="M32 32V0H0V32H32ZM10 10H4V4H10V10ZM9 14H5V26H9V14ZM14 5H26V9H14V5ZM15.2969 26.7031L11.5938 23L15.2969 19.2969L16.7031 20.7031L15.4219 22H20C20.2812 22 20.5417 21.9479 20.7812 21.8438C21.0208 21.7396 21.2292 21.599 21.4062 21.4219C21.5833 21.2448 21.7292 21.0312 21.8438 20.7812C21.9583 20.5312 22.0104 20.2708 22 20V15.4219L20.7031 16.7031L19.2969 15.2969L23 11.5938L26.7031 15.2969L25.2969 16.7031L24 15.4219V20C24 20.5521 23.8958 21.0677 23.6875 21.5469C23.4792 22.026 23.1927 22.4531 22.8281 22.8281C22.4635 23.2031 22.0417 23.4896 21.5625 23.6875C21.0833 23.8854 20.5625 23.9896 20 24H15.4219L16.7031 25.2969L15.2969 26.7031Z" fill="#15C6F4"/>
</svg>
