<svg width="32" height="32" viewBox="0 0 32 32" fill="none" xmlns="http://www.w3.org/2000/svg">
<path d="M32 2V18.625C31.7083 18.3021 31.3958 18.0052 31.0625 17.7344C30.7292 17.4635 30.375 17.2031 30 16.9531V10H2V26H15.5625C15.5938 26.3438 15.6458 26.6823 15.7188 27.0156C15.7917 27.349 15.8854 27.6771 16 28H0V2H32ZM30 4H2V8H30V4ZM4 24V12H14V24H4ZM22 14H16V12H22V14ZM16 16.0312H22C20.7292 16.4583 19.6042 17.1146 18.625 18H16V16.0312ZM31.8438 23.25L29.9062 24.0469C29.9688 24.3594 30 24.6667 30 24.9688C30 25.3021 29.9688 25.6302 29.9062 25.9531L31.8438 26.75L31.0781 28.6094L29.1406 27.7969C28.9635 28.0573 28.7656 28.3021 28.5469 28.5312C28.3281 28.7604 28.0781 28.9635 27.7969 29.1406L28.6094 31.0781L26.75 31.8438L25.9531 29.9062C25.6406 29.9688 25.3229 30 25 30C24.8438 30 24.6875 29.9844 24.5312 29.9531C24.375 29.9219 24.2188 29.8906 24.0625 29.8594L23.25 31.8438L21.3906 31.0781L22.2031 29.125C21.9427 28.9479 21.7083 28.7448 21.5 28.5156C21.2917 28.2865 21.0938 28.0417 20.9062 27.7812L18.9219 28.6094L18.1562 26.75L20.0938 25.9531C20.0312 25.6406 20 25.3333 20 25.0312C20 24.7083 20.0312 24.3802 20.0938 24.0469L18.1562 23.25L18.9219 21.3906L20.8594 22.2031C21.0365 21.9427 21.2344 21.6979 21.4531 21.4688C21.6719 21.2396 21.9219 21.0365 22.2031 20.8594L21.3906 18.9219L23.25 18.1562L24.0469 20.0938C24.3594 20.0312 24.6667 20 24.9688 20C25.2917 20 25.6198 20.0312 25.9531 20.0938L26.75 18.1562L28.6094 18.9219L27.7969 20.8594C28.0573 21.0365 28.3021 21.2344 28.5312 21.4531C28.7604 21.6719 28.9635 21.9219 29.1406 22.2031L31.0781 21.3906L31.8438 23.25ZM25 27.9844C25.4167 27.9844 25.8073 27.9062 26.1719 27.75C26.5365 27.5938 26.8542 27.3802 27.125 27.1094C27.3958 26.8385 27.6094 26.5208 27.7656 26.1562C27.9219 25.7917 28 25.4062 28 25C28 24.5938 27.9219 24.2083 27.7656 23.8438C27.6094 23.4792 27.3958 23.1615 27.125 22.8906C26.8542 22.6198 26.5312 22.401 26.1562 22.2344C25.7812 22.0677 25.3958 21.9896 25 22C24.5938 22 24.2083 22.0781 23.8438 22.2344C23.4792 22.3906 23.1615 22.6042 22.8906 22.875C22.6198 23.1458 22.401 23.4688 22.2344 23.8438C22.0677 24.2188 21.9896 24.6042 22 25C22 25.4167 22.0781 25.8021 22.2344 26.1562C22.3906 26.5104 22.6042 26.8281 22.875 27.1094C23.1458 27.3906 23.4688 27.6042 23.8438 27.75C24.2188 27.8958 24.6042 27.974 25 27.9844Z" fill="#00DBBC"/>
</svg>
