<svg width="32" height="32" viewBox="0 0 32 32" fill="none" xmlns="http://www.w3.org/2000/svg">
<path fill-rule="evenodd" clip-rule="evenodd" d="M29 22H31V32H19V22H21V20C21 19.4479 21.1042 18.9323 21.3125 18.4531C21.5208 17.974 21.8073 17.5469 22.1719 17.1719C22.5365 16.7969 22.9583 16.5104 23.4375 16.3125C23.9167 16.1146 24.4375 16.0104 25 16C25.5521 16 26.0677 16.1042 26.5469 16.3125C27.026 16.5208 27.4531 16.8073 27.8281 17.1719C28.2031 17.5365 28.4896 17.9583 28.6875 18.4375C28.8854 18.9167 28.9896 19.4375 29 20V22ZM27 22V19C26.3333 18 24.6 16.6 23 19V22H27Z" fill="#15C6F4"/>
<path fill-rule="evenodd" clip-rule="evenodd" d="M20.4522 1.66341V6.8176H25.6425L20.4522 1.66341ZM25 12C25.8275 12 26.6004 12.156 27.3186 12.468V9.14284H18.1119V0H2V31.9999H16V21H19V18C19 17.1719 19.1562 16.3984 19.4688 15.6797C19.7812 14.9609 20.2109 14.3203 20.7578 13.7578C21.3047 13.1953 21.9375 12.7656 22.6562 12.4688C23.375 12.1719 24.1562 12.0156 25 12ZM15 10V8H9V10H15ZM15 12V14H9V12H15ZM9 18V16H15V18H9ZM7 12V14H5V12H7ZM7 10V8H5V10H7ZM5 18V16H7V18H5Z" fill="#15C6F4"/>
</svg>
