<svg width="32" height="32" viewBox="0 0 32 32" fill="none" xmlns="http://www.w3.org/2000/svg">
<path d="M16 0C17.4688 0 18.8854 0.192708 20.25 0.578125C21.6146 0.953125 22.8906 1.48958 24.0781 2.1875C25.2656 2.875 26.3438 3.70833 27.3125 4.6875C28.2917 5.65625 29.125 6.73438 29.8125 7.92188C30.5104 9.10938 31.0469 10.3854 31.4219 11.75C31.8073 13.1146 32 14.5312 32 16C32 17.4688 31.8073 18.8854 31.4219 20.25C31.0469 21.6146 30.5104 22.8906 29.8125 24.0781C29.125 25.2656 28.2917 26.349 27.3125 27.3281C26.3438 28.2969 25.2656 29.1302 24.0781 29.8281C22.8906 30.5156 21.6146 31.0521 20.25 31.4375C18.8854 31.8125 17.4688 32 16 32C14.5312 32 13.1146 31.8125 11.75 31.4375C10.3854 31.0521 9.10938 30.5156 7.92188 29.8281C6.73438 29.1302 5.65104 28.2969 4.67188 27.3281C3.70312 26.349 2.86979 25.2656 2.17188 24.0781C1.48438 22.8906 0.947917 21.6198 0.5625 20.2656C0.1875 18.901 0 17.4792 0 16C0 14.5312 0.1875 13.1146 0.5625 11.75C0.947917 10.3854 1.48438 9.10938 2.17188 7.92188C2.86979 6.73438 3.70312 5.65625 4.67188 4.6875C5.65104 3.70833 6.73438 2.875 7.92188 2.1875C9.10938 1.48958 10.3802 0.953125 11.7344 0.578125C13.099 0.192708 14.5208 0 16 0ZM28.6406 10C28.2448 9.15625 27.7656 8.36458 27.2031 7.625C26.6406 6.875 26.0156 6.19271 25.3281 5.57812C24.6406 4.96354 23.8958 4.41667 23.0938 3.9375C22.2917 3.45833 21.4531 3.06771 20.5781 2.76562C20.9531 3.28646 21.2917 3.83854 21.5938 4.42188C21.8958 5.00521 22.1615 5.60938 22.3906 6.23438C22.6302 6.84896 22.8333 7.47396 23 8.10938C23.1667 8.74479 23.3125 9.375 23.4375 10H28.6406ZM30 16C30 14.6146 29.8073 13.2812 29.4219 12H23.75C23.8333 12.6667 23.8958 13.3333 23.9375 14C23.9792 14.6562 24 15.3229 24 16C24 16.6771 23.9792 17.349 23.9375 18.0156C23.8958 18.6719 23.8333 19.3333 23.75 20H29.4219C29.8073 18.7188 30 17.3854 30 16ZM16 30C16.5104 30 16.9844 29.8594 17.4219 29.5781C17.8698 29.2969 18.2812 28.9271 18.6562 28.4688C19.0312 28.0104 19.3646 27.4948 19.6562 26.9219C19.9583 26.3385 20.224 25.75 20.4531 25.1562C20.6823 24.5625 20.875 23.9896 21.0312 23.4375C21.1875 22.8854 21.3073 22.4062 21.3906 22H10.6094C10.6927 22.4062 10.8125 22.8854 10.9688 23.4375C11.125 23.9896 11.3177 24.5625 11.5469 25.1562C11.776 25.75 12.0365 26.3385 12.3281 26.9219C12.6302 27.4948 12.9688 28.0104 13.3438 28.4688C13.7188 28.9271 14.125 29.2969 14.5625 29.5781C15.0104 29.8594 15.4896 30 16 30ZM21.7344 20C21.8177 19.3333 21.8802 18.6719 21.9219 18.0156C21.974 17.349 22 16.6771 22 16C22 15.3229 21.974 14.6562 21.9219 14C21.8802 13.3333 21.8177 12.6667 21.7344 12H10.2656C10.1823 12.6667 10.1146 13.3333 10.0625 14C10.0208 14.6562 10 15.3229 10 16C10 16.6771 10.0208 17.349 10.0625 18.0156C10.1146 18.6719 10.1823 19.3333 10.2656 20H21.7344ZM2 16C2 17.3854 2.19271 18.7188 2.57812 20H8.25C8.16667 19.3333 8.10417 18.6719 8.0625 18.0156C8.02083 17.349 8 16.6771 8 16C8 15.3229 8.02083 14.6562 8.0625 14C8.10417 13.3333 8.16667 12.6667 8.25 12H2.57812C2.19271 13.2812 2 14.6146 2 16ZM16 2C15.4896 2 15.0104 2.14062 14.5625 2.42188C14.125 2.70312 13.7188 3.07292 13.3438 3.53125C12.9688 3.98958 12.6302 4.51042 12.3281 5.09375C12.0365 5.66667 11.776 6.25 11.5469 6.84375C11.3177 7.4375 11.125 8.01042 10.9688 8.5625C10.8125 9.11458 10.6927 9.59375 10.6094 10H21.3906C21.3073 9.59375 21.1875 9.11458 21.0312 8.5625C20.875 8.01042 20.6823 7.4375 20.4531 6.84375C20.224 6.25 19.9583 5.66667 19.6562 5.09375C19.3646 4.51042 19.0312 3.98958 18.6562 3.53125C18.2812 3.07292 17.8698 2.70312 17.4219 2.42188C16.9844 2.14062 16.5104 2 16 2ZM11.4219 2.76562C10.5469 3.06771 9.70833 3.45833 8.90625 3.9375C8.10417 4.41667 7.35938 4.96354 6.67188 5.57812C5.98438 6.19271 5.35938 6.875 4.79688 7.625C4.23438 8.36458 3.75521 9.15625 3.35938 10H8.5625C8.6875 9.375 8.83333 8.74479 9 8.10938C9.16667 7.47396 9.36458 6.84896 9.59375 6.23438C9.83333 5.60938 10.1042 5.00521 10.4062 4.42188C10.7083 3.83854 11.0469 3.28646 11.4219 2.76562ZM3.35938 22C3.75521 22.8438 4.23438 23.6406 4.79688 24.3906C5.35938 25.1302 5.98438 25.8073 6.67188 26.4219C7.35938 27.0365 8.10417 27.5833 8.90625 28.0625C9.70833 28.5417 10.5469 28.9323 11.4219 29.2344C11.0469 28.7135 10.7083 28.1615 10.4062 27.5781C10.1042 26.9948 9.83333 26.3958 9.59375 25.7812C9.36458 25.1562 9.16667 24.526 9 23.8906C8.83333 23.2552 8.6875 22.625 8.5625 22H3.35938ZM20.5781 29.2344C21.4531 28.9323 22.2917 28.5417 23.0938 28.0625C23.8958 27.5833 24.6406 27.0365 25.3281 26.4219C26.0156 25.8073 26.6406 25.1302 27.2031 24.3906C27.7656 23.6406 28.2448 22.8438 28.6406 22H23.4375C23.3125 22.625 23.1667 23.2552 23 23.8906C22.8333 24.526 22.6302 25.1562 22.3906 25.7812C22.1615 26.3958 21.8958 26.9948 21.5938 27.5781C21.2917 28.1615 20.9531 28.7135 20.5781 29.2344Z" fill="#BE5DC9"/>
</svg>
