<svg id="Layer_1" data-name="Layer 1" xmlns="http://www.w3.org/2000/svg" width="23" height="24" viewBox="0 0 23 24">
	<defs>
		<style>.cls-1{fill:none;}</style>
	</defs>
	<title>Webfiles</title>
	<rect class="cls-1" width="23" height="24"/>
	<path d="M2 22.5H8V24H0.5V0H13.5664L20 6.43359V7.5H12.5V1.5H2V22.5ZM14 6H17.4336L14 2.56641V6ZM15.5 9C16.5391 9 17.5117 9.19531 18.418 9.58594C19.332 9.97656 20.1289 10.5117 20.8086 11.1914C21.4883 11.8711 22.0234 12.668 22.4141 13.582C22.8047 14.4883 23 15.4609 23 16.5C23 17.5391 22.8047 18.5156 22.4141 19.4297C22.0234 20.3359 21.4883 21.1289 20.8086 21.8086C20.1289 22.4883 19.332 23.0234 18.418 23.4141C17.5117 23.8047 16.5391 24 15.5 24C14.4609 24 13.4844 23.8047 12.5703 23.4141C11.6641 23.0234 10.8711 22.4883 10.1914 21.8086C9.51172 21.1289 8.97656 20.3359 8.58594 19.4297C8.19531 18.5156 8 17.5391 8 16.5C8 15.4609 8.19531 14.4883 8.58594 13.582C8.97656 12.668 9.51172 11.8711 10.1914 11.1914C10.8711 10.5117 11.6641 9.97656 12.5703 9.58594C13.4844 9.19531 14.4609 9 15.5 9ZM15.5 22.5C15.6641 22.5 15.8086 22.4453 15.9336 22.3359C16.0586 22.2188 16.168 22.0703 16.2617 21.8906C16.3633 21.7031 16.4453 21.4961 16.5078 21.2695C16.5781 21.043 16.6367 20.8203 16.6836 20.6016C16.7305 20.375 16.7656 20.168 16.7891 19.9805C16.8203 19.7852 16.8438 19.625 16.8594 19.5H14.1641C14.1797 19.6094 14.1992 19.7617 14.2227 19.957C14.2539 20.1523 14.293 20.3633 14.3398 20.5898C14.3945 20.8086 14.457 21.0312 14.5273 21.2578C14.5977 21.4844 14.6797 21.6914 14.7734 21.8789C14.8672 22.0586 14.9727 22.207 15.0898 22.3242C15.2148 22.4414 15.3516 22.5 15.5 22.5ZM16.9766 18C16.9844 17.75 16.9883 17.5 16.9883 17.25C16.9961 17 17 16.75 17 16.5C17 16.0078 16.9883 15.5078 16.9648 15H14.0352C14.0117 15.5078 14 16.0078 14 16.5C14 17 14.0117 17.5 14.0352 18H16.9766ZM9.5 16.5C9.5 16.75 9.51562 17 9.54688 17.25C9.57812 17.5 9.625 17.75 9.6875 18H12.5352C12.5117 17.5 12.5 17 12.5 16.5C12.5 16.0078 12.5117 15.5078 12.5352 15H9.6875C9.625 15.25 9.57812 15.5 9.54688 15.75C9.51562 16 9.5 16.25 9.5 16.5ZM15.5 10.5C15.3516 10.5 15.2188 10.5586 15.1016 10.6758C14.9844 10.793 14.8789 10.9453 14.7852 11.1328C14.6914 11.3203 14.6094 11.5273 14.5391 11.7539C14.4688 11.9805 14.4102 12.207 14.3633 12.4336C14.3164 12.6523 14.2773 12.8594 14.2461 13.0547C14.2148 13.2422 14.1914 13.3906 14.1758 13.5H16.8125C16.7969 13.3984 16.7734 13.2539 16.7422 13.0664C16.7109 12.8711 16.668 12.6641 16.6133 12.4453C16.5586 12.2188 16.4961 11.9922 16.4258 11.7656C16.3555 11.5312 16.2734 11.3203 16.1797 11.1328C16.0938 10.9453 15.9922 10.793 15.875 10.6758C15.7578 10.5586 15.6328 10.5 15.5 10.5ZM18.4648 15C18.4883 15.5078 18.5 16.0078 18.5 16.5C18.5 16.75 18.4961 17 18.4883 17.25C18.4883 17.5 18.4844 17.75 18.4766 18H21.3125C21.375 17.75 21.4219 17.5 21.4531 17.25C21.4844 17 21.5 16.75 21.5 16.5C21.5 16.25 21.4844 16 21.4531 15.75C21.4219 15.5 21.375 15.25 21.3125 15H18.4648ZM20.6914 13.5C20.3555 12.9141 19.9336 12.4023 19.4258 11.9648C18.918 11.5273 18.3516 11.1836 17.7266 10.9336C17.8906 11.3398 18.0156 11.7617 18.1016 12.1992C18.1953 12.6289 18.2695 13.0625 18.3242 13.5H20.6914ZM13.2266 10.9453C12.6172 11.1953 12.0586 11.5391 11.5508 11.9766C11.0508 12.4141 10.6367 12.9219 10.3086 13.5H12.6523C12.7539 12.6328 12.9453 11.7812 13.2266 10.9453ZM10.3086 19.5C10.6367 20.0703 11.0508 20.5742 11.5508 21.0117C12.0508 21.4492 12.6055 21.793 13.2148 22.043C13.0508 21.6445 12.9258 21.2305 12.8398 20.8008C12.7617 20.3633 12.6992 19.9297 12.6523 19.5H10.3086ZM17.832 22.0195C18.4336 21.7695 18.9766 21.4297 19.4609 21C19.9531 20.5625 20.3633 20.0625 20.6914 19.5H18.3711C18.332 19.8984 18.2695 20.3281 18.1836 20.7891C18.1055 21.2422 17.9883 21.6523 17.832 22.0195Z"/>
</svg>