<svg id="Layer_1" data-name="Layer 1" xmlns="http://www.w3.org/2000/svg" width="24" height="24" viewBox="0 0 24 24">
	<defs>
		<style>.cls-1{fill:none;}</style>
	</defs>
	<title>Portal languages</title>
	<rect class="cls-1" width="24" height="24"/>
	<path d="M7.04297 13.5L10.5352 24H8.96484L7.95703 21H4.04297L3.03516 24H1.46484L4.95703 13.5H7.04297ZM7.46484 19.5L6 15.1172L4.53516 19.5H7.46484ZM7.5 3V7.5H10.5V9H6V3H7.5ZM3.01172 13.4648C2.54297 13.1133 2.12109 12.7148 1.74609 12.2695C1.37109 11.8242 1.05469 11.3477 0.796875 10.8398C0.539062 10.332 0.339844 9.79688 0.199219 9.23438C0.0664062 8.66406 0 8.08594 0 7.5C0 6.8125 0.0898438 6.14844 0.269531 5.50781C0.449219 4.86719 0.699219 4.26953 1.01953 3.71484C1.34766 3.16016 1.73828 2.65625 2.19141 2.20312C2.65234 1.74219 3.16016 1.35156 3.71484 1.03125C4.26953 0.703125 4.86719 0.449219 5.50781 0.269531C6.14844 0.0898438 6.8125 0 7.5 0C8.1875 0 8.85156 0.0898438 9.49219 0.269531C10.1328 0.449219 10.7305 0.703125 11.2852 1.03125C11.8398 1.35156 12.3438 1.74219 12.7969 2.20312C13.2578 2.65625 13.6484 3.16016 13.9688 3.71484C14.2969 4.26953 14.5508 4.86719 14.7305 5.50781C14.9102 6.14844 15 6.8125 15 7.5C15 7.75 14.9844 8 14.9531 8.25C14.9297 8.5 14.8945 8.75 14.8477 9H13.2891C13.3516 8.75 13.4023 8.5 13.4414 8.25C13.4805 8 13.5 7.75 13.5 7.5C13.5 6.67188 13.3398 5.89453 13.0195 5.16797C12.707 4.44141 12.2773 3.80859 11.7305 3.26953C11.1914 2.72266 10.5586 2.29297 9.83203 1.98047C9.10547 1.66016 8.32812 1.5 7.5 1.5C6.67188 1.5 5.89453 1.66016 5.16797 1.98047C4.44141 2.29297 3.80469 2.72266 3.25781 3.26953C2.71875 3.80859 2.28906 4.44141 1.96875 5.16797C1.65625 5.89453 1.5 6.67188 1.5 7.5C1.5 8.35938 1.67578 9.17578 2.02734 9.94922C2.38672 10.7148 2.88281 11.3828 3.51562 11.9531L3.01172 13.4648ZM23.7891 16.8984C23.8047 16.9609 23.8125 17.0117 23.8125 17.0508V18.1758C23.8125 18.207 23.8047 18.2539 23.7891 18.3164C23.7266 18.332 23.6758 18.3398 23.6367 18.3398C23.3242 18.332 23.0156 18.3242 22.7109 18.3164C22.4062 18.3086 22.0977 18.3047 21.7852 18.3047H18.0234V18.6914C18.0234 19.0977 18.0273 19.5039 18.0352 19.9102C18.043 20.3164 18.0547 20.7227 18.0703 21.1289V21.1758C18.0703 21.3633 18.0352 21.5508 17.9648 21.7383C17.8945 21.9258 17.7812 22.0742 17.625 22.1836C17.5156 22.2617 17.3594 22.3242 17.1562 22.3711C16.9609 22.4102 16.75 22.4414 16.5234 22.4648C16.2969 22.4805 16.0742 22.4922 15.8555 22.5C15.6445 22.5 15.4766 22.5 15.3516 22.5C15.3047 22.5 15.2305 22.5 15.1289 22.5C15.0273 22.4922 14.957 22.4688 14.918 22.4297C14.8945 22.4062 14.8672 22.3438 14.8359 22.2422C14.8047 22.1406 14.7812 22.0703 14.7656 22.0312C14.7109 21.8281 14.6445 21.6406 14.5664 21.4688C14.4961 21.2891 14.4062 21.1094 14.2969 20.9297C14.5625 20.9609 14.8281 20.9844 15.0938 21C15.3594 21.0078 15.625 21.0117 15.8906 21.0117C16.0781 21.0117 16.2188 20.9844 16.3125 20.9297C16.4141 20.8672 16.4648 20.7344 16.4648 20.5312V18.3047H12.7266C12.4141 18.3047 12.1016 18.3086 11.7891 18.3164C11.4766 18.3242 11.1641 18.332 10.8516 18.3398C10.7891 18.3398 10.7422 18.3281 10.7109 18.3047C10.6953 18.2578 10.6875 18.2148 10.6875 18.1758V17.0508C10.6875 17.0273 10.6875 17 10.6875 16.9688C10.6953 16.9297 10.707 16.9023 10.7227 16.8867C10.7695 16.8711 10.8125 16.8633 10.8516 16.8633C11.1641 16.8711 11.4766 16.8789 11.7891 16.8867C12.1016 16.8945 12.4141 16.8984 12.7266 16.8984H16.4648C16.4492 16.6953 16.4375 16.4922 16.4297 16.2891C16.4297 16.0781 16.4102 15.8711 16.3711 15.668C16.5273 15.6836 16.6797 15.6992 16.8281 15.7148C16.9844 15.7227 17.1406 15.7344 17.2969 15.75C17.3125 15.75 17.3242 15.7539 17.332 15.7617C17.3477 15.7617 17.3633 15.7617 17.3789 15.7617C17.6523 15.5664 17.9141 15.3594 18.1641 15.1406C18.4141 14.9219 18.6641 14.6992 18.9141 14.4727H15.3047C14.9766 14.4727 14.6484 14.4766 14.3203 14.4844C14 14.4922 13.6758 14.5 13.3477 14.5078C13.2852 14.5078 13.2383 14.4961 13.207 14.4727C13.1914 14.4258 13.1836 14.3828 13.1836 14.3438V13.2305C13.1836 13.1992 13.1914 13.1523 13.207 13.0898C13.2695 13.0742 13.3164 13.0664 13.3477 13.0664C13.6758 13.0742 14 13.082 14.3203 13.0898C14.6484 13.0977 14.9766 13.1016 15.3047 13.1016H19.6758C19.8008 13.1016 19.918 13.0859 20.0273 13.0547C20.1367 13.0156 20.2344 12.9961 20.3203 12.9961C20.3828 12.9961 20.4727 13.043 20.5898 13.1367C20.707 13.2305 20.8242 13.3398 20.9414 13.4648C21.0586 13.5898 21.1602 13.7188 21.2461 13.8516C21.3398 13.9766 21.3867 14.0703 21.3867 14.1328C21.3867 14.2109 21.3594 14.2734 21.3047 14.3203C21.2578 14.3594 21.2031 14.3945 21.1406 14.4258C21.0312 14.4805 20.9258 14.5508 20.8242 14.6367C20.7227 14.7227 20.625 14.8047 20.5312 14.8828C20.125 15.2188 19.7148 15.5469 19.3008 15.8672C18.8945 16.1797 18.4688 16.4805 18.0234 16.7695V16.8984H21.7852C22.0977 16.8984 22.4062 16.8945 22.7109 16.8867C23.0156 16.8789 23.3242 16.8711 23.6367 16.8633C23.6914 16.8633 23.7422 16.875 23.7891 16.8984ZM16.3008 10.418C16.3008 10.1836 16.2969 9.94531 16.2891 9.70312C16.2812 9.46094 16.25 9.22656 16.1953 9C16.7344 9 17.2695 9.02344 17.8008 9.07031C17.8477 9.07812 17.8945 9.08984 17.9414 9.10547C17.9961 9.12109 18.0234 9.16016 18.0234 9.22266C18.0234 9.26172 18.0117 9.30859 17.9883 9.36328C17.9648 9.41797 17.9453 9.46484 17.9297 9.50391C17.9141 9.55078 17.8984 9.61328 17.8828 9.69141C17.875 9.76953 17.8672 9.85547 17.8594 9.94922C17.8594 10.0352 17.8594 10.1211 17.8594 10.207C17.8594 10.2852 17.8594 10.3477 17.8594 10.3945V10.5469H21.3281C21.6562 10.5469 21.9805 10.543 22.3008 10.5352C22.6289 10.5273 22.957 10.5195 23.2852 10.5117C23.3398 10.5117 23.3906 10.5234 23.4375 10.5469C23.4609 10.5859 23.4727 10.625 23.4727 10.6641C23.4648 10.7969 23.457 10.9375 23.4492 11.0859C23.4414 11.2266 23.4375 11.3633 23.4375 11.4961V12.1758C23.4375 12.457 23.4414 12.7422 23.4492 13.0312C23.457 13.3125 23.4648 13.5938 23.4727 13.875C23.4727 13.8984 23.4688 13.9258 23.4609 13.957C23.4609 13.9883 23.4531 14.0117 23.4375 14.0273C23.375 14.043 23.3242 14.0508 23.2852 14.0508C23.2461 14.0508 23.1484 14.0547 22.9922 14.0625C22.8359 14.0625 22.6758 14.0625 22.5117 14.0625C22.3633 14.0625 22.2305 14.0586 22.1133 14.0508C21.9961 14.043 21.9297 14.0312 21.9141 14.0156C21.8984 13.9531 21.8867 13.8594 21.8789 13.7344C21.8789 13.6094 21.8789 13.4688 21.8789 13.3125C21.8789 13.0547 21.8828 12.7891 21.8906 12.5156C21.8984 12.2422 21.9023 12.0391 21.9023 11.9062H12.5039C12.5039 11.9375 12.5039 11.9961 12.5039 12.082C12.5039 12.1602 12.5039 12.2578 12.5039 12.375C12.5117 12.4844 12.5156 12.6055 12.5156 12.7383C12.5156 12.8633 12.5156 12.9922 12.5156 13.125C12.5156 13.3516 12.5117 13.5586 12.5039 13.7461C12.4961 13.9258 12.4844 14.0234 12.4688 14.0391C12.4062 14.0547 12.3555 14.0625 12.3164 14.0625H11.1211C11.0352 14.0625 10.9844 14.0508 10.9688 14.0273C10.9531 14.0039 10.9453 13.9531 10.9453 13.875C10.9531 13.5625 10.957 13.2539 10.957 12.9492C10.957 12.6445 10.957 12.3359 10.957 12.0234C10.957 11.7969 10.957 11.5703 10.957 11.3438C10.957 11.1172 10.9531 10.8906 10.9453 10.6641C10.9453 10.625 10.9531 10.582 10.9688 10.5352C11.0312 10.5195 11.082 10.5117 11.1211 10.5117C11.4492 10.5195 11.7734 10.5273 12.0938 10.5352C12.4219 10.543 12.75 10.5469 13.0781 10.5469H16.3008V10.418Z"/>
</svg>