<svg width="32" height="32" viewBox="0 0 32 32" fill="none" xmlns="http://www.w3.org/2000/svg">
<path d="M3.41667 29.7143H11.7806L11.1764 32H1V0H30V9.26786C29.1567 9.3869 28.3511 9.64881 27.5833 10.0536V2.28571H3.41667V29.7143Z" fill="#108991"/>
<path d="M28.875 13C29.3125 13 29.7188 13.0825 30.0938 13.2474C30.4792 13.4123 30.8125 13.6432 31.0938 13.9401C31.375 14.237 31.5938 14.5833 31.75 14.9792C31.9167 15.375 32 15.8038 32 16.2656C32 16.6944 31.9219 17.1123 31.7656 17.5191C31.6094 17.9259 31.3854 18.2833 31.0938 18.5911L19.8906 30.4497L14 32L15.4688 25.7821L26.6719 13.9401C26.9635 13.6322 27.3021 13.4013 27.6875 13.2474C28.0729 13.0825 28.4688 13 28.875 13ZM29.6719 17.1068C29.8906 16.8759 30 16.5955 30 16.2656C30 15.9248 29.8906 15.6499 29.6719 15.441C29.4635 15.2211 29.1979 15.1111 28.875 15.1111C28.7292 15.1111 28.5885 15.1386 28.4531 15.1936C28.3177 15.2376 28.1979 15.3145 28.0938 15.4245L17.2812 26.8707L16.75 29.0972L18.8594 28.5365L29.6719 17.1068Z" fill="#108991"/>
<path fill-rule="evenodd" clip-rule="evenodd" d="M28 2H3V30H11.6487L13 25L14.9438 23H5V17H20.7752L26.6279 10.978C26.6279 10.978 27.5007 10.2603 28 9.98909V2ZM5 5H26V11H5V5Z" fill="#108991"/>
</svg>
