<svg width="32" height="32" viewBox="0 0 32 32" fill="none" xmlns="http://www.w3.org/2000/svg">
<path fill-rule="evenodd" clip-rule="evenodd" d="M21.4522 6.8176V1.66341L26.6425 6.8176H21.4522ZM28.3186 12H14V31.9999H3V0H19.1119V9.14284H28.3186V12Z" fill="#C4A200"/>
<path d="M30 30H28V32H30V30Z" fill="#C4A200"/>
<path d="M26 30H24V32H26V30Z" fill="#C4A200"/>
<path d="M22 30H20V32H22V30Z" fill="#C4A200"/>
<path d="M26 14H24V16H26V14Z" fill="#C4A200"/>
<path d="M22 14H20V16H22V14Z" fill="#C4A200"/>
<path d="M18 30H16V32H18V30Z" fill="#C4A200"/>
<path d="M30 26H28V28H30V26Z" fill="#C4A200"/>
<path d="M18 26H16V28H18V26Z" fill="#C4A200"/>
<path d="M30 22H28V24H30V22Z" fill="#C4A200"/>
<path d="M18 22H16V24H18V22Z" fill="#C4A200"/>
<path d="M30 18H28V20H30V18Z" fill="#C4A200"/>
<path d="M18 18H16V20H18V18Z" fill="#C4A200"/>
<path d="M30 16V14H28V16H30Z" fill="#C4A200"/>
<path d="M18 14H16V16H18V14Z" fill="#C4A200"/>
</svg>
