<svg width="32" height="32" viewBox="0 0 32 32" fill="none" xmlns="http://www.w3.org/2000/svg">
<path d="M24 6V14.0156L20 18.0156V4H26V12.2969C25.5938 12.526 25.2448 12.7865 24.9531 13.0781C24.6615 13.3698 24.3438 13.6875 24 14.0312V6ZM10 8V26H4V8H10ZM32 17.0938C32 17.5 31.9219 17.8958 31.7656 18.2812C31.6094 18.6667 31.3854 19.0052 31.0938 19.2969L19.8906 30.5L14 31.9688L15.4688 26.0781L26.6719 14.8906C26.974 14.5885 27.3073 14.3646 27.6719 14.2188C28.0365 14.0729 28.4375 14 28.875 14C29.3125 14 29.7188 14.0781 30.0938 14.2344C30.4688 14.3906 30.8021 14.6042 31.0938 14.875C31.3854 15.1458 31.6042 15.474 31.75 15.8594C31.8958 16.2448 31.9792 16.6562 32 17.0938ZM30 17.0938C30 16.7604 29.8958 16.4948 29.6875 16.2969C29.4792 16.099 29.2083 16 28.875 16C28.7292 16 28.5885 16.0208 28.4531 16.0625C28.3177 16.1042 28.1979 16.1823 28.0938 16.2969L17.2812 27.1094L16.75 29.2188L18.8594 28.6875L29.6719 17.8906C29.8906 17.6719 30 17.4062 30 17.0938ZM16 22L14.0156 24L13.625 24.3906C13.5 24.5156 13.3594 24.651 13.2031 24.7969C13.151 25.0052 13.1042 25.2083 13.0625 25.4062C13.0208 25.6042 12.9688 25.8021 12.9062 26H12V12H18V20.0156L16.0156 22H16ZM2 2V28H12.4062L11.9062 30H0V2H2Z" fill="#8447FF"/>
<path d="M28.875 13C29.3125 13 29.7188 13.0825 30.0938 13.2474C30.4792 13.4123 30.8125 13.6432 31.0938 13.9401C31.375 14.237 31.5938 14.5833 31.75 14.9792C31.9167 15.375 32 15.8038 32 16.2656C32 16.6944 31.9219 17.1123 31.7656 17.5191C31.6094 17.9259 31.3854 18.2833 31.0938 18.5911L19.8906 30.4497L14 32L15.4688 25.7821L26.6719 13.9401C26.9635 13.6322 27.3021 13.4013 27.6875 13.2474C28.0729 13.0825 28.4688 13 28.875 13ZM29.6719 17.1068C29.8906 16.8759 30 16.5955 30 16.2656C30 15.9248 29.8906 15.6499 29.6719 15.441C29.4635 15.2211 29.1979 15.1111 28.875 15.1111C28.7292 15.1111 28.5885 15.1386 28.4531 15.1936C28.3177 15.2376 28.1979 15.3145 28.0938 15.4245L17.2812 26.8707L16.75 29.0972L18.8594 28.5365L29.6719 17.1068Z" fill="#B5A1FF"/>
</svg>
