<svg width="32" height="32" viewBox="0 0 32 32" fill="none" xmlns="http://www.w3.org/2000/svg">
<path d="M2 0V2H0V0H2ZM2 4V6H0V4H2ZM2 8V10H0V8H2ZM2 12V14H0V12H2ZM2 16V18H0V16H2ZM2 20V22H0V20H2ZM2 24V26H0V24H2ZM0 28H2V30H0V28ZM2 32V30H4V32H2ZM6 0V2H4V0H6ZM6 32V30H8V32H6ZM8 2V0H10V2H8ZM14 0V2H12V0H14ZM18 0V2H16V0H18ZM22 0V2H20V0H22ZM24 4H22V2H24V4ZM24 6V8H22V6H24ZM22 12V10H24V12H22Z" fill="#8447FF"/>
<path fill-rule="evenodd" clip-rule="evenodd" d="M10 16.4545V13H31.4736V16.4545H10ZM31.4736 18.1818V32H10V18.1818H31.4736Z" fill="#8447FF"/>
</svg>
