<svg width="32" height="32" viewBox="0 0 32 32" fill="none" xmlns="http://www.w3.org/2000/svg">
<g clip-path="url(#clip0)">
<path d="M13.5469 22.8281C14.224 23.1719 14.8385 23.5938 15.3906 24.0938C15.9427 24.5938 16.4115 25.1562 16.7969 25.7812C17.1823 26.4062 17.4792 27.0729 17.6875 27.7812C17.8958 28.4896 18 29.2292 18 30H16C16 29.1771 15.8438 28.401 15.5312 27.6719C15.2188 26.9427 14.7917 26.3073 14.25 25.7656C13.7083 25.224 13.0677 24.7917 12.3281 24.4688C11.5885 24.1458 10.8125 23.9896 10 24C9.16667 24 8.39062 24.1562 7.67188 24.4688C6.95312 24.7812 6.31771 25.2083 5.76562 25.75C5.21354 26.2917 4.78125 26.9323 4.46875 27.6719C4.15625 28.4115 4 29.1875 4 30H2C2 29.2396 2.10417 28.5052 2.3125 27.7969C2.52083 27.0885 2.81771 26.4167 3.20312 25.7812C3.58854 25.1458 4.05729 24.5833 4.60938 24.0938C5.16146 23.6042 5.77604 23.1823 6.45312 22.8281C5.68229 22.2656 5.08333 21.5625 4.65625 20.7188C4.22917 19.875 4.01042 18.9688 4 18C4 17.1771 4.15625 16.401 4.46875 15.6719C4.78125 14.9427 5.20833 14.3073 5.75 13.7656C6.29167 13.224 6.92708 12.7917 7.65625 12.4688C8.38542 12.1458 9.16667 11.9896 10 12C10.9583 12 11.8594 12.2135 12.7031 12.6406C13.5469 13.0677 14.2552 13.6719 14.8281 14.4531C15.224 13.6719 15.7292 12.974 16.3438 12.3594C16.9583 11.7448 17.6615 11.2396 18.4531 10.8438C17.6823 10.2708 17.0833 9.5625 16.6562 8.71875C16.2292 7.875 16.0104 6.96875 16 6C16 5.17708 16.1562 4.40104 16.4688 3.67188C16.7812 2.94271 17.2083 2.30729 17.75 1.76562C18.2917 1.22396 18.9271 0.791667 19.6562 0.46875C20.3854 0.145833 21.1667 -0.0104167 22 0C22.8229 0 23.599 0.15625 24.3281 0.46875C25.0573 0.78125 25.6927 1.20833 26.2344 1.75C26.776 2.29167 27.2083 2.93229 27.5312 3.67188C27.8542 4.41146 28.0104 5.1875 28 6C28 6.97917 27.776 7.90104 27.3281 8.76562C26.8802 9.63021 26.2552 10.3438 25.4531 10.9062C25.9427 11.1667 26.4115 11.474 26.8594 11.8281C27.3073 12.1823 27.7135 12.5833 28.0781 13.0312C28.4427 13.4792 28.7708 13.9479 29.0625 14.4375C29.3542 14.9271 29.5781 15.4479 29.7344 16H27.6406C27.4115 15.4583 27.1042 14.9479 26.7188 14.4688C26.3333 13.9896 25.8906 13.5625 25.3906 13.1875C24.8906 12.8125 24.3542 12.526 23.7812 12.3281C23.2083 12.1302 22.6146 12.026 22 12.0156C21.1667 12.0156 20.3906 12.1719 19.6719 12.4844C18.9531 12.7969 18.3177 13.224 17.7656 13.7656C17.2135 14.3073 16.7812 14.9427 16.4688 15.6719C16.1562 16.401 16 17.1771 16 18C16 18.9583 15.7865 19.8594 15.3594 20.7031C14.9323 21.5469 14.3281 22.2552 13.5469 22.8281ZM22 2C21.4479 2 20.9323 2.10417 20.4531 2.3125C19.974 2.52083 19.5469 2.80729 19.1719 3.17188C18.7969 3.53646 18.5104 3.95833 18.3125 4.4375C18.1146 4.91667 18.0104 5.4375 18 6C18 6.55208 18.1042 7.06771 18.3125 7.54688C18.5208 8.02604 18.8073 8.45312 19.1719 8.82812C19.5365 9.20312 19.9583 9.48958 20.4375 9.6875C20.9167 9.88542 21.4375 9.98958 22 10C22.5521 10 23.0677 9.89583 23.5469 9.6875C24.026 9.47917 24.4531 9.19271 24.8281 8.82812C25.2031 8.46354 25.4896 8.04167 25.6875 7.5625C25.8854 7.08333 25.9896 6.5625 26 6C26 5.44792 25.8958 4.93229 25.6875 4.45312C25.4792 3.97396 25.1927 3.54688 24.8281 3.17188C24.4635 2.79688 24.0417 2.51042 23.5625 2.3125C23.0833 2.11458 22.5625 2.01042 22 2ZM6 18C6 18.5521 6.10417 19.0677 6.3125 19.5469C6.52083 20.026 6.80729 20.4531 7.17188 20.8281C7.53646 21.2031 7.95833 21.4896 8.4375 21.6875C8.91667 21.8854 9.4375 21.9896 10 22C10.5521 22 11.0677 21.8958 11.5469 21.6875C12.026 21.4792 12.4531 21.1927 12.8281 20.8281C13.2031 20.4635 13.4896 20.0417 13.6875 19.5625C13.8854 19.0833 13.9896 18.5625 14 18C14 17.4479 13.8958 16.9323 13.6875 16.4531C13.4792 15.974 13.1927 15.5469 12.8281 15.1719C12.4635 14.7969 12.0417 14.5104 11.5625 14.3125C11.0833 14.1146 10.5625 14.0104 10 14C9.44792 14 8.93229 14.1042 8.45312 14.3125C7.97396 14.5208 7.54688 14.8073 7.17188 15.1719C6.79688 15.5365 6.51042 15.9583 6.3125 16.4375C6.11458 16.9167 6.01042 17.4375 6 18ZM32 24V32H22V24H23V22C23 21.4479 23.1042 20.9323 23.3125 20.4531C23.5208 19.974 23.8073 19.5469 24.1719 19.1719C24.5365 18.7969 24.9583 18.5104 25.4375 18.3125C25.9167 18.1146 26.4375 18.0104 27 18C27.5521 18 28.0677 18.1042 28.5469 18.3125C29.026 18.5208 29.4531 18.8073 29.8281 19.1719C30.2031 19.5365 30.4896 19.9583 30.6875 20.4375C30.8854 20.9167 30.9896 21.4375 31 22V24H32ZM25 24H29V22C29 21.7188 28.9479 21.4583 28.8438 21.2188C28.7396 20.9792 28.599 20.7708 28.4219 20.5938C28.2448 20.4167 28.0312 20.2708 27.7812 20.1562C27.5312 20.0417 27.2708 19.9896 27 20C26.7188 20 26.4583 20.0521 26.2188 20.1562C25.9792 20.2604 25.7708 20.401 25.5938 20.5781C25.4167 20.7552 25.2708 20.9688 25.1562 21.2188C25.0417 21.4688 24.9896 21.7292 25 22V24Z" fill="#2943FF"/>
</g>
<defs>
<clipPath id="clip0">
<rect width="32" height="32" fill="white"/>
</clipPath>
</defs>
</svg>
