<svg width="32" height="32" viewBox="0 0 32 32" fill="none" xmlns="http://www.w3.org/2000/svg">
<path d="M17.4219 16H28L26 18H15.4219L10.5156 22.8906C10.9844 23.2656 11.349 23.724 11.6094 24.2656C11.8698 24.8073 12 25.3854 12 26C12 26.5521 11.8958 27.0677 11.6875 27.5469C11.4792 28.026 11.1927 28.4479 10.8281 28.8125C10.4635 29.1771 10.0365 29.4635 9.54688 29.6719C9.05729 29.8802 8.54167 29.9896 8 30C7.44792 30 6.93229 29.8958 6.45312 29.6875C5.97396 29.4792 5.55208 29.1927 5.1875 28.8281C4.82292 28.4635 4.53646 28.0417 4.32812 27.5625C4.11979 27.0833 4.01042 26.5625 4 26C4 25.4583 4.10417 24.9427 4.3125 24.4531C4.52083 23.9635 4.80729 23.5417 5.17188 23.1875C5.53646 22.8333 5.95833 22.5469 6.4375 22.3281C6.91667 22.1094 7.4375 22 8 22L8.54688 22.0312L12.5781 18H7.46875C7.10417 18.6146 6.61458 19.099 6 19.4531C5.38542 19.8073 4.71875 19.9896 4 20C3.44792 20 2.93229 19.8958 2.45312 19.6875C1.97396 19.4792 1.55208 19.1927 1.1875 18.8281C0.822917 18.4635 0.536458 18.0417 0.328125 17.5625C0.119792 17.0833 0.0104167 16.5625 0 16C0 15.4583 0.104167 14.9427 0.3125 14.4531C0.520833 13.9635 0.807292 13.5417 1.17188 13.1875C1.53646 12.8333 1.95833 12.5469 2.4375 12.3281C2.91667 12.1094 3.4375 12 4 12C4.54167 12 5.05729 12.1042 5.54688 12.3125C6.03646 12.5208 6.45833 12.8073 6.8125 13.1719C7.16667 13.5365 7.45312 13.9635 7.67188 14.4531C7.89062 14.9427 8 15.4583 8 16H14.5781L22.5781 8H25.4219L17.4219 16ZM4 18C4.28125 18 4.54167 17.9479 4.78125 17.8438C5.02083 17.7396 5.22917 17.599 5.40625 17.4219C5.58333 17.2448 5.72917 17.0312 5.84375 16.7812C5.95833 16.5312 6.01042 16.2708 6 16C6 15.7188 5.94792 15.4583 5.84375 15.2188C5.73958 14.9792 5.59896 14.7708 5.42188 14.5938C5.24479 14.4167 5.03125 14.2708 4.78125 14.1562C4.53125 14.0417 4.27083 13.9896 4 14C3.71875 14 3.45833 14.0521 3.21875 14.1562C2.97917 14.2604 2.77083 14.401 2.59375 14.5781C2.41667 14.7552 2.27083 14.9688 2.15625 15.2188C2.04167 15.4688 1.98958 15.7292 2 16C2 16.2812 2.05208 16.5417 2.15625 16.7812C2.26042 17.0208 2.40104 17.2292 2.57812 17.4062C2.75521 17.5833 2.96875 17.7292 3.21875 17.8438C3.46875 17.9583 3.72917 18.0104 4 18ZM8 28C8.28125 28 8.54167 27.9479 8.78125 27.8438C9.02083 27.7396 9.22917 27.599 9.40625 27.4219C9.58333 27.2448 9.72917 27.0312 9.84375 26.7812C9.95833 26.5312 10.0104 26.2708 10 26C10 25.7188 9.94792 25.4583 9.84375 25.2188C9.73958 24.9792 9.59896 24.7708 9.42188 24.5938C9.24479 24.4167 9.03125 24.2708 8.78125 24.1562C8.53125 24.0417 8.27083 23.9896 8 24C7.71875 24 7.45833 24.0521 7.21875 24.1562C6.97917 24.2604 6.77083 24.401 6.59375 24.5781C6.41667 24.7552 6.27083 24.9688 6.15625 25.2188C6.04167 25.4688 5.98958 25.7292 6 26C6 26.2812 6.05208 26.5417 6.15625 26.7812C6.26042 27.0208 6.40104 27.2292 6.57812 27.4062C6.75521 27.5833 6.96875 27.7292 7.21875 27.8438C7.46875 27.9583 7.72917 28.0104 8 28ZM30 4H32V6H30V4ZM32 0V2H30V0H32ZM26 0H28V2H26V0ZM24 2H22V0H24V2ZM20 2H18V0H20V2ZM16 2H14V0H16V2ZM12 2H10V0H12V2ZM8 2H6V0H8V2ZM8 6H6V4H8V6ZM8 10H6V8H8V10ZM30 8H32V10H30V8ZM30 12H32V14H30V12ZM30 16H32V18H30V16ZM30 20H32V22H30V20ZM30 24H32V26H30V24ZM26 24H28V26H26V24ZM22 24H24V26H22V24ZM18 24H20V26H18V24ZM14 24H16V26H14V24Z" fill="#F472D0"/>
</svg>
