<svg width="32" height="32" viewBox="0 0 32 32" fill="none" xmlns="http://www.w3.org/2000/svg">
<path d="M22 12C22.918 12 23.8034 12.1204 24.6562 12.3613C25.5091 12.5957 26.3066 12.931 27.0488 13.3672C27.791 13.7969 28.4648 14.3177 29.0703 14.9297C29.6823 15.5352 30.2031 16.209 30.6328 16.9512C31.069 17.6934 31.4043 18.4909 31.6387 19.3438C31.8796 20.1966 32 21.082 32 22C32 22.918 31.8796 23.8034 31.6387 24.6562C31.4043 25.5091 31.069 26.3066 30.6328 27.0488C30.2031 27.791 29.6823 28.4681 29.0703 29.0801C28.4648 29.6855 27.791 30.2064 27.0488 30.6426C26.3066 31.0723 25.5091 31.4076 24.6562 31.6484C23.8034 31.8828 22.918 32 22 32C21.082 32 20.1966 31.8828 19.3438 31.6484C18.4909 31.4076 17.6934 31.0723 16.9512 30.6426C16.209 30.2064 15.5319 29.6855 14.9199 29.0801C14.3145 28.4681 13.7936 27.791 13.3574 27.0488C12.9277 26.3066 12.5924 25.5124 12.3516 24.666C12.1172 23.8132 12 22.9245 12 22C12 21.082 12.1172 20.1966 12.3516 19.3438C12.5924 18.4909 12.9277 17.6934 13.3574 16.9512C13.7936 16.209 14.3145 15.5352 14.9199 14.9297C15.5319 14.3177 16.209 13.7969 16.9512 13.3672C17.6934 12.931 18.4876 12.5957 19.334 12.3613C20.1868 12.1204 21.0755 12 22 12ZM29.9004 18.25C29.653 17.7227 29.3535 17.2279 29.002 16.7656C28.6504 16.2969 28.2598 15.8704 27.8301 15.4863C27.4004 15.1022 26.9349 14.7604 26.4336 14.4609C25.9323 14.1615 25.4082 13.9173 24.8613 13.7285C25.0957 14.054 25.3073 14.3991 25.4961 14.7637C25.6849 15.1283 25.8509 15.5059 25.9941 15.8965C26.1439 16.2806 26.2708 16.6712 26.375 17.0684C26.4792 17.4655 26.5703 17.8594 26.6484 18.25H29.9004ZM30.75 22C30.75 21.1341 30.6296 20.3008 30.3887 19.5H26.8438C26.8958 19.9167 26.9349 20.3333 26.9609 20.75C26.987 21.1602 27 21.5768 27 22C27 22.4232 26.987 22.8431 26.9609 23.2598C26.9349 23.6699 26.8958 24.0833 26.8438 24.5H30.3887C30.6296 23.6992 30.75 22.8659 30.75 22ZM22 30.75C22.319 30.75 22.6152 30.6621 22.8887 30.4863C23.1686 30.3105 23.4258 30.0794 23.6602 29.793C23.8945 29.5065 24.1029 29.1842 24.2852 28.8262C24.474 28.4616 24.64 28.0938 24.7832 27.7227C24.9264 27.3516 25.0469 26.9935 25.1445 26.6484C25.2422 26.3034 25.3171 26.0039 25.3691 25.75H18.6309C18.6829 26.0039 18.7578 26.3034 18.8555 26.6484C18.9531 26.9935 19.0736 27.3516 19.2168 27.7227C19.36 28.0938 19.5228 28.4616 19.7051 28.8262C19.8939 29.1842 20.1055 29.5065 20.3398 29.793C20.5742 30.0794 20.8281 30.3105 21.1016 30.4863C21.3815 30.6621 21.681 30.75 22 30.75ZM25.584 24.5C25.6361 24.0833 25.6751 23.6699 25.7012 23.2598C25.7337 22.8431 25.75 22.4232 25.75 22C25.75 21.5768 25.7337 21.1602 25.7012 20.75C25.6751 20.3333 25.6361 19.9167 25.584 19.5H18.416C18.3639 19.9167 18.3216 20.3333 18.2891 20.75C18.263 21.1602 18.25 21.5768 18.25 22C18.25 22.4232 18.263 22.8431 18.2891 23.2598C18.3216 23.6699 18.3639 24.0833 18.416 24.5H25.584ZM13.25 22C13.25 22.8659 13.3704 23.6992 13.6113 24.5H17.1562C17.1042 24.0833 17.0651 23.6699 17.0391 23.2598C17.013 22.8431 17 22.4232 17 22C17 21.5768 17.013 21.1602 17.0391 20.75C17.0651 20.3333 17.1042 19.9167 17.1562 19.5H13.6113C13.3704 20.3008 13.25 21.1341 13.25 22ZM22 13.25C21.681 13.25 21.3815 13.3379 21.1016 13.5137C20.8281 13.6895 20.5742 13.9206 20.3398 14.207C20.1055 14.4935 19.8939 14.819 19.7051 15.1836C19.5228 15.5417 19.36 15.9062 19.2168 16.2773C19.0736 16.6484 18.9531 17.0065 18.8555 17.3516C18.7578 17.6966 18.6829 17.9961 18.6309 18.25H25.3691C25.3171 17.9961 25.2422 17.6966 25.1445 17.3516C25.0469 17.0065 24.9264 16.6484 24.7832 16.2773C24.64 15.9062 24.474 15.5417 24.2852 15.1836C24.1029 14.819 23.8945 14.4935 23.6602 14.207C23.4258 13.9206 23.1686 13.6895 22.8887 13.5137C22.6152 13.3379 22.319 13.25 22 13.25ZM19.1387 13.7285C18.5918 13.9173 18.0677 14.1615 17.5664 14.4609C17.0651 14.7604 16.5996 15.1022 16.1699 15.4863C15.7402 15.8704 15.3496 16.2969 14.998 16.7656C14.6465 17.2279 14.347 17.7227 14.0996 18.25H17.3516C17.4297 17.8594 17.5208 17.4655 17.625 17.0684C17.7292 16.6712 17.8529 16.2806 17.9961 15.8965C18.1458 15.5059 18.3151 15.1283 18.5039 14.7637C18.6927 14.3991 18.9043 14.054 19.1387 13.7285ZM14.0996 25.75C14.347 26.2773 14.6465 26.7754 14.998 27.2441C15.3496 27.7064 15.7402 28.1296 16.1699 28.5137C16.5996 28.8978 17.0651 29.2396 17.5664 29.5391C18.0677 29.8385 18.5918 30.0827 19.1387 30.2715C18.9043 29.946 18.6927 29.6009 18.5039 29.2363C18.3151 28.8717 18.1458 28.4974 17.9961 28.1133C17.8529 27.7227 17.7292 27.3288 17.625 26.9316C17.5208 26.5345 17.4297 26.1406 17.3516 25.75H14.0996ZM24.8613 30.2715C25.4082 30.0827 25.9323 29.8385 26.4336 29.5391C26.9349 29.2396 27.4004 28.8978 27.8301 28.5137C28.2598 28.1296 28.6504 27.7064 29.002 27.2441C29.3535 26.7754 29.653 26.2773 29.9004 25.75H26.6484C26.5703 26.1406 26.4792 26.5345 26.375 26.9316C26.2708 27.3288 26.1439 27.7227 25.9941 28.1133C25.8509 28.4974 25.6849 28.8717 25.4961 29.2363C25.3073 29.6009 25.0957 29.946 24.8613 30.2715Z" fill="#FF823B"/>
<path fill-rule="evenodd" clip-rule="evenodd" d="M21.4522 6.8176V1.66341L26.6425 6.8176H21.4522ZM28.3186 11.7964C26.4835 10.6576 24.3186 10 22 10C15.3726 10 10 15.3726 10 22C10 26.1739 12.131 29.8501 15.3643 31.9999H3V0H19.1119V9.14284H28.3186V11.7964Z" fill="#FF823B"/>
</svg>
