<svg width="32" height="30" viewBox="0 0 32 30" fill="none" xmlns="http://www.w3.org/2000/svg">
<path fill-rule="evenodd" clip-rule="evenodd" d="M26.6165 8.12715L20.1762 0.80991C19.2471 -0.245717 17.6022 -0.24572 16.6731 0.809909L15.7574 1.85037L14.952 0.893583C14.0235 -0.209448 12.3268 -0.214849 11.3914 0.882252L0.644248 13.4862C-0.0995133 14.3585 -0.0995162 15.6418 0.644247 16.5141L11.3914 29.1181C12.3268 30.2152 14.0235 30.2098 14.952 29.1068L15.7574 28.1499L16.6731 29.1903C17.6022 30.2459 19.2471 30.2459 20.1762 29.1903L26.6129 21.8771C26.6189 21.8704 26.6249 21.8637 26.6308 21.857L31.309 16.5418C32.0847 15.6604 32.0847 14.3399 31.309 13.4585L26.6308 8.14328C26.626 8.13788 26.6213 8.1325 26.6165 8.12715ZM18.6749 2.13129C18.5422 1.98049 18.3072 1.98049 18.1744 2.13129L13.4962 7.44653C13.3854 7.57244 13.3854 7.76109 13.4962 7.887L18.4 13.4585C18.4083 13.468 18.4166 13.4775 18.4248 13.4871C18.4329 13.4775 18.4412 13.468 18.4495 13.4585L23.1277 8.14328C23.2709 7.98061 23.4311 7.84301 23.603 7.73047L18.6749 2.13129ZM25.124 9.45859L29.8075 14.7799C29.9183 14.9058 29.9183 15.0944 29.8075 15.2203L25.1227 20.5431C24.9888 20.6864 24.7595 20.6839 24.629 20.5356L19.9508 15.2204C19.84 15.0945 19.84 14.9058 19.9508 14.7799L24.629 9.46467C24.76 9.31591 24.9904 9.31389 25.124 9.45859ZM23.603 22.2698L18.6749 27.8689C18.5422 28.0197 18.3072 28.0197 18.1744 27.8689L13.4962 22.5537C13.3854 22.4278 13.3854 22.2391 13.4962 22.1132L18.4 16.5417C18.4083 16.5322 18.4166 16.5227 18.4247 16.5131C18.4329 16.5227 18.4412 16.5323 18.4495 16.5418L23.1277 21.857C23.2709 22.0197 23.431 22.1572 23.603 22.2698ZM11.9949 23.875L14.4212 26.6317L13.4219 27.8188C13.2893 27.9764 13.0469 27.9772 12.9132 27.8204L2.16611 15.2165C2.05986 15.0918 2.05986 14.9085 2.16611 14.7839L12.9132 2.17991C13.0469 2.02318 13.2893 2.02395 13.4219 2.18153L14.4211 3.3686L11.9949 6.12515C11.2192 7.00651 11.2192 8.32701 11.9949 9.20838L16.8987 14.7799C17.0095 14.9058 17.0095 15.0944 16.8987 15.2203L11.9949 20.7918C11.2192 21.6732 11.2192 22.9937 11.9949 23.875Z" fill="black"/>
</svg>
