<svg xmlns="http://www.w3.org/2000/svg" width="96" height="96" viewBox="0 0 96 96" fill="none">
  <defs>
    <clipPath id="clip0_91_3265">
      <rect width="96" height="96" fill="white"/>
    </clipPath>
    <clipPath id="clip1_91_3265">
      <rect width="96" height="96" fill="white"/>
    </clipPath>
  </defs>
  <g clip-path="url(#clip0_91_3265)">
    <g clip-path="url(#clip1_91_3265)">
      <path fill-rule="evenodd" clip-rule="evenodd" d="M70.8042 9.23386C67.4974 3.14431 58.7762 3.08858 55.3918 9.13538L50.4303 18H50.4464L49.6613 19.374L48.1681 22.0418L48.1444 22.0285L34.4376 46.0155C33.7349 47.2452 33.7349 48.7548 34.4376 49.9846L39.7597 59.2983C44.5215 67.6315 38.5044 78 28.9066 78H18.741C16.9467 78 15.29 77.0386 14.3998 75.4807L2.66564 54.946C0.206177 50.6419 0.206181 45.3581 2.66564 41.0541L14.3998 20.5193C15.29 18.9614 16.9467 18 18.741 18H45.8464L51.9013 7.18177C56.824 -1.61357 69.5094 -1.53251 74.3193 7.32503L74.7459 8.11054C75.273 9.08123 74.9134 10.2954 73.9427 10.8225C72.972 11.3497 71.7578 10.9901 71.2307 10.0194L70.8042 9.23386ZM36.2867 61.2828C39.5248 66.9494 35.4331 74 28.9066 74H18.741C18.3821 74 18.0508 73.8077 17.8728 73.4962L6.13861 52.9614C4.38186 49.8871 4.38186 46.113 6.13862 43.0386L17.8728 22.5039C18.0508 22.1923 18.3821 22 18.741 22H43.5537L30.9646 44.0309C29.5592 46.4904 29.5592 49.5097 30.9646 51.9691L36.2867 61.2828Z" fill="black"/>
      <path fill-rule="evenodd" clip-rule="evenodd" d="M67.0934 18C57.4956 18 51.4785 28.3685 56.2404 36.7018L61.5625 46.0155C62.2652 47.2452 62.2652 48.7548 61.5625 49.9846L45.5537 78H45.5894L40.53 86.9284C37.1042 92.974 28.352 92.8504 25.0982 86.7106L24.7848 86.1192C24.2676 85.1432 23.0571 84.7713 22.0811 85.2885C21.1051 85.8057 20.7332 87.0162 21.2504 87.9922L21.5638 88.5836C26.2966 97.5143 39.0271 97.694 44.0101 88.9005L50.187 78H77.2591C79.0533 78 80.7101 77.0386 81.6003 75.4807L93.3344 54.946C95.7939 50.6419 95.7939 45.3581 93.3344 41.0541L81.6003 20.5193C80.7101 18.9615 79.0533 18 77.2591 18H67.0934ZM59.7134 34.7172C56.4753 29.0506 60.5669 22 67.0934 22H77.2591C77.6179 22 77.9493 22.1923 78.1273 22.5039L89.8615 43.0386C91.6182 46.113 91.6182 49.8871 89.8615 52.9614L78.1273 73.4962C77.9493 73.8077 77.6179 74 77.2591 74H52.4464L65.0355 51.9691C66.4409 49.5097 66.4409 46.4904 65.0355 44.0309L59.7134 34.7172Z" fill="black"/>
    </g>
  </g>
</svg>
