<svg width="24" height="24" viewBox="0 0 24 24" fill="none" xmlns="http://www.w3.org/2000/svg">
<path fill-rule="evenodd" clip-rule="evenodd" d="M9.5468 0.00189209C9.01851 0.00189209 8.53559 0.300456 8.29947 0.773046L6.45428 4.46623C5.99109 5.39331 6.66526 6.48377 7.70161 6.48377H16.6921C17.9064 6.48377 18.9074 7.12605 19.4656 8.0393C19.383 8.04591 19.2997 8.04927 19.2159 8.04927H6.06105C5.19191 8.04927 4.39777 8.54158 4.01121 9.32003L1.05278 15.2777L1.05217 15.279C0.766918 15.8715 0.735703 16.5909 1.06912 17.2577L3.92566 22.9708C4.43951 23.9985 5.90609 23.9985 6.41995 22.9708L10.4047 15.0013H16.1775C17.7615 15.0013 19.2113 14.1209 19.9434 12.7218L19.9489 12.7246L20.4938 11.6348C20.5037 11.615 20.5135 11.595 20.5231 11.5751L23.2322 6.15158C24.6438 3.32561 22.5887 0.00189209 19.4298 0.00189209H9.5468ZM19.7045 10.956L21.7857 6.81207L21.4834 7.41297C21.0197 8.33453 20.1193 8.94663 19.1067 9.04936H6.06105C5.5717 9.04936 5.12458 9.32654 4.90694 9.76483L2.79449 14.0189C2.88808 14.0072 2.98391 14.0012 3.08175 14.0012L16.1775 14.0012C17.4114 14.0012 18.5389 13.3026 19.0881 12.1977L19.7007 10.9651C19.702 10.9621 19.7032 10.959 19.7045 10.956ZM1.96362 16.8105C1.77777 16.4388 1.7959 16.0377 1.95585 15.7079C2.17515 15.2747 2.61956 15.0013 3.1055 15.0013H9.28656L5.52544 22.5236C5.38015 22.8141 4.96546 22.8141 4.82016 22.5236L1.96362 16.8105Z" fill="black"/>
</svg>
