<?xml version="1.0" encoding="utf-8"?>
<!-- Svg Vector Icons : http://www.onlinewebfonts.com/icon -->
<!DOCTYPE svg PUBLIC "-//W3C//DTD SVG 1.1//EN" "http://www.w3.org/Graphics/SVG/1.1/DTD/svg11.dtd">
<svg version="1.1" xmlns="http://www.w3.org/2000/svg" xmlns:xlink="http://www.w3.org/1999/xlink" x="0px" y="0px" viewBox="0 0 1000 1000" enable-background="new 0 0 1000 1000" xml:space="preserve">
<metadata> Svg Vector Icons : http://www.onlinewebfonts.com/icon </metadata>
<g><path d="M473.3,11.2c155.9-10,281.3,54.5,359.7,130.1c79.4,76.4,149.6,183.6,156.4,332.4c7.2,159.6-54.3,279.6-130.1,359.7c-80.2,84.8-184.8,145.1-333.5,155.3c-154.8,10.6-276.9-54-358.6-129c-82.6-75.8-148-183.1-156.4-332.4C2,368.7,64,251.5,139.9,168.7c57.6-62.9,130-112,227.4-140C400.4,19.2,437.5,13.5,473.3,11.2z M932.6,532.8c7.8-99.6-19.3-183.9-56.9-249.3c-36-62.7-86.3-117.2-152-156.4c-64.8-38.6-149.3-66.5-248.2-61.2C303.6,75,177.5,178.6,113.6,302C78.8,369.3,59.1,453.8,68.8,547c9.1,88.1,40.6,154.9,84.2,213.2c52.5-100.3,135.8-169.6,254.8-203.4c-56.3-34.5-97.9-82.1-101.7-161.8c-2.8-58.2,20.8-105.6,51.4-140c29.5-33,73.4-60.6,127.9-64.5C597.8,182.5,672.2,257,692,341.4c23.9,101.6-31.3,178.2-96.2,216.5c118.9,31.6,200.3,100.8,252.6,199C893.9,697.5,925.2,626.5,932.6,532.8z M371.7,332.7c-40,97.5,35.2,184.6,114.8,192.4c87.5,8.6,155.9-58.5,155.3-140c-0.3-37.7-19.2-75.8-37.2-95.1c-23.6-25.5-66.8-48.4-119.2-42.6C429.2,253.5,388.5,291.6,371.7,332.7z M694.2,662.9c-60.7-43.2-155.6-72.4-253.7-54.7c-122.6,22.2-200.9,97.5-247.1,197.9C262,875.5,363,934,501.8,934c69,0,130.4-15.8,180.4-39.4c50.3-23.7,95-55.1,126.8-92.9C782.2,744.8,744.7,698.8,694.2,662.9z"/></g>
</svg>