<svg width="32" height="32" viewBox="0 0 32 32" fill="none" xmlns="http://www.w3.org/2000/svg">
<path d="M16.1406 29.9688C16.474 30.3021 16.8177 30.6198 17.1719 30.9219C17.526 31.224 17.8854 31.526 18.25 31.8281C17.875 31.8802 17.5 31.9219 17.125 31.9531C16.75 31.9844 16.375 32 16 32C14.5312 32 13.1146 31.8125 11.75 31.4375C10.3854 31.0625 9.11458 30.5208 7.9375 29.8125C6.76042 29.1042 5.68229 28.2708 4.70312 27.3125C3.72396 26.3542 2.88542 25.276 2.1875 24.0781C1.48958 22.8802 0.953125 21.6042 0.578125 20.25C0.203125 18.8958 0.0104167 17.4792 0 16C0 14.5312 0.1875 13.1146 0.5625 11.75C0.9375 10.3854 1.47917 9.11458 2.1875 7.9375C2.89583 6.76042 3.72917 5.68229 4.6875 4.70312C5.64583 3.72396 6.72396 2.88542 7.92188 2.1875C9.11979 1.48958 10.3958 0.953125 11.75 0.578125C13.1042 0.203125 14.5208 0.0104167 16 0C17.2812 0 18.526 0.145833 19.7344 0.4375C20.9427 0.729167 22.0885 1.15104 23.1719 1.70312C24.2552 2.25521 25.2656 2.91667 26.2031 3.6875C27.1406 4.45833 27.9792 5.33333 28.7188 6.3125C29.4583 7.29167 30.0833 8.33854 30.5938 9.45312C31.1042 10.5677 31.4792 11.7656 31.7188 13.0469C31.3542 13.0365 30.9948 13.0104 30.6406 12.9688C30.2865 12.9271 29.9323 12.8542 29.5781 12.75L29.4062 12H27.7969L27.6875 11.9375C26.9479 11.4583 26.2083 11.099 25.4688 10.8594C24.7292 10.6198 23.9062 10.5 23 10.5C21.3229 10.5 19.7865 10.9583 18.3906 11.875C18.349 11.8958 18.3125 11.9167 18.2812 11.9375C18.25 11.9583 18.2135 11.9792 18.1719 12H10.2656C10.1719 12.6667 10.1042 13.3281 10.0625 13.9844C10.0208 14.6406 10 15.3125 10 16C10 16.6771 10.0208 17.3438 10.0625 18C10.1042 18.6562 10.1719 19.3229 10.2656 20H11.5156C11.5156 20.6771 11.5781 21.3438 11.7031 22H10.6094C10.6927 22.3854 10.8125 22.849 10.9688 23.3906C11.125 23.9323 11.3177 24.5 11.5469 25.0938C11.776 25.6875 12.0417 26.276 12.3438 26.8594C12.6458 27.4427 12.9792 27.9688 13.3438 28.4375C13.7083 28.9062 14.1146 29.2812 14.5625 29.5625C15.0104 29.8438 15.4896 29.9896 16 30C16.0312 30 16.0781 29.9896 16.1406 29.9688ZM28.625 10C28.2292 9.15625 27.7552 8.36458 27.2031 7.625C26.651 6.88542 26.026 6.20312 25.3281 5.57812C24.6302 4.95312 23.8854 4.41146 23.0938 3.95312C22.3021 3.49479 21.4583 3.10417 20.5625 2.78125C20.9375 3.29167 21.2708 3.83854 21.5625 4.42188C21.8542 5.00521 22.1198 5.60417 22.3594 6.21875C22.599 6.83333 22.8073 7.46354 22.9844 8.10938C23.1615 8.75521 23.3125 9.38542 23.4375 10H28.625ZM16 2C15.4896 2 15.0156 2.14062 14.5781 2.42188C14.1406 2.70312 13.7344 3.08333 13.3594 3.5625C12.9844 4.04167 12.6458 4.56771 12.3438 5.14062C12.0417 5.71354 11.776 6.30208 11.5469 6.90625C11.3177 7.51042 11.125 8.07812 10.9688 8.60938C10.8125 9.14062 10.6927 9.60417 10.6094 10H21.3906C21.3073 9.61458 21.1875 9.15104 21.0312 8.60938C20.875 8.06771 20.6823 7.5 20.4531 6.90625C20.224 6.3125 19.9583 5.72396 19.6562 5.14062C19.3542 4.55729 19.0208 4.03125 18.6562 3.5625C18.2917 3.09375 17.8854 2.71875 17.4375 2.4375C16.9896 2.15625 16.5104 2.01042 16 2ZM11.4375 2.78125C10.5521 3.08333 9.70833 3.46875 8.90625 3.9375C8.10417 4.40625 7.35938 4.95312 6.67188 5.57812C5.98438 6.20312 5.36458 6.88021 4.8125 7.60938C4.26042 8.33854 3.78125 9.13542 3.375 10H8.5625C8.6875 9.38542 8.83333 8.76042 9 8.125C9.16667 7.48958 9.36979 6.85938 9.60938 6.23438C9.84896 5.60938 10.1198 5.00521 10.4219 4.42188C10.724 3.83854 11.0625 3.29167 11.4375 2.78125ZM2 16C2 17.3542 2.19792 18.6875 2.59375 20H8.25C8.16667 19.3333 8.10417 18.6719 8.0625 18.0156C8.02083 17.3594 8 16.6875 8 16C8 15.3229 8.02083 14.6562 8.0625 14C8.10417 13.3438 8.16667 12.6771 8.25 12H2.59375C2.19792 13.3125 2 14.6458 2 16ZM3.375 22C3.77083 22.8438 4.24479 23.6354 4.79688 24.375C5.34896 25.1146 5.97396 25.7969 6.67188 26.4219C7.36979 27.0469 8.11458 27.5885 8.90625 28.0469C9.69792 28.5052 10.5417 28.8958 11.4375 29.2188C11.0625 28.7083 10.724 28.1615 10.4219 27.5781C10.1198 26.9948 9.85417 26.3958 9.625 25.7812C9.39583 25.1667 9.19271 24.5365 9.01562 23.8906C8.83854 23.2448 8.6875 22.6146 8.5625 22H3.375ZM32 15.5625V19.8281C32 20.7448 31.8802 21.625 31.6406 22.4688C31.401 23.3125 31.0729 24.1146 30.6562 24.875C30.2396 25.6354 29.7448 26.3594 29.1719 27.0469C28.599 27.7344 27.9792 28.3698 27.3125 28.9531C26.6458 29.5365 25.9479 30.0885 25.2188 30.6094C24.4896 31.1302 23.75 31.5938 23 32C22.25 31.5833 21.5104 31.125 20.7812 30.625C20.0521 30.125 19.3542 29.5729 18.6875 28.9688C18.0208 28.3646 17.401 27.724 16.8281 27.0469C16.2552 26.3698 15.7604 25.651 15.3438 24.8906C14.9271 24.1302 14.599 23.3229 14.3594 22.4688C14.1198 21.6146 14 20.7344 14 19.8281V15.5625C15.0417 15.5625 16.0417 15.4375 17 15.1875C17.9583 14.9375 18.8854 14.5312 19.7812 13.9688C20.3021 13.6354 20.8125 13.3906 21.3125 13.2344C21.8125 13.0781 22.375 13 23 13C23.625 13 24.1875 13.0781 24.6875 13.2344C25.1875 13.3906 25.6979 13.6354 26.2188 13.9688C27.1042 14.5312 28.026 14.9375 28.9844 15.1875C29.9427 15.4375 30.9479 15.5625 32 15.5625Z" fill="#BE5DC9"/>
</svg>
