<svg width="403" height="358" viewBox="0 0 403 358" fill="none" xmlns="http://www.w3.org/2000/svg">
<rect width="198" height="318" transform="translate(205 18)" fill="var(--vscode-editor-background)"/>
<rect width="198" height="35" transform="translate(205 18)" fill="var(--vscode-editorGroupHeader-tabsBackground, #1e1e1e)"/>
<g clip-path="url(#clip0_5875_443595)">
<rect width="103" height="35" transform="translate(205 18)" fill="var(--vscode-tab-activeBackground, #252528)"/>
<rect x="217" y="32" width="79" height="7" rx="3.5" fill="var(--vscode-tab-unfocusedInactiveForeground)"/>
</g>
<rect x="248" y="71" width="55" height="7" rx="3.5" fill="var(--vscode-tab-unfocusedInactiveForeground)"/>
<rect x="248" y="90" width="55" height="7" rx="3.5" fill="var(--vscode-tab-unfocusedInactiveForeground)"/>
<rect x="248" y="147" width="72" height="7" rx="3.5" fill="var(--vscode-tab-unfocusedInactiveForeground)"/>
<rect x="326" y="147" width="26" height="7" rx="3.5" fill="var(--vscode-tab-unfocusedInactiveForeground)"/>
<rect x="248" y="267" width="72" height="7" rx="3.5" fill="var(--vscode-tab-unfocusedInactiveForeground)"/>
<rect x="326" y="267" width="26" height="7" rx="3.5" fill="var(--vscode-tab-unfocusedInactiveForeground)"/>
<rect x="265" y="166" width="30" height="7" rx="3.5" fill="var(--vscode-tab-unfocusedInactiveForeground)"/>
<rect x="275" y="185" width="30" height="7" rx="3.5" fill="var(--vscode-tab-unfocusedInactiveForeground)"/>
<rect x="311" y="185" width="41" height="7" rx="3.5" fill="var(--vscode-tab-unfocusedInactiveForeground)"/>
<rect x="265" y="204" width="30" height="7" rx="3.5" fill="var(--vscode-tab-unfocusedInactiveForeground)"/>
<rect x="256" y="223" width="31" height="7" rx="3.5" fill="var(--vscode-tab-unfocusedInactiveForeground)"/>
<rect x="309" y="71" width="52" height="7" rx="3.5" fill="var(--vscode-tab-unfocusedInactiveForeground)"/>
<rect x="309" y="90" width="74" height="7" rx="3.5" fill="var(--vscode-tab-unfocusedInactiveForeground)"/>
<rect x="302" y="166" width="59" height="7" rx="3.5" fill="var(--vscode-tab-unfocusedInactiveForeground)"/>
<g filter="url(#filter0_d_5875_443595)">
<rect width="210.268" height="342" transform="translate(8.36572 6)" fill="var(--vscode-sideBar-background)"/>
<path d="M25.171 28.1875H27.6847C28.9393 28.1875 29.8024 29.0506 29.8024 30.3141C29.8024 31.5509 28.9126 32.414 27.6536 32.414H26.1676V34.6074H25.171V28.1875ZM26.1676 29.0283V31.5776H27.4222C28.2809 31.5776 28.7836 31.1194 28.7836 30.3141C28.7836 29.4821 28.2987 29.0283 27.4222 29.0283H26.1676ZM33.8244 28.0317C35.6707 28.0317 36.8186 29.3309 36.8186 31.3952C36.8186 33.4551 35.6796 34.7631 33.8244 34.7631C31.9558 34.7631 30.8257 33.4596 30.8257 31.3952C30.8257 29.3264 31.9825 28.0317 33.8244 28.0317ZM33.8244 28.9127C32.6098 28.9127 31.8446 29.8736 31.8446 31.3952C31.8446 32.9034 32.5875 33.8822 33.8244 33.8822C35.0434 33.8822 35.7997 32.9034 35.7997 31.3952C35.7997 29.8736 35.039 28.9127 33.8244 28.9127ZM41.5612 29.8069L40.1865 34.6074H39.2433L37.5126 28.1875H38.5492L39.7282 33.1793H39.7905L41.1297 28.1875H42.0551L43.4031 33.1793H43.4654L44.64 28.1875H45.6766L43.9415 34.6074H43.0027L41.6235 29.8069H41.5612ZM50.9576 33.7488V34.6074H46.8823V28.1875H50.9576V29.0461H47.8789V30.9236H50.793V31.7511H47.8789V33.7488H50.9576ZM53.3957 32.1382V34.6074H52.3991V28.1875H54.9395C56.2342 28.1875 57.0661 28.9527 57.0661 30.1495C57.0661 31.017 56.6034 31.72 55.8204 31.9825L57.2619 34.6074H56.1096L54.8016 32.1382H53.3957ZM53.3957 29.0239V31.3196H54.8283C55.598 31.3196 56.0429 30.9058 56.0429 30.1717C56.0429 29.4554 55.5713 29.0239 54.8016 29.0239H53.3957ZM58.4854 28.1875H60.9991C62.2537 28.1875 63.1168 29.0506 63.1168 30.3141C63.1168 31.5509 62.227 32.414 60.9679 32.414H59.482V34.6074H58.4854V28.1875ZM59.482 29.0283V31.5776H60.7366C61.5953 31.5776 62.098 31.1194 62.098 30.3141C62.098 29.4821 61.6131 29.0283 60.7366 29.0283H59.482ZM68.1398 34.6074L67.5525 32.8723H65.1055L64.5138 34.6074H63.4905L65.8085 28.1875H66.8807L69.1987 34.6074H68.1398ZM66.2934 29.322L65.3591 32.0715H67.2989L66.3691 29.322H66.2934ZM75.494 32.0804C75.494 33.7087 74.404 34.7631 72.7223 34.7631C70.9026 34.7631 69.7548 33.464 69.7548 31.3952C69.7548 29.3531 70.916 28.0317 72.7134 28.0317C74.1727 28.0317 75.2316 28.8504 75.4496 30.145H74.4485C74.1994 29.3487 73.5899 28.9171 72.7134 28.9171C71.5255 28.9171 70.7736 29.8736 70.7736 31.3908C70.7736 32.9301 71.53 33.8778 72.7356 33.8778C73.7856 33.8778 74.5064 33.2149 74.5153 32.2316V32.0893H72.8602V31.284H75.494V32.0804ZM80.9441 33.7488V34.6074H76.8688V28.1875H80.9441V29.0461H77.8654V30.9236H80.7795V31.7511H77.8654V33.7488H80.9441ZM82.0831 32.8945H83.0708C83.1553 33.5174 83.7515 33.9134 84.6101 33.9134C85.4109 33.9134 85.9982 33.4907 85.9982 32.9034C85.9982 32.4007 85.6245 32.0893 84.7747 31.8846L83.9472 31.6844C82.786 31.4041 82.2566 30.8524 82.2566 29.9181C82.2566 28.7881 83.1909 28.0317 84.5923 28.0317C85.8959 28.0317 86.848 28.7881 86.9058 29.8603H85.9359C85.8425 29.2508 85.3264 28.8771 84.579 28.8771C83.7915 28.8771 83.2665 29.2641 83.2665 29.8647C83.2665 30.3319 83.6046 30.5988 84.4411 30.8035L85.1485 30.977C86.4654 31.2929 87.0081 31.8223 87.0081 32.7833C87.0081 33.9979 86.0561 34.7631 84.5345 34.7631C83.1108 34.7631 82.1543 34.0335 82.0831 32.8945ZM91.0523 31.9291C91.0523 30.3141 91.4705 28.9883 92.3381 27.8805H93.1834C92.5427 28.6947 92.04 30.4075 92.04 31.9247C92.04 33.4507 92.5383 35.1591 93.1834 35.9777H92.3381C91.4705 34.8655 91.0523 33.5441 91.0523 31.9291ZM98.0907 29.8069L96.7159 34.6074H95.7727L94.0421 28.1875H95.0787L96.2577 33.1793H96.32L97.6591 28.1875H98.5845L99.9326 33.1793H99.9949L101.169 28.1875H102.206L100.471 34.6074H99.5322L98.153 29.8069H98.0907ZM105.899 28.0317C107.745 28.0317 108.893 29.3309 108.893 31.3952C108.893 33.4551 107.754 34.7631 105.899 34.7631C104.03 34.7631 102.9 33.4596 102.9 31.3952C102.9 29.3264 104.057 28.0317 105.899 28.0317ZM105.899 28.9127C104.684 28.9127 103.919 29.8736 103.919 31.3952C103.919 32.9034 104.662 33.8822 105.899 33.8822C107.118 33.8822 107.874 32.9034 107.874 31.3952C107.874 29.8736 107.113 28.9127 105.899 28.9127ZM111.242 32.1382V34.6074H110.245V28.1875H112.786C114.081 28.1875 114.912 28.9527 114.912 30.1495C114.912 31.017 114.45 31.72 113.667 31.9825L115.108 34.6074H113.956L112.648 32.1382H111.242ZM111.242 29.0239V31.3196H112.675C113.444 31.3196 113.889 30.9058 113.889 30.1717C113.889 29.4554 113.418 29.0239 112.648 29.0239H111.242ZM117.328 34.6074H116.332V28.1875H117.328V31.2217H117.4L120.056 28.1875H121.235L118.752 30.9726L121.448 34.6074H120.202L118.049 31.6488L117.328 32.4674V34.6074ZM121.973 32.8945H122.961C123.045 33.5174 123.642 33.9134 124.5 33.9134C125.301 33.9134 125.888 33.4907 125.888 32.9034C125.888 32.4007 125.515 32.0893 124.665 31.8846L123.837 31.6844C122.676 31.4041 122.147 30.8524 122.147 29.9181C122.147 28.7881 123.081 28.0317 124.482 28.0317C125.786 28.0317 126.738 28.7881 126.796 29.8603H125.826C125.733 29.2508 125.216 28.8771 124.469 28.8771C123.682 28.8771 123.157 29.2641 123.157 29.8647C123.157 30.3319 123.495 30.5988 124.331 30.8035L125.039 30.977C126.355 31.2929 126.898 31.8223 126.898 32.7833C126.898 33.9979 125.946 34.7631 124.425 34.7631C123.001 34.7631 122.044 34.0335 121.973 32.8945ZM128.211 28.1875H130.724C131.979 28.1875 132.842 29.0506 132.842 30.3141C132.842 31.5509 131.952 32.414 130.693 32.414H129.207V34.6074H128.211V28.1875ZM129.207 29.0283V31.5776H130.462C131.321 31.5776 131.823 31.1194 131.823 30.3141C131.823 29.4821 131.338 29.0283 130.462 29.0283H129.207ZM137.865 34.6074L137.278 32.8723H134.831L134.239 34.6074H133.216L135.534 28.1875H136.606L138.924 34.6074H137.865ZM136.019 29.322L135.084 32.0715H137.024L136.094 29.322H136.019ZM142.376 34.7631C140.592 34.7631 139.48 33.4729 139.48 31.3997C139.48 29.322 140.588 28.0317 142.372 28.0317C143.787 28.0317 144.881 28.9349 145.041 30.2207H144.049C143.862 29.4243 143.217 28.9171 142.372 28.9171C141.22 28.9171 140.499 29.8736 140.499 31.3997C140.499 32.9257 141.22 33.8778 142.376 33.8778C143.226 33.8778 143.871 33.4195 144.049 32.6899H145.041C144.863 33.9401 143.809 34.7631 142.376 34.7631ZM150.429 33.7488V34.6074H146.354V28.1875H150.429V29.0461H147.35V30.9236H150.265V31.7511H147.35V33.7488H150.429ZM153.65 31.9291C153.65 33.5486 153.232 34.8699 152.369 35.9777H151.524C152.164 35.1636 152.667 33.4551 152.667 31.9336C152.667 30.4075 152.164 28.6991 151.524 27.8805H152.369C153.232 28.9927 153.65 30.3186 153.65 31.9291Z" fill="#CCCCCC"/>
<path d="M30.3657 59.1152L34.6857 54.7418L35.3257 55.3818L30.6324 60.0218H30.0457L25.3524 55.3818L25.9924 54.7418L30.3657 59.1152Z" fill="var(--vscode-tab-unfocusedInactiveForeground)"/>
<g clip-path="url(#clip1_5875_443595)">
<path d="M52.3657 51.0352C52.9165 51.0352 53.4477 51.1074 53.9595 51.252C54.4712 51.3926 54.9497 51.5937 55.395 51.8555C55.8403 52.1133 56.2446 52.4258 56.6079 52.793C56.9751 53.1562 57.2876 53.5605 57.5454 54.0059C57.8071 54.4512 58.0083 54.9297 58.1489 55.4414C58.2935 55.9531 58.3657 56.4844 58.3657 57.0352C58.3657 57.586 58.2935 58.1172 58.1489 58.6289C58.0083 59.1406 57.8071 59.6191 57.5454 60.0644C57.2876 60.5098 56.9751 60.916 56.6079 61.2832C56.2446 61.6465 55.8403 61.959 55.395 62.2207C54.9497 62.4785 54.4712 62.6797 53.9595 62.8242C53.4477 62.9648 52.9165 63.0352 52.3657 63.0352C51.8149 63.0352 51.2837 62.9648 50.772 62.8242C50.2602 62.6797 49.7817 62.4785 49.3364 62.2207C48.8911 61.959 48.4849 61.6465 48.1177 61.2832C47.7544 60.916 47.4419 60.5098 47.1802 60.0644C46.9224 59.6191 46.7212 59.1426 46.5767 58.6348C46.436 58.123 46.3657 57.5899 46.3657 57.0352C46.3657 56.4844 46.436 55.9531 46.5767 55.4414C46.7212 54.9297 46.9224 54.4512 47.1802 54.0059C47.4419 53.5605 47.7544 53.1562 48.1177 52.793C48.4849 52.4258 48.8911 52.1133 49.3364 51.8555C49.7817 51.5937 50.2583 51.3926 50.7661 51.252C51.2778 51.1074 51.811 51.0352 52.3657 51.0352ZM57.1059 54.7852C56.9575 54.4688 56.7778 54.1719 56.5669 53.8945C56.3559 53.6133 56.1216 53.3574 55.8638 53.127C55.6059 52.8965 55.3266 52.6914 55.0259 52.5117C54.7251 52.332 54.4106 52.1855 54.0825 52.0723C54.2231 52.2676 54.3501 52.4746 54.4634 52.6934C54.5766 52.9121 54.6763 53.1387 54.7622 53.373C54.852 53.6035 54.9282 53.8379 54.9907 54.0762C55.0532 54.3145 55.1079 54.5508 55.1548 54.7852H57.1059ZM57.6157 57.0352C57.6157 56.5156 57.5435 56.0156 57.3989 55.5352H55.272C55.3032 55.7852 55.3266 56.0351 55.3423 56.2852C55.3579 56.5312 55.3657 56.7812 55.3657 57.0352C55.3657 57.2891 55.3579 57.541 55.3423 57.791C55.3266 58.0371 55.3032 58.2851 55.272 58.5352H57.3989C57.5435 58.0547 57.6157 57.5547 57.6157 57.0352ZM52.3657 62.2852C52.5571 62.2852 52.7349 62.2324 52.8989 62.1269C53.0669 62.0215 53.2212 61.8828 53.3618 61.711C53.5024 61.5391 53.6274 61.3457 53.7368 61.1309C53.8501 60.9121 53.9497 60.6914 54.0356 60.4687C54.1216 60.2461 54.1938 60.0313 54.2524 59.8242C54.311 59.6172 54.356 59.4375 54.3872 59.2852H50.3442C50.3755 59.4375 50.4204 59.6172 50.479 59.8242C50.5376 60.0313 50.6099 60.2461 50.6958 60.4687C50.7817 60.6914 50.8794 60.9121 50.9888 61.1309C51.102 61.3457 51.229 61.5391 51.3696 61.711C51.5103 61.8828 51.6626 62.0215 51.8267 62.1269C51.9946 62.2324 52.1743 62.2852 52.3657 62.2852ZM54.5161 58.5352C54.5474 58.2851 54.5708 58.0371 54.5864 57.791C54.606 57.541 54.6157 57.2891 54.6157 57.0352C54.6157 56.7812 54.606 56.5312 54.5864 56.2852C54.5708 56.0351 54.5474 55.7852 54.5161 55.5352H50.2153C50.1841 55.7852 50.1587 56.0351 50.1392 56.2852C50.1235 56.5312 50.1157 56.7812 50.1157 57.0352C50.1157 57.2891 50.1235 57.541 50.1392 57.791C50.1587 58.0371 50.1841 58.2851 50.2153 58.5352H54.5161ZM47.1157 57.0352C47.1157 57.5547 47.188 58.0547 47.3325 58.5352H49.4595C49.4282 58.2851 49.4048 58.0371 49.3892 57.791C49.3735 57.541 49.3657 57.2891 49.3657 57.0352C49.3657 56.7812 49.3735 56.5312 49.3892 56.2852C49.4048 56.0351 49.4282 55.7852 49.4595 55.5352H47.3325C47.188 56.0156 47.1157 56.5156 47.1157 57.0352ZM52.3657 51.7852C52.1743 51.7852 51.9946 51.8379 51.8267 51.9434C51.6626 52.0488 51.5103 52.1875 51.3696 52.3594C51.229 52.5312 51.102 52.7266 50.9888 52.9453C50.8794 53.1602 50.7817 53.3789 50.6958 53.6016C50.6099 53.8242 50.5376 54.0391 50.479 54.2461C50.4204 54.4531 50.3755 54.6328 50.3442 54.7852H54.3872C54.356 54.6328 54.311 54.4531 54.2524 54.2461C54.1938 54.0391 54.1216 53.8242 54.0356 53.6016C53.9497 53.3789 53.8501 53.1602 53.7368 52.9453C53.6274 52.7266 53.5024 52.5312 53.3618 52.3594C53.2212 52.1875 53.0669 52.0488 52.8989 51.9434C52.7349 51.8379 52.5571 51.7852 52.3657 51.7852ZM50.6489 52.0723C50.3208 52.1855 50.0063 52.332 49.7056 52.5117C49.4048 52.6914 49.1255 52.8965 48.8677 53.127C48.6099 53.3574 48.3755 53.6133 48.1646 53.8945C47.9536 54.1719 47.7739 54.4688 47.6255 54.7852H49.5767C49.6235 54.5508 49.6782 54.3145 49.7407 54.0762C49.8032 53.8379 49.8774 53.6035 49.9634 53.373C50.0532 53.1387 50.1548 52.9121 50.268 52.6934C50.3813 52.4746 50.5083 52.2676 50.6489 52.0723ZM47.6255 59.2852C47.7739 59.6016 47.9536 59.9004 48.1646 60.1816C48.3755 60.459 48.6099 60.7129 48.8677 60.9434C49.1255 61.1738 49.4048 61.3789 49.7056 61.5586C50.0063 61.7383 50.3208 61.8848 50.6489 61.9981C50.5083 61.8027 50.3813 61.5957 50.268 61.3769C50.1548 61.1582 50.0532 60.9336 49.9634 60.7031C49.8774 60.4687 49.8032 60.2324 49.7407 59.9941C49.6782 59.7559 49.6235 59.5195 49.5767 59.2852H47.6255ZM54.0825 61.9981C54.4106 61.8848 54.7251 61.7383 55.0259 61.5586C55.3266 61.3789 55.6059 61.1738 55.8638 60.9434C56.1216 60.7129 56.3559 60.459 56.5669 60.1816C56.7778 59.9004 56.9575 59.6016 57.1059 59.2852H55.1548C55.1079 59.5195 55.0532 59.7559 54.9907 59.9941C54.9282 60.2324 54.852 60.4687 54.7622 60.7031C54.6763 60.9336 54.5766 61.1582 54.4634 61.3769C54.3501 61.5957 54.2231 61.8027 54.0825 61.9981Z" fill="#BE5DC9"/>
</g>
<rect x="64.3657" y="53.5352" width="42" height="7" rx="3.5" fill="var(--vscode-tab-unfocusedInactiveForeground)"/>
<path d="M40.4457 81.0352L36.0724 76.7152L36.7124 76.0752L41.3524 80.7685V81.3552L36.7124 86.0485L36.0724 85.4085L40.4457 81.0352Z" fill="var(--vscode-tab-unfocusedInactiveForeground)"/>
<g clip-path="url(#clip2_5875_443595)">
<path fill-rule="evenodd" clip-rule="evenodd" d="M68.3657 81.0352V85.4102H59.6157V83.6602H56.1157V80.1602H54.3657V75.7852H63.1157V80.1602H56.9907V82.7852H59.6157V81.0352H68.3657ZM55.2407 76.6602H62.2407V77.5352H55.2407V76.6602ZM67.4907 81.9102H60.4907V82.3477V82.7852V84.5352H67.4907V82.7852V82.3477V81.9102ZM55.2407 78.4102H62.2407V79.2852H55.2407V78.4102Z" fill="#B5A1FF"/>
</g>
<path d="M77.2666 86.1494C75.9336 86.1494 74.9624 85.3496 74.9624 84.0928C74.9624 82.855 75.8892 82.1377 77.5332 82.0361L79.4058 81.9219V81.3188C79.4058 80.5635 78.9233 80.1382 77.9902 80.1382C77.2285 80.1382 76.7017 80.4238 76.5493 80.9253H75.229C75.3687 79.7637 76.4858 79.0083 78.0537 79.0083C79.7866 79.0083 80.7642 79.8716 80.7642 81.3188V86.0352H79.4502V85.0576H79.3423C78.9297 85.7559 78.1743 86.1494 77.2666 86.1494ZM77.6157 85.0513C78.644 85.0513 79.4058 84.3784 79.4058 83.4897V82.8931L77.7173 83.0073C76.7651 83.0708 76.3335 83.4072 76.3335 84.0356C76.3335 84.6768 76.873 85.0513 77.6157 85.0513ZM85.2329 86.1494C83.4746 86.1494 82.3638 84.7656 82.3638 82.582C82.3638 80.4111 83.4873 79.021 85.2329 79.021C86.1787 79.021 86.9785 79.478 87.353 80.2334H87.4546V76.4375H88.8193V86.0352H87.5117V84.9434H87.4038C86.9912 85.6987 86.1851 86.1494 85.2329 86.1494ZM85.6201 80.189C84.4712 80.189 83.7729 81.0967 83.7729 82.5884C83.7729 84.0864 84.4648 84.9814 85.6201 84.9814C86.769 84.9814 87.48 84.0737 87.48 82.5884C87.48 81.1157 86.7627 80.189 85.6201 80.189ZM96.7222 79.1416L94.2339 86.0352H92.7676L90.2729 79.1416H91.7329L93.4531 84.6387H93.561L95.2749 79.1416H96.7222ZM99.7754 86.1494C98.4424 86.1494 97.4712 85.3496 97.4712 84.0928C97.4712 82.855 98.3979 82.1377 100.042 82.0361L101.915 81.9219V81.3188C101.915 80.5635 101.432 80.1382 100.499 80.1382C99.7373 80.1382 99.2104 80.4238 99.0581 80.9253H97.7378C97.8774 79.7637 98.9946 79.0083 100.562 79.0083C102.295 79.0083 103.273 79.8716 103.273 81.3188V86.0352H101.959V85.0576H101.851C101.438 85.7559 100.683 86.1494 99.7754 86.1494ZM100.125 85.0513C101.153 85.0513 101.915 84.3784 101.915 83.4897V82.8931L100.226 83.0073C99.2739 83.0708 98.8423 83.4072 98.8423 84.0356C98.8423 84.6768 99.3818 85.0513 100.125 85.0513ZM105.215 86.0352V79.1416H106.529V80.2334H106.631C106.967 79.4717 107.653 79.0083 108.694 79.0083C110.236 79.0083 111.087 79.9287 111.087 81.5728V86.0352H109.722V81.8965C109.722 80.7539 109.24 80.1953 108.23 80.1953C107.221 80.1953 106.58 80.8809 106.58 81.9917V86.0352H105.215ZM118.863 81.3569H117.536C117.377 80.6841 116.819 80.1699 115.905 80.1699C114.762 80.1699 114.064 81.0713 114.064 82.563C114.064 84.0864 114.769 85.0068 115.905 85.0068C116.768 85.0068 117.358 84.6006 117.536 83.8516H118.863C118.685 85.21 117.619 86.1685 115.911 86.1685C113.899 86.1685 112.667 84.7974 112.667 82.563C112.667 80.373 113.893 79.0083 115.905 79.0083C117.638 79.0083 118.685 80.0176 118.863 81.3569ZM124.957 84.188H126.271C125.972 85.4067 124.855 86.1685 123.274 86.1685C121.294 86.1685 120.082 84.8037 120.082 82.6011C120.082 80.4111 121.319 79.0083 123.268 79.0083C125.191 79.0083 126.353 80.3223 126.353 82.4805V82.9502H121.472V83.0137C121.516 84.2642 122.221 85.0513 123.312 85.0513C124.138 85.0513 124.703 84.7466 124.957 84.188ZM123.262 80.1191C122.252 80.1191 121.548 80.8555 121.472 81.9663H124.963C124.931 80.8491 124.271 80.1191 123.262 80.1191ZM130.517 86.1494C128.759 86.1494 127.648 84.7656 127.648 82.582C127.648 80.4111 128.771 79.021 130.517 79.021C131.463 79.021 132.263 79.478 132.637 80.2334H132.739V76.4375H134.104V86.0352H132.796V84.9434H132.688C132.275 85.6987 131.469 86.1494 130.517 86.1494ZM130.904 80.189C129.755 80.189 129.057 81.0967 129.057 82.5884C129.057 84.0864 129.749 84.9814 130.904 84.9814C132.053 84.9814 132.764 84.0737 132.764 82.5884C132.764 81.1157 132.047 80.189 130.904 80.189ZM140.343 82.9756H136.179V81.7124H140.343V82.9756ZM142.622 86.0352V80.2524H141.486V79.1606H142.622V78.418C142.622 77.0469 143.32 76.374 144.755 76.374C145.066 76.374 145.333 76.3994 145.567 76.4375V77.4658C145.44 77.4468 145.256 77.4341 145.041 77.4341C144.279 77.4341 143.968 77.7832 143.968 78.4814V79.1606H145.51V80.2524H143.987V86.0352H142.622ZM149.712 86.1685C147.688 86.1685 146.45 84.8164 146.45 82.5884C146.45 80.3667 147.694 79.0083 149.712 79.0083C151.725 79.0083 152.969 80.3604 152.969 82.5884C152.969 84.8164 151.731 86.1685 149.712 86.1685ZM149.712 85.0068C150.893 85.0068 151.566 84.1182 151.566 82.5884C151.566 81.0522 150.893 80.1636 149.712 80.1636C148.525 80.1636 147.859 81.0522 147.859 82.5884C147.859 84.1245 148.525 85.0068 149.712 85.0068ZM154.613 86.0352V79.1416H155.927V80.189H156.028C156.225 79.5098 156.993 79.021 157.895 79.021C158.098 79.021 158.358 79.04 158.504 79.0718V80.354C158.39 80.3223 157.983 80.2778 157.742 80.2778C156.708 80.2778 155.978 80.9443 155.978 81.9155V86.0352H154.613ZM159.919 86.0352V79.1416H161.233V80.2397H161.335C161.64 79.4653 162.338 79.0083 163.258 79.0083C164.204 79.0083 164.858 79.4971 165.163 80.2397H165.271C165.62 79.4971 166.413 79.0083 167.372 79.0083C168.768 79.0083 169.581 79.8462 169.581 81.2808V86.0352H168.216V81.6108C168.216 80.6587 167.771 80.1953 166.876 80.1953C165.994 80.1953 165.417 80.8428 165.417 81.6743V86.0352H164.077V81.4712C164.077 80.6841 163.557 80.1953 162.744 80.1953C161.913 80.1953 161.284 80.8999 161.284 81.8013V86.0352H159.919ZM171.339 81.0713C171.339 79.8716 172.462 79.0083 174.024 79.0083C175.579 79.0083 176.595 79.7319 176.728 80.9253H175.42C175.293 80.4111 174.798 80.0747 174.024 80.0747C173.262 80.0747 172.685 80.4492 172.685 81.0078C172.685 81.4331 173.034 81.6997 173.783 81.8774L174.932 82.144C176.246 82.4487 176.861 83.0137 176.861 84.0166C176.861 85.2988 175.649 86.1685 173.999 86.1685C172.354 86.1685 171.282 85.4258 171.161 84.2261H172.526C172.697 84.7656 173.205 85.1021 174.03 85.1021C174.881 85.1021 175.484 84.7085 175.484 84.1436C175.484 83.7119 175.16 83.4326 174.468 83.2676L173.262 82.9819C171.948 82.6772 171.339 82.0933 171.339 81.0713Z" fill="#A0A0A0"/>
<path d="M40.4457 105.035L36.0724 100.715L36.7124 100.075L41.3524 104.768V105.355L36.7124 110.048L36.0724 109.408L40.4457 105.035Z" fill="var(--vscode-tab-unfocusedInactiveForeground)"/>
<g clip-path="url(#clip3_5875_443595)">
<path d="M55.8605 111.035H59.5197L59.2554 112.035H54.8032V98.0352H67.4907V102.09C67.1218 102.142 66.7693 102.257 66.4334 102.434V99.0352H55.8605V111.035Z" fill="#00DBBC"/>
<path d="M66.9985 103.723C67.1899 103.723 67.3677 103.759 67.5318 103.831C67.7004 103.903 67.8462 104.004 67.9693 104.134C68.0923 104.264 68.188 104.415 68.2563 104.589C68.3293 104.762 68.3657 104.949 68.3657 105.151C68.3657 105.339 68.3316 105.522 68.2632 105.7C68.1948 105.878 68.0968 106.034 67.9693 106.169L63.0679 111.357L60.4907 112.035L61.1333 109.315L66.0347 104.134C66.1623 103.999 66.3104 103.898 66.479 103.831C66.6476 103.759 66.8208 103.723 66.9985 103.723ZM67.3472 105.519C67.4429 105.418 67.4907 105.296 67.4907 105.151C67.4907 105.002 67.4429 104.882 67.3472 104.791C67.256 104.694 67.1398 104.646 66.9985 104.646C66.9347 104.646 66.8732 104.658 66.814 104.682C66.7547 104.702 66.7023 104.735 66.6568 104.783L61.9262 109.791L61.6938 110.765L62.6167 110.52L67.3472 105.519Z" fill="#00DBBC"/>
<path fill-rule="evenodd" clip-rule="evenodd" d="M66.6157 98.9102H55.6782V111.16H59.462L60.0532 108.973L60.9036 108.098H56.5532V105.473H63.4549L66.0154 102.838C66.0154 102.838 66.3973 102.524 66.6157 102.405V98.9102ZM56.5532 100.223H65.7407V102.848H56.5532V100.223Z" fill="#00DBBC"/>
</g>
<path d="M79.0186 110.149C78.0537 110.149 77.2476 109.705 76.835 108.943H76.7334V110.035H75.4194V100.438H76.7842V104.233H76.8921C77.2603 103.484 78.0728 103.021 79.0186 103.021C80.7705 103.021 81.875 104.398 81.875 106.588C81.875 108.759 80.7642 110.149 79.0186 110.149ZM78.625 104.189C77.4824 104.189 76.7651 105.109 76.7588 106.588C76.7651 108.067 77.4761 108.981 78.625 108.981C79.7803 108.981 80.4722 108.08 80.4722 106.588C80.4722 105.097 79.7803 104.189 78.625 104.189ZM85.4297 110.149C84.0967 110.149 83.1255 109.35 83.1255 108.093C83.1255 106.855 84.0522 106.138 85.6963 106.036L87.5688 105.922V105.319C87.5688 104.563 87.0864 104.138 86.1533 104.138C85.3916 104.138 84.8647 104.424 84.7124 104.925H83.3921C83.5317 103.764 84.6489 103.008 86.2168 103.008C87.9497 103.008 88.9272 103.872 88.9272 105.319V110.035H87.6133V109.058H87.5054C87.0928 109.756 86.3374 110.149 85.4297 110.149ZM85.7788 109.051C86.8071 109.051 87.5688 108.378 87.5688 107.49V106.893L85.8804 107.007C84.9282 107.071 84.4966 107.407 84.4966 108.036C84.4966 108.677 85.0361 109.051 85.7788 109.051ZM90.7109 105.071C90.7109 103.872 91.8345 103.008 93.396 103.008C94.9512 103.008 95.9668 103.732 96.1001 104.925H94.7925C94.6655 104.411 94.1704 104.075 93.396 104.075C92.6343 104.075 92.0566 104.449 92.0566 105.008C92.0566 105.433 92.4058 105.7 93.1548 105.877L94.3037 106.144C95.6177 106.449 96.2334 107.014 96.2334 108.017C96.2334 109.299 95.021 110.168 93.3706 110.168C91.7266 110.168 90.6538 109.426 90.5332 108.226H91.8979C92.0693 108.766 92.5771 109.102 93.4023 109.102C94.2529 109.102 94.856 108.708 94.856 108.144C94.856 107.712 94.5322 107.433 93.8403 107.268L92.6343 106.982C91.3203 106.677 90.7109 106.093 90.7109 105.071ZM98.582 101.91C98.106 101.91 97.7188 101.523 97.7188 101.053C97.7188 100.577 98.106 100.19 98.582 100.19C99.0581 100.19 99.4453 100.577 99.4453 101.053C99.4453 101.523 99.0581 101.91 98.582 101.91ZM97.9028 110.035V103.142H99.2612V110.035H97.9028ZM107.12 105.357H105.793C105.634 104.684 105.076 104.17 104.162 104.17C103.019 104.17 102.321 105.071 102.321 106.563C102.321 108.086 103.025 109.007 104.162 109.007C105.025 109.007 105.615 108.601 105.793 107.852H107.12C106.942 109.21 105.875 110.168 104.168 110.168C102.156 110.168 100.924 108.797 100.924 106.563C100.924 104.373 102.149 103.008 104.162 103.008C105.895 103.008 106.942 104.018 107.12 105.357ZM112.871 106.976H108.707V105.712H112.871V106.976ZM115.149 110.035V104.252H114.013V103.161H115.149V102.418C115.149 101.047 115.848 100.374 117.282 100.374C117.593 100.374 117.86 100.399 118.095 100.438V101.466C117.968 101.447 117.784 101.434 117.568 101.434C116.806 101.434 116.495 101.783 116.495 102.481V103.161H118.038V104.252H116.514V110.035H115.149ZM122.24 110.168C120.215 110.168 118.977 108.816 118.977 106.588C118.977 104.367 120.221 103.008 122.24 103.008C124.252 103.008 125.496 104.36 125.496 106.588C125.496 108.816 124.258 110.168 122.24 110.168ZM122.24 109.007C123.42 109.007 124.093 108.118 124.093 106.588C124.093 105.052 123.42 104.164 122.24 104.164C121.053 104.164 120.386 105.052 120.386 106.588C120.386 108.125 121.053 109.007 122.24 109.007ZM127.14 110.035V103.142H128.454V104.189H128.556C128.752 103.51 129.521 103.021 130.422 103.021C130.625 103.021 130.885 103.04 131.031 103.072V104.354C130.917 104.322 130.511 104.278 130.27 104.278C129.235 104.278 128.505 104.944 128.505 105.916V110.035H127.14ZM132.447 110.035V103.142H133.761V104.24H133.862C134.167 103.465 134.865 103.008 135.786 103.008C136.731 103.008 137.385 103.497 137.69 104.24H137.798C138.147 103.497 138.94 103.008 139.899 103.008C141.295 103.008 142.108 103.846 142.108 105.281V110.035H140.743V105.611C140.743 104.659 140.299 104.195 139.404 104.195C138.521 104.195 137.944 104.843 137.944 105.674V110.035H136.604V105.471C136.604 104.684 136.084 104.195 135.271 104.195C134.44 104.195 133.812 104.9 133.812 105.801V110.035H132.447ZM143.866 105.071C143.866 103.872 144.99 103.008 146.551 103.008C148.106 103.008 149.122 103.732 149.255 104.925H147.948C147.821 104.411 147.326 104.075 146.551 104.075C145.79 104.075 145.212 104.449 145.212 105.008C145.212 105.433 145.561 105.7 146.31 105.877L147.459 106.144C148.773 106.449 149.389 107.014 149.389 108.017C149.389 109.299 148.176 110.168 146.526 110.168C144.882 110.168 143.809 109.426 143.688 108.226H145.053C145.225 108.766 145.732 109.102 146.558 109.102C147.408 109.102 148.011 108.708 148.011 108.144C148.011 107.712 147.688 107.433 146.996 107.268L145.79 106.982C144.476 106.677 143.866 106.093 143.866 105.071Z" fill="#A0A0A0"/>
<path d="M40.4457 129.035L36.0724 124.715L36.7124 124.075L41.3524 128.768V129.355L36.7124 134.048L36.0724 133.408L40.4457 129.035Z" fill="var(--vscode-tab-unfocusedInactiveForeground)"/>
<g clip-path="url(#clip4_5875_443595)">
<path fill-rule="evenodd" clip-rule="evenodd" d="M63.7511 125.018V122.763L66.0218 125.018H63.7511ZM55.6782 136.035H66.7551V126.035H62.7272V122.035H55.6782V136.035ZM59.9801 128.293L58.3327 129.94L59.9801 131.588L59.2774 132.29L56.9273 129.94L59.2774 127.59L59.9801 128.293ZM63.1231 127.59L65.4732 129.94L63.1231 132.29L62.4204 131.588L64.0679 129.94L62.4204 128.293L63.1231 127.59Z" fill="#15C6F4"/>
</g>
<path d="M81.2085 129.357H79.8818C79.7231 128.684 79.1646 128.17 78.2505 128.17C77.1079 128.17 76.4097 129.071 76.4097 130.563C76.4097 132.086 77.1143 133.007 78.2505 133.007C79.1138 133.007 79.7041 132.601 79.8818 131.852H81.2085C81.0308 133.21 79.9644 134.168 78.2568 134.168C76.2446 134.168 75.0132 132.797 75.0132 130.563C75.0132 128.373 76.2383 127.008 78.2505 127.008C79.9834 127.008 81.0308 128.018 81.2085 129.357ZM85.6899 134.168C83.665 134.168 82.4272 132.816 82.4272 130.588C82.4272 128.367 83.6714 127.008 85.6899 127.008C87.7021 127.008 88.9463 128.36 88.9463 130.588C88.9463 132.816 87.7085 134.168 85.6899 134.168ZM85.6899 133.007C86.8706 133.007 87.5435 132.118 87.5435 130.588C87.5435 129.052 86.8706 128.164 85.6899 128.164C84.5029 128.164 83.8364 129.052 83.8364 130.588C83.8364 132.125 84.5029 133.007 85.6899 133.007ZM90.5903 134.035V127.142H91.9043V128.233H92.0059C92.3423 127.472 93.0278 127.008 94.0688 127.008C95.6113 127.008 96.4619 127.929 96.4619 129.573V134.035H95.0972V129.896C95.0972 128.754 94.6147 128.195 93.6055 128.195C92.5962 128.195 91.9551 128.881 91.9551 129.992V134.035H90.5903ZM98.8677 125.402H100.232V127.161H101.73V128.252H100.232V131.89C100.232 132.632 100.531 132.956 101.21 132.956C101.419 132.956 101.54 132.943 101.73 132.924V134.01C101.508 134.048 101.254 134.08 100.988 134.08C99.4707 134.08 98.8677 133.546 98.8677 132.22V128.252H97.7695V127.161H98.8677V125.402ZM107.792 132.188H109.106C108.808 133.407 107.691 134.168 106.11 134.168C104.13 134.168 102.917 132.804 102.917 130.601C102.917 128.411 104.155 127.008 106.104 127.008C108.027 127.008 109.189 128.322 109.189 130.48V130.95H104.308V131.014C104.352 132.264 105.057 133.051 106.148 133.051C106.974 133.051 107.539 132.747 107.792 132.188ZM106.098 128.119C105.088 128.119 104.384 128.855 104.308 129.966H107.799C107.767 128.849 107.107 128.119 106.098 128.119ZM110.827 134.035V127.142H112.141V128.233H112.242C112.579 127.472 113.264 127.008 114.305 127.008C115.848 127.008 116.698 127.929 116.698 129.573V134.035H115.333V129.896C115.333 128.754 114.851 128.195 113.842 128.195C112.833 128.195 112.191 128.881 112.191 129.992V134.035H110.827ZM119.104 125.402H120.469V127.161H121.967V128.252H120.469V131.89C120.469 132.632 120.767 132.956 121.446 132.956C121.656 132.956 121.776 132.943 121.967 132.924V134.01C121.745 134.048 121.491 134.08 121.224 134.08C119.707 134.08 119.104 133.546 119.104 132.22V128.252H118.006V127.161H119.104V125.402ZM127.546 130.976H123.382V129.712H127.546V130.976ZM129.394 129.071C129.394 127.872 130.517 127.008 132.079 127.008C133.634 127.008 134.649 127.732 134.783 128.925H133.475C133.348 128.411 132.853 128.075 132.079 128.075C131.317 128.075 130.739 128.449 130.739 129.008C130.739 129.433 131.088 129.7 131.837 129.877L132.986 130.144C134.3 130.449 134.916 131.014 134.916 132.017C134.916 133.299 133.704 134.168 132.053 134.168C130.409 134.168 129.336 133.426 129.216 132.226H130.581C130.752 132.766 131.26 133.102 132.085 133.102C132.936 133.102 133.539 132.708 133.539 132.144C133.539 131.712 133.215 131.433 132.523 131.268L131.317 130.982C130.003 130.677 129.394 130.093 129.394 129.071ZM136.56 134.035V127.142H137.874V128.233H137.976C138.312 127.472 138.998 127.008 140.039 127.008C141.581 127.008 142.432 127.929 142.432 129.573V134.035H141.067V129.896C141.067 128.754 140.584 128.195 139.575 128.195C138.566 128.195 137.925 128.881 137.925 129.992V134.035H136.56ZM145.06 125.91C144.583 125.91 144.196 125.523 144.196 125.053C144.196 124.577 144.583 124.19 145.06 124.19C145.536 124.19 145.923 124.577 145.923 125.053C145.923 125.523 145.536 125.91 145.06 125.91ZM144.38 134.035V127.142H145.739V134.035H144.38ZM151.331 127.021C153.089 127.021 154.2 128.398 154.2 130.588C154.2 132.766 153.089 134.149 151.344 134.149C150.36 134.149 149.579 133.724 149.217 132.994H149.109V136.333H147.745V127.142H149.059V128.284H149.16C149.579 127.497 150.392 127.021 151.331 127.021ZM150.944 132.981C152.105 132.981 152.797 132.086 152.797 130.588C152.797 129.09 152.105 128.189 150.95 128.189C149.801 128.189 149.084 129.109 149.084 130.588C149.084 132.061 149.801 132.981 150.944 132.981ZM159.431 127.021C161.189 127.021 162.3 128.398 162.3 130.588C162.3 132.766 161.189 134.149 159.443 134.149C158.459 134.149 157.679 133.724 157.317 132.994H157.209V136.333H155.844V127.142H157.158V128.284H157.26C157.679 127.497 158.491 127.021 159.431 127.021ZM159.043 132.981C160.205 132.981 160.897 132.086 160.897 130.588C160.897 129.09 160.205 128.189 159.05 128.189C157.901 128.189 157.184 129.109 157.184 130.588C157.184 132.061 157.901 132.981 159.043 132.981ZM168.476 132.188H169.79C169.492 133.407 168.375 134.168 166.794 134.168C164.813 134.168 163.601 132.804 163.601 130.601C163.601 128.411 164.839 127.008 166.788 127.008C168.711 127.008 169.873 128.322 169.873 130.48V130.95H164.991V131.014C165.036 132.264 165.74 133.051 166.832 133.051C167.657 133.051 168.222 132.747 168.476 132.188ZM166.781 128.119C165.772 128.119 165.067 128.855 164.991 129.966H168.482C168.451 128.849 167.791 128.119 166.781 128.119ZM171.993 125.402H173.357V127.161H174.855V128.252H173.357V131.89C173.357 132.632 173.656 132.956 174.335 132.956C174.544 132.956 174.665 132.943 174.855 132.924V134.01C174.633 134.048 174.379 134.08 174.113 134.08C172.596 134.08 171.993 133.546 171.993 132.22V128.252H170.895V127.161H171.993V125.402ZM176.201 129.071C176.201 127.872 177.325 127.008 178.886 127.008C180.441 127.008 181.457 127.732 181.59 128.925H180.283C180.156 128.411 179.661 128.075 178.886 128.075C178.125 128.075 177.547 128.449 177.547 129.008C177.547 129.433 177.896 129.7 178.645 129.877L179.794 130.144C181.108 130.449 181.724 131.014 181.724 132.017C181.724 133.299 180.511 134.168 178.861 134.168C177.217 134.168 176.144 133.426 176.023 132.226H177.388C177.56 132.766 178.067 133.102 178.893 133.102C179.743 133.102 180.346 132.708 180.346 132.144C180.346 131.712 180.022 131.433 179.331 131.268L178.125 130.982C176.811 130.677 176.201 130.093 176.201 129.071Z" fill="#A0A0A0"/>
<path d="M40.4457 153.035L36.0724 148.715L36.7124 148.075L41.3524 152.768V153.355L36.7124 158.048L36.0724 157.408L40.4457 153.035Z" fill="var(--vscode-tab-unfocusedInactiveForeground)"/>
<g clip-path="url(#clip5_5875_443595)">
<path fill-rule="evenodd" clip-rule="evenodd" d="M67.0532 146.035H55.2407V159.816H67.0532V146.035ZM57.2095 149.973H58.1938V148.988H57.2095V149.973ZM58.1938 152.926H57.2095V151.941H58.1938V152.926ZM65.0845 152.926H59.1782V151.941H65.0845V152.926ZM57.2095 155.879H58.1938V154.895H57.2095V155.879ZM65.0845 155.879H59.1782V154.895H65.0845V155.879ZM65.0845 149.973H59.1782V148.988H65.0845V149.973Z" fill="#5BD667"/>
</g>
<path d="M75.4194 158.035V148.438H76.7842V158.035H75.4194ZM79.5391 149.91C79.063 149.91 78.6758 149.523 78.6758 149.053C78.6758 148.577 79.063 148.19 79.5391 148.19C80.0151 148.19 80.4023 148.577 80.4023 149.053C80.4023 149.523 80.0151 149.91 79.5391 149.91ZM78.8599 158.035V151.142H80.2183V158.035H78.8599ZM82.0654 153.071C82.0654 151.872 83.189 151.008 84.7505 151.008C86.3057 151.008 87.3213 151.732 87.4546 152.925H86.147C86.02 152.411 85.5249 152.075 84.7505 152.075C83.9888 152.075 83.4111 152.449 83.4111 153.008C83.4111 153.433 83.7603 153.7 84.5093 153.877L85.6582 154.144C86.9722 154.449 87.5879 155.014 87.5879 156.017C87.5879 157.299 86.3755 158.168 84.7251 158.168C83.0811 158.168 82.0083 157.426 81.8877 156.226H83.2524C83.4238 156.766 83.9316 157.102 84.7568 157.102C85.6074 157.102 86.2104 156.708 86.2104 156.144C86.2104 155.712 85.8867 155.433 85.1948 155.268L83.9888 154.982C82.6748 154.677 82.0654 154.093 82.0654 153.071ZM89.6636 149.402H91.0283V151.161H92.5264V152.252H91.0283V155.89C91.0283 156.632 91.3267 156.956 92.0059 156.956C92.2153 156.956 92.3359 156.943 92.5264 156.924V158.01C92.3042 158.048 92.0503 158.08 91.7837 158.08C90.2666 158.08 89.6636 157.546 89.6636 156.22V152.252H88.5654V151.161H89.6636V149.402ZM93.8721 153.071C93.8721 151.872 94.9956 151.008 96.5571 151.008C98.1123 151.008 99.1279 151.732 99.2612 152.925H97.9536C97.8267 152.411 97.3315 152.075 96.5571 152.075C95.7954 152.075 95.2178 152.449 95.2178 153.008C95.2178 153.433 95.5669 153.7 96.3159 153.877L97.4648 154.144C98.7788 154.449 99.3945 155.014 99.3945 156.017C99.3945 157.299 98.1821 158.168 96.5317 158.168C94.8877 158.168 93.8149 157.426 93.6943 156.226H95.0591C95.2305 156.766 95.7383 157.102 96.5635 157.102C97.4141 157.102 98.0171 156.708 98.0171 156.144C98.0171 155.712 97.6934 155.433 97.0015 155.268L95.7954 154.982C94.4814 154.677 93.8721 154.093 93.8721 153.071Z" fill="#A0A0A0"/>
<path d="M40.4457 177.035L36.0724 172.715L36.7124 172.075L41.3524 176.768V177.355L36.7124 182.048L36.0724 181.408L40.4457 177.035Z" fill="var(--vscode-tab-unfocusedInactiveForeground)"/>
<g clip-path="url(#clip6_5875_443595)">
<path d="M63.9907 175.285C64.3923 175.285 64.7797 175.338 65.1528 175.443C65.526 175.546 65.8749 175.692 66.1996 175.883C66.5243 176.071 66.8191 176.299 67.084 176.567C67.3517 176.832 67.5796 177.127 67.7676 177.451C67.9584 177.776 68.1051 178.125 68.2077 178.498C68.313 178.871 68.3657 179.259 68.3657 179.66C68.3657 180.062 68.313 180.449 68.2077 180.822C68.1051 181.195 67.9584 181.544 67.7676 181.869C67.5796 182.194 67.3517 182.49 67.084 182.758C66.8191 183.023 66.5243 183.25 66.1996 183.441C65.8749 183.629 65.526 183.776 65.1528 183.881C64.7797 183.984 64.3923 184.035 63.9907 184.035C63.5891 184.035 63.2017 183.984 62.8286 183.881C62.4555 183.776 62.1066 183.629 61.7819 183.441C61.4572 183.25 61.1609 183.023 60.8932 182.758C60.6283 182.49 60.4004 182.194 60.2096 181.869C60.0216 181.544 59.8749 181.197 59.7695 180.827C59.667 180.453 59.6157 180.065 59.6157 179.66C59.6157 179.259 59.667 178.871 59.7695 178.498C59.8749 178.125 60.0216 177.776 60.2096 177.451C60.4004 177.127 60.6283 176.832 60.8932 176.567C61.1609 176.299 61.4572 176.071 61.7819 175.883C62.1066 175.692 62.454 175.546 62.8243 175.443C63.1974 175.338 63.5863 175.285 63.9907 175.285ZM67.4471 178.02C67.3389 177.789 67.2079 177.572 67.0541 177.37C66.9003 177.165 66.7294 176.978 66.5414 176.81C66.3534 176.642 66.1497 176.493 65.9304 176.362C65.7111 176.231 65.4818 176.124 65.2425 176.041C65.3451 176.184 65.4377 176.335 65.5203 176.494C65.6029 176.654 65.6755 176.819 65.7381 176.99C65.8037 177.158 65.8592 177.329 65.9048 177.503C65.9504 177.676 65.9902 177.849 66.0244 178.02H67.4471ZM67.8188 179.66C67.8188 179.281 67.7662 178.917 67.6608 178.566H66.1099C66.1326 178.749 66.1497 178.931 66.1611 179.113C66.1725 179.293 66.1782 179.475 66.1782 179.66C66.1782 179.845 66.1725 180.029 66.1611 180.211C66.1497 180.391 66.1326 180.572 66.1099 180.754H67.6608C67.7662 180.404 67.8188 180.039 67.8188 179.66ZM63.9907 183.488C64.1303 183.488 64.2599 183.45 64.3795 183.373C64.502 183.296 64.6145 183.195 64.7171 183.07C64.8196 182.944 64.9107 182.803 64.9905 182.647C65.0731 182.487 65.1457 182.326 65.2084 182.164C65.271 182.001 65.3237 181.845 65.3664 181.694C65.4092 181.543 65.442 181.412 65.4647 181.301H62.5167C62.5395 181.412 62.5723 181.543 62.615 181.694C62.6577 181.845 62.7104 182.001 62.7731 182.164C62.8357 182.326 62.9069 182.487 62.9867 182.647C63.0693 182.803 63.1619 182.944 63.2644 183.07C63.3669 183.195 63.478 183.296 63.5977 183.373C63.7201 183.45 63.8512 183.488 63.9907 183.488ZM65.5587 180.754C65.5815 180.572 65.5986 180.391 65.61 180.211C65.6242 180.029 65.6313 179.845 65.6313 179.66C65.6313 179.475 65.6242 179.293 65.61 179.113C65.5986 178.931 65.5815 178.749 65.5587 178.566H62.4227C62.3999 178.749 62.3814 178.931 62.3672 179.113C62.3558 179.293 62.3501 179.475 62.3501 179.66C62.3501 179.845 62.3558 180.029 62.3672 180.211C62.3814 180.391 62.3999 180.572 62.4227 180.754H65.5587ZM60.1626 179.66C60.1626 180.039 60.2153 180.404 60.3207 180.754H61.8716C61.8488 180.572 61.8317 180.391 61.8203 180.211C61.8089 180.029 61.8032 179.845 61.8032 179.66C61.8032 179.475 61.8089 179.293 61.8203 179.113C61.8317 178.931 61.8488 178.749 61.8716 178.566H60.3207C60.2153 178.917 60.1626 179.281 60.1626 179.66ZM63.9907 175.832C63.8512 175.832 63.7201 175.87 63.5977 175.947C63.478 176.024 63.3669 176.125 63.2644 176.251C63.1619 176.376 63.0693 176.518 62.9867 176.678C62.9069 176.835 62.8357 176.994 62.7731 177.156C62.7104 177.319 62.6577 177.476 62.615 177.626C62.5723 177.777 62.5395 177.908 62.5167 178.02H65.4647C65.442 177.908 65.4092 177.777 65.3664 177.626C65.3237 177.476 65.271 177.319 65.2084 177.156C65.1457 176.994 65.0731 176.835 64.9905 176.678C64.9107 176.518 64.8196 176.376 64.7171 176.251C64.6145 176.125 64.502 176.024 64.3795 175.947C64.2599 175.87 64.1303 175.832 63.9907 175.832ZM62.7389 176.041C62.4996 176.124 62.2703 176.231 62.051 176.362C61.8317 176.493 61.628 176.642 61.4401 176.81C61.2521 176.978 61.0812 177.165 60.9273 177.37C60.7736 177.572 60.6425 177.789 60.5343 178.02H61.957C61.9912 177.849 62.0311 177.676 62.0767 177.503C62.1222 177.329 62.1764 177.158 62.239 176.99C62.3045 176.819 62.3786 176.654 62.4612 176.494C62.5438 176.335 62.6364 176.184 62.7389 176.041ZM60.5343 181.301C60.6425 181.531 60.7736 181.749 60.9273 181.954C61.0812 182.157 61.2521 182.342 61.4401 182.51C61.628 182.678 61.8317 182.827 62.051 182.959C62.2703 183.09 62.4996 183.196 62.7389 183.279C62.6364 183.137 62.5438 182.986 62.4612 182.826C62.3786 182.667 62.3045 182.503 62.239 182.335C62.1764 182.164 62.1222 181.992 62.0767 181.818C62.0311 181.644 61.9912 181.472 61.957 181.301H60.5343ZM65.2425 183.279C65.4818 183.196 65.7111 183.09 65.9304 182.959C66.1497 182.827 66.3534 182.678 66.5414 182.51C66.7294 182.342 66.9003 182.157 67.0541 181.954C67.2079 181.749 67.3389 181.531 67.4471 181.301H66.0244C65.9902 181.472 65.9504 181.644 65.9048 181.818C65.8592 181.992 65.8037 182.164 65.7381 182.335C65.6755 182.503 65.6029 182.667 65.5203 182.826C65.4377 182.986 65.3451 183.137 65.2425 183.279Z" fill="#FF823B"/>
<path fill-rule="evenodd" clip-rule="evenodd" d="M63.7511 173.018V170.763L66.0218 173.018H63.7511ZM66.7551 175.196C65.9523 174.698 65.0051 174.41 63.9907 174.41C61.0912 174.41 58.7407 176.761 58.7407 179.66C58.7407 181.486 59.673 183.095 61.0876 184.035H55.6782V170.035H62.7272V174.035H66.7551V175.196Z" fill="#FFA058"/>
</g>
<path d="M84.3569 175.142L82.459 182.035H81.0435L79.6152 176.894H79.5073L78.0854 182.035H76.6826L74.7783 175.142H76.1621L77.3999 180.461H77.5015L78.9233 175.142H80.231L81.6528 180.461H81.7607L82.9922 175.142H84.3569ZM90.0317 180.188H91.3457C91.0474 181.407 89.9302 182.168 88.3496 182.168C86.3691 182.168 85.1567 180.804 85.1567 178.601C85.1567 176.411 86.3945 175.008 88.3433 175.008C90.2666 175.008 91.4282 176.322 91.4282 178.48V178.95H86.5469V179.014C86.5913 180.264 87.2959 181.051 88.3877 181.051C89.2129 181.051 89.7778 180.747 90.0317 180.188ZM88.3369 176.119C87.3276 176.119 86.623 176.855 86.5469 177.966H90.0381C90.0063 176.849 89.3462 176.119 88.3369 176.119ZM96.7285 182.149C95.7637 182.149 94.9575 181.705 94.5449 180.943H94.4434V182.035H93.1294V172.438H94.4941V176.233H94.6021C94.9702 175.484 95.7827 175.021 96.7285 175.021C98.4805 175.021 99.585 176.398 99.585 178.588C99.585 180.759 98.4741 182.149 96.7285 182.149ZM96.335 176.189C95.1924 176.189 94.4751 177.109 94.4688 178.588C94.4751 180.067 95.186 180.981 96.335 180.981C97.4902 180.981 98.1821 180.08 98.1821 178.588C98.1821 177.097 97.4902 176.189 96.335 176.189ZM105.418 178.976H101.254V177.712H105.418V178.976ZM107.697 182.035V176.252H106.561V175.161H107.697V174.418C107.697 173.047 108.396 172.374 109.83 172.374C110.141 172.374 110.408 172.399 110.643 172.438V173.466C110.516 173.447 110.332 173.434 110.116 173.434C109.354 173.434 109.043 173.783 109.043 174.481V175.161H110.585V176.252H109.062V182.035H107.697ZM112.839 173.91C112.363 173.91 111.976 173.523 111.976 173.053C111.976 172.577 112.363 172.19 112.839 172.19C113.315 172.19 113.702 172.577 113.702 173.053C113.702 173.523 113.315 173.91 112.839 173.91ZM112.16 182.035V175.142H113.518V182.035H112.16ZM115.587 182.035V172.438H116.952V182.035H115.587ZM123.535 180.188H124.849C124.55 181.407 123.433 182.168 121.853 182.168C119.872 182.168 118.66 180.804 118.66 178.601C118.66 176.411 119.897 175.008 121.846 175.008C123.77 175.008 124.931 176.322 124.931 178.48V178.95H120.05V179.014C120.094 180.264 120.799 181.051 121.891 181.051C122.716 181.051 123.281 180.747 123.535 180.188ZM121.84 176.119C120.831 176.119 120.126 176.855 120.05 177.966H123.541C123.509 176.849 122.849 176.119 121.84 176.119ZM126.41 177.071C126.41 175.872 127.534 175.008 129.095 175.008C130.65 175.008 131.666 175.732 131.799 176.925H130.492C130.365 176.411 129.87 176.075 129.095 176.075C128.333 176.075 127.756 176.449 127.756 177.008C127.756 177.433 128.105 177.7 128.854 177.877L130.003 178.144C131.317 178.449 131.933 179.014 131.933 180.017C131.933 181.299 130.72 182.168 129.07 182.168C127.426 182.168 126.353 181.426 126.232 180.226H127.597C127.769 180.766 128.276 181.102 129.102 181.102C129.952 181.102 130.555 180.708 130.555 180.144C130.555 179.712 130.231 179.433 129.54 179.268L128.333 178.982C127.02 178.677 126.41 178.093 126.41 177.071Z" fill="#A0A0A0"/>
<path d="M38.3657 203.115L42.6857 198.742L43.3257 199.382L38.6324 204.022H38.0457L33.3524 199.382L33.9924 198.742L38.3657 203.115Z" fill="var(--vscode-tab-unfocusedInactiveForeground)"/>
<g clip-path="url(#clip7_5875_443595)">
<path fill-rule="evenodd" clip-rule="evenodd" d="M57.8657 200.797V199.285H68.3657V200.797H57.8657ZM68.3657 201.552V207.598H57.8657V201.552H68.3657Z" fill="#54ADFF"/>
<path fill-rule="evenodd" clip-rule="evenodd" d="M54.3657 194.91V196.501H65.3033V194.91H54.3657ZM65.3033 203.66V197.297H54.3657V203.66H56.9907V198.41H65.3032L65.3033 203.66Z" fill="#4092FF"/>
</g>
<path d="M84.3569 199.142L82.459 206.035H81.0435L79.6152 200.894H79.5073L78.0854 206.035H76.6826L74.7783 199.142H76.1621L77.3999 204.461H77.5015L78.9233 199.142H80.231L81.6528 204.461H81.7607L82.9922 199.142H84.3569ZM90.0317 204.188H91.3457C91.0474 205.407 89.9302 206.168 88.3496 206.168C86.3691 206.168 85.1567 204.804 85.1567 202.601C85.1567 200.411 86.3945 199.008 88.3433 199.008C90.2666 199.008 91.4282 200.322 91.4282 202.48V202.95H86.5469V203.014C86.5913 204.264 87.2959 205.051 88.3877 205.051C89.2129 205.051 89.7778 204.747 90.0317 204.188ZM88.3369 200.119C87.3276 200.119 86.623 200.855 86.5469 201.966H90.0381C90.0063 200.849 89.3462 200.119 88.3369 200.119ZM96.7285 206.149C95.7637 206.149 94.9575 205.705 94.5449 204.943H94.4434V206.035H93.1294V196.438H94.4941V200.233H94.6021C94.9702 199.484 95.7827 199.021 96.7285 199.021C98.4805 199.021 99.585 200.398 99.585 202.588C99.585 204.759 98.4741 206.149 96.7285 206.149ZM96.335 200.189C95.1924 200.189 94.4751 201.109 94.4688 202.588C94.4751 204.067 95.186 204.981 96.335 204.981C97.4902 204.981 98.1821 204.08 98.1821 202.588C98.1821 201.097 97.4902 200.189 96.335 200.189ZM105.418 202.976H101.254V201.712H105.418V202.976ZM111.011 199.021C112.769 199.021 113.88 200.398 113.88 202.588C113.88 204.766 112.769 206.149 111.023 206.149C110.04 206.149 109.259 205.724 108.897 204.994H108.789V208.333H107.424V199.142H108.738V200.284H108.84C109.259 199.497 110.071 199.021 111.011 199.021ZM110.624 204.981C111.785 204.981 112.477 204.086 112.477 202.588C112.477 201.09 111.785 200.189 110.63 200.189C109.481 200.189 108.764 201.109 108.764 202.588C108.764 204.061 109.481 204.981 110.624 204.981ZM117.435 206.149C116.102 206.149 115.13 205.35 115.13 204.093C115.13 202.855 116.057 202.138 117.701 202.036L119.574 201.922V201.319C119.574 200.563 119.091 200.138 118.158 200.138C117.396 200.138 116.87 200.424 116.717 200.925H115.397C115.537 199.764 116.654 199.008 118.222 199.008C119.955 199.008 120.932 199.872 120.932 201.319V206.035H119.618V205.058H119.51C119.098 205.756 118.342 206.149 117.435 206.149ZM117.784 205.051C118.812 205.051 119.574 204.378 119.574 203.49V202.893L117.885 203.007C116.933 203.071 116.501 203.407 116.501 204.036C116.501 204.677 117.041 205.051 117.784 205.051ZM125.788 208.669C124.062 208.669 122.944 207.901 122.798 206.74H124.195C124.309 207.26 124.887 207.59 125.807 207.59C126.943 207.59 127.616 207.032 127.616 206.099V204.772H127.515C127.096 205.521 126.334 205.934 125.382 205.934C123.617 205.934 122.525 204.569 122.525 202.5C122.525 200.411 123.63 199.021 125.395 199.021C126.347 199.021 127.178 199.491 127.565 200.24H127.673V199.142H128.981V206.105C128.981 207.673 127.743 208.669 125.788 208.669ZM125.769 204.804C126.937 204.804 127.642 203.909 127.642 202.5C127.642 201.09 126.931 200.189 125.769 200.189C124.595 200.189 123.935 201.09 123.935 202.5C123.935 203.909 124.595 204.804 125.769 204.804ZM135.494 204.188H136.808C136.509 205.407 135.392 206.168 133.812 206.168C131.831 206.168 130.619 204.804 130.619 202.601C130.619 200.411 131.856 199.008 133.805 199.008C135.729 199.008 136.89 200.322 136.89 202.48V202.95H132.009V203.014C132.053 204.264 132.758 205.051 133.85 205.051C134.675 205.051 135.24 204.747 135.494 204.188ZM133.799 200.119C132.79 200.119 132.085 200.855 132.009 201.966H135.5C135.468 200.849 134.808 200.119 133.799 200.119ZM138.369 201.071C138.369 199.872 139.493 199.008 141.054 199.008C142.609 199.008 143.625 199.732 143.758 200.925H142.451C142.324 200.411 141.829 200.075 141.054 200.075C140.292 200.075 139.715 200.449 139.715 201.008C139.715 201.433 140.064 201.7 140.813 201.877L141.962 202.144C143.276 202.449 143.892 203.014 143.892 204.017C143.892 205.299 142.679 206.168 141.029 206.168C139.385 206.168 138.312 205.426 138.191 204.226H139.556C139.728 204.766 140.235 205.102 141.061 205.102C141.911 205.102 142.514 204.708 142.514 204.144C142.514 203.712 142.19 203.433 141.499 203.268L140.292 202.982C138.979 202.677 138.369 202.093 138.369 201.071Z" fill="#A0A0A0"/>
<rect width="210.268" height="24" transform="translate(8.36572 213.035)" fill="var(--vscode-list-inactiveSelectionBackground)"/>
<path d="M53.3657 224.415L57.1257 220.915V222.535L54.3057 225.035L57.1257 227.535V229.155L53.3657 225.655V224.415ZM63.3657 225.715L59.6257 229.215V227.535L62.4857 225.035L59.6257 222.535V220.855L63.3657 224.355V225.715Z" fill="#E37933"/>
<rect x="74.3657" y="221.535" width="70" height="7" rx="3.5" fill="var(--vscode-tab-unfocusedInactiveForeground)"/>
<path d="M54.8057 253.595L55.3057 251.095H53.7457V249.775H55.6257L55.9257 248.215H54.3057V246.915H56.2457L56.7457 244.475H58.4857L57.9857 246.915H59.7457L60.2457 244.475H61.9857L61.4857 246.915H63.0457V248.215H61.2457L60.8657 249.775H62.4857V251.095H60.6257L60.1257 253.595H58.3657L58.8657 251.095H57.1257L56.6257 253.595H54.8057ZM59.1257 249.795L59.4257 248.215H57.6857L57.3657 249.795H59.1257Z" fill="#519ABA"/>
<rect x="74.3657" y="245.535" width="70" height="7" rx="3.5" fill="var(--vscode-tab-unfocusedInactiveForeground)"/>
<path d="M55.4857 269.275H57.1857V274.035C57.1857 275.062 56.9457 275.808 56.4657 276.275C56.0257 276.702 55.3657 276.915 54.4857 276.915C54.2857 276.915 54.0657 276.902 53.8257 276.875C53.5857 276.835 53.3924 276.782 53.2457 276.715L53.4257 275.355C53.6791 275.475 53.9724 275.535 54.3057 275.535C54.6791 275.535 54.9591 275.435 55.1457 275.235C55.3724 274.995 55.4857 274.595 55.4857 274.035V269.275ZM58.6857 275.035C58.9257 275.168 59.2057 275.282 59.5257 275.375C59.8857 275.482 60.2257 275.535 60.5457 275.535C60.9457 275.535 61.2457 275.468 61.4457 275.335C61.6457 275.188 61.7457 274.988 61.7457 274.735C61.7457 274.482 61.6524 274.282 61.4657 274.135C61.2791 273.975 60.9524 273.815 60.4857 273.655C59.1124 273.175 58.4257 272.428 58.4257 271.415C58.4257 270.748 58.6791 270.208 59.1857 269.795C59.7057 269.368 60.4124 269.155 61.3057 269.155C62.0124 269.155 62.6591 269.282 63.2457 269.535L62.8657 270.915L62.7457 270.855C62.5057 270.762 62.3124 270.695 62.1657 270.655C61.8857 270.575 61.5991 270.535 61.3057 270.535C60.9457 270.535 60.6657 270.608 60.4657 270.755C60.2791 270.888 60.1857 271.068 60.1857 271.295C60.1857 271.522 60.2924 271.708 60.5057 271.855C60.6657 271.975 61.0124 272.142 61.5457 272.355C62.2124 272.608 62.6991 272.915 63.0057 273.275C63.3257 273.635 63.4857 274.075 63.4857 274.595C63.4857 275.262 63.2324 275.802 62.7257 276.215C62.1791 276.682 61.4124 276.915 60.4257 276.915C60.0391 276.915 59.6324 276.862 59.2057 276.755C58.8724 276.688 58.5724 276.595 58.3057 276.475L58.6857 275.035Z" fill="#F55385"/>
<rect x="74.3657" y="269.535" width="70" height="7" rx="3.5" fill="var(--vscode-tab-unfocusedInactiveForeground)"/>
<path d="M40.4457 297.035L36.0724 292.715L36.7124 292.075L41.3524 296.768V297.355L36.7124 302.048L36.0724 301.408L40.4457 297.035Z" fill="var(--vscode-tab-unfocusedInactiveForeground)"/>
<g clip-path="url(#clip8_5875_443595)">
<path d="M55.2407 290.035V290.91H54.3657V290.035H55.2407ZM55.2407 291.785V292.66H54.3657V291.785H55.2407ZM55.2407 293.535V294.41H54.3657V293.535H55.2407ZM55.2407 295.285V296.16H54.3657V295.285H55.2407ZM55.2407 297.035V297.91H54.3657V297.035H55.2407ZM55.2407 298.785V299.66H54.3657V298.785H55.2407ZM55.2407 300.535V301.41H54.3657V300.535H55.2407ZM54.3657 302.285H55.2407V303.16H54.3657V302.285ZM55.2407 304.035V303.16H56.1157V304.035H55.2407ZM56.9907 290.035V290.91H56.1157V290.035H56.9907ZM56.9907 304.035V303.16H57.8657V304.035H56.9907ZM57.8657 290.91V290.035H58.7407V290.91H57.8657ZM60.4907 290.035V290.91H59.6157V290.035H60.4907ZM62.2407 290.035V290.91H61.3657V290.035H62.2407ZM63.9907 290.035V290.91H63.1157V290.035H63.9907ZM64.8657 291.785H63.9907V290.91H64.8657V291.785ZM64.8657 292.66V293.535H63.9907V292.66H64.8657ZM63.9907 295.285V294.41H64.8657V295.285H63.9907Z" fill="#B5A1FF"/>
<path fill-rule="evenodd" clip-rule="evenodd" d="M58.7407 297.234V295.723H68.1354V297.234H58.7407ZM68.1354 297.99V304.035H58.7407V297.99H68.1354Z" fill="#B5A1FF"/>
</g>
<path d="M84.3569 295.142L82.459 302.035H81.0435L79.6152 296.894H79.5073L78.0854 302.035H76.6826L74.7783 295.142H76.1621L77.3999 300.461H77.5015L78.9233 295.142H80.231L81.6528 300.461H81.7607L82.9922 295.142H84.3569ZM90.0317 300.188H91.3457C91.0474 301.407 89.9302 302.168 88.3496 302.168C86.3691 302.168 85.1567 300.804 85.1567 298.601C85.1567 296.411 86.3945 295.008 88.3433 295.008C90.2666 295.008 91.4282 296.322 91.4282 298.48V298.95H86.5469V299.014C86.5913 300.264 87.2959 301.051 88.3877 301.051C89.2129 301.051 89.7778 300.747 90.0317 300.188ZM88.3369 296.119C87.3276 296.119 86.623 296.855 86.5469 297.966H90.0381C90.0063 296.849 89.3462 296.119 88.3369 296.119ZM96.7285 302.149C95.7637 302.149 94.9575 301.705 94.5449 300.943H94.4434V302.035H93.1294V292.438H94.4941V296.233H94.6021C94.9702 295.484 95.7827 295.021 96.7285 295.021C98.4805 295.021 99.585 296.398 99.585 298.588C99.585 300.759 98.4741 302.149 96.7285 302.149ZM96.335 296.189C95.1924 296.189 94.4751 297.109 94.4688 298.588C94.4751 300.067 95.186 300.981 96.335 300.981C97.4902 300.981 98.1821 300.08 98.1821 298.588C98.1821 297.097 97.4902 296.189 96.335 296.189ZM105.418 298.976H101.254V297.712H105.418V298.976ZM107.691 293.402H109.056V295.161H110.554V296.252H109.056V299.89C109.056 300.632 109.354 300.956 110.033 300.956C110.243 300.956 110.363 300.943 110.554 300.924V302.01C110.332 302.048 110.078 302.08 109.811 302.08C108.294 302.08 107.691 301.546 107.691 300.22V296.252H106.593V295.161H107.691V293.402ZM116.616 300.188H117.93C117.631 301.407 116.514 302.168 114.934 302.168C112.953 302.168 111.741 300.804 111.741 298.601C111.741 296.411 112.979 295.008 114.927 295.008C116.851 295.008 118.012 296.322 118.012 298.48V298.95H113.131V299.014C113.175 300.264 113.88 301.051 114.972 301.051C115.797 301.051 116.362 300.747 116.616 300.188ZM114.921 296.119C113.912 296.119 113.207 296.855 113.131 297.966H116.622C116.59 296.849 115.93 296.119 114.921 296.119ZM119.65 302.035V295.142H120.964V296.24H121.065C121.37 295.465 122.068 295.008 122.989 295.008C123.935 295.008 124.588 295.497 124.893 296.24H125.001C125.35 295.497 126.144 295.008 127.102 295.008C128.499 295.008 129.311 295.846 129.311 297.281V302.035H127.946V297.611C127.946 296.659 127.502 296.195 126.607 296.195C125.725 296.195 125.147 296.843 125.147 297.674V302.035H123.808V297.471C123.808 296.684 123.287 296.195 122.475 296.195C121.643 296.195 121.015 296.9 121.015 297.801V302.035H119.65ZM134.814 295.021C136.573 295.021 137.684 296.398 137.684 298.588C137.684 300.766 136.573 302.149 134.827 302.149C133.843 302.149 133.062 301.724 132.701 300.994H132.593V304.333H131.228V295.142H132.542V296.284H132.644C133.062 295.497 133.875 295.021 134.814 295.021ZM134.427 300.981C135.589 300.981 136.281 300.086 136.281 298.588C136.281 297.09 135.589 296.189 134.434 296.189C133.285 296.189 132.567 297.109 132.567 298.588C132.567 300.061 133.285 300.981 134.427 300.981ZM139.391 302.035V292.438H140.756V302.035H139.391ZM144.717 302.149C143.384 302.149 142.413 301.35 142.413 300.093C142.413 298.855 143.339 298.138 144.983 298.036L146.856 297.922V297.319C146.856 296.563 146.374 296.138 145.44 296.138C144.679 296.138 144.152 296.424 144 296.925H142.679C142.819 295.764 143.936 295.008 145.504 295.008C147.237 295.008 148.214 295.872 148.214 297.319V302.035H146.9V301.058H146.792C146.38 301.756 145.625 302.149 144.717 302.149ZM145.066 301.051C146.094 301.051 146.856 300.378 146.856 299.49V298.893L145.167 299.007C144.215 299.071 143.784 299.407 143.784 300.036C143.784 300.677 144.323 301.051 145.066 301.051ZM150.639 293.402H152.004V295.161H153.502V296.252H152.004V299.89C152.004 300.632 152.302 300.956 152.981 300.956C153.191 300.956 153.312 300.943 153.502 300.924V302.01C153.28 302.048 153.026 302.08 152.759 302.08C151.242 302.08 150.639 301.546 150.639 300.22V296.252H149.541V295.161H150.639V293.402ZM159.564 300.188H160.878C160.58 301.407 159.462 302.168 157.882 302.168C155.901 302.168 154.689 300.804 154.689 298.601C154.689 296.411 155.927 295.008 157.875 295.008C159.799 295.008 160.96 296.322 160.96 298.48V298.95H156.079V299.014C156.124 300.264 156.828 301.051 157.92 301.051C158.745 301.051 159.31 300.747 159.564 300.188ZM157.869 296.119C156.86 296.119 156.155 296.855 156.079 297.966H159.57C159.539 296.849 158.878 296.119 157.869 296.119ZM162.439 297.071C162.439 295.872 163.563 295.008 165.125 295.008C166.68 295.008 167.695 295.732 167.829 296.925H166.521C166.394 296.411 165.899 296.075 165.125 296.075C164.363 296.075 163.785 296.449 163.785 297.008C163.785 297.433 164.134 297.7 164.883 297.877L166.032 298.144C167.346 298.449 167.962 299.014 167.962 300.017C167.962 301.299 166.75 302.168 165.099 302.168C163.455 302.168 162.382 301.426 162.262 300.226H163.626C163.798 300.766 164.306 301.102 165.131 301.102C165.981 301.102 166.584 300.708 166.584 300.144C166.584 299.712 166.261 299.433 165.569 299.268L164.363 298.982C163.049 298.677 162.439 298.093 162.439 297.071Z" fill="#A0A0A0"/>
</g>
<defs>
<filter id="filter0_d_5875_443595" x="0.365723" y="0" width="226.268" height="358" filterUnits="userSpaceOnUse" color-interpolation-filters="sRGB">
<feFlood flood-opacity="0" result="BackgroundImageFix"/>
<feColorMatrix in="SourceAlpha" type="matrix" values="0 0 0 0 0 0 0 0 0 0 0 0 0 0 0 0 0 0 127 0" result="hardAlpha"/>
<feOffset dy="2"/>
<feGaussianBlur stdDeviation="4"/>
<feColorMatrix type="matrix" values="0 0 0 0 0 0 0 0 0 0 0 0 0 0 0 0 0 0 0.4 0"/>
<feBlend mode="normal" in2="BackgroundImageFix" result="effect1_dropShadow_5875_443595"/>
<feBlend mode="normal" in="SourceGraphic" in2="effect1_dropShadow_5875_443595" result="shape"/>
</filter>
<clipPath id="clip0_5875_443595">
<rect width="103" height="35" fill="white" transform="translate(205 18)"/>
</clipPath>
<clipPath id="clip1_5875_443595">
<rect width="12" height="12" fill="white" transform="translate(46.3657 51.0352)"/>
</clipPath>
<clipPath id="clip2_5875_443595">
<rect width="14" height="14" fill="white" transform="translate(54.3657 74.0352)"/>
</clipPath>
<clipPath id="clip3_5875_443595">
<rect width="14" height="14" fill="white" transform="translate(54.3657 98.0352)"/>
</clipPath>
<clipPath id="clip4_5875_443595">
<rect width="14" height="14" fill="white" transform="translate(54.3657 122.035)"/>
</clipPath>
<clipPath id="clip5_5875_443595">
<rect width="14" height="14" fill="white" transform="translate(54.3657 146.035)"/>
</clipPath>
<clipPath id="clip6_5875_443595">
<rect width="14" height="14" fill="white" transform="translate(54.3657 170.035)"/>
</clipPath>
<clipPath id="clip7_5875_443595">
<rect width="14" height="14" fill="white" transform="translate(54.3657 194.035)"/>
</clipPath>
<clipPath id="clip8_5875_443595">
<rect width="14" height="14" fill="white" transform="translate(54.3657 290.035)"/>
</clipPath>
</defs>
</svg>
