<svg width="408" height="359" viewBox="0 0 408 359" fill="none" xmlns="http://www.w3.org/2000/svg">
<g clip-path="url(#clip0_4051_440777)">
<rect width="198" height="318" transform="translate(209.5 18.5)" fill="var(--vscode-editor-background, #1e1e1e)"/>
<rect width="336" height="35" transform="translate(209.5 18.5)" fill="var(--vscode-editorGroupHeader-tabsBackground, #252526)"/>
<g clip-path="url(#clip1_4051_440777)">
<rect width="103" height="35" transform="translate(209.5 18.5)" fill="var(--vscode-tab-activeBackground, #1e1e1e)"/>
<rect x="221.5" y="32.5" width="79" height="7" rx="3.5" fill="var(--vscode-foreground)" fill-opacity="0.25"/>
</g>
<rect x="252.5" y="71.5" width="55" height="7" rx="3.5" fill="var(--vscode-foreground)" fill-opacity="0.25"/>
<rect x="252.5" y="90.5" width="55" height="7" rx="3.5" fill="var(--vscode-foreground)" fill-opacity="0.25"/>
<rect x="252.5" y="147.5" width="72" height="7" rx="3.5" fill="var(--vscode-foreground)" fill-opacity="0.25"/>
<rect x="330.5" y="147.5" width="26" height="7" rx="3.5" fill="var(--vscode-foreground)" fill-opacity="0.25"/>
<rect x="252.5" y="267.5" width="72" height="7" rx="3.5" fill="var(--vscode-foreground)" fill-opacity="0.25"/>
<rect x="330.5" y="267.5" width="26" height="7" rx="3.5" fill="var(--vscode-foreground)" fill-opacity="0.25"/>
<rect x="269.5" y="166.5" width="30" height="7" rx="3.5" fill="var(--vscode-foreground)" fill-opacity="0.25"/>
<rect x="279.5" y="185.5" width="30" height="7" rx="3.5" fill="var(--vscode-foreground)" fill-opacity="0.25"/>
<rect x="315.5" y="185.5" width="41" height="7" rx="3.5" fill="var(--vscode-foreground)" fill-opacity="0.25"/>
<rect x="269.5" y="204.5" width="30" height="7" rx="3.5" fill="var(--vscode-foreground)" fill-opacity="0.25"/>
<rect x="260.5" y="223.5" width="31" height="7" rx="3.5" fill="var(--vscode-foreground)" fill-opacity="0.25"/>
<rect x="313.5" y="71.5" width="52" height="7" rx="3.5" fill="var(--vscode-foreground)" fill-opacity="0.25"/>
<rect x="313.5" y="90.5" width="74" height="7" rx="3.5" fill="var(--vscode-foreground)" fill-opacity="0.25"/>
<rect x="306.5" y="166.5" width="59" height="7" rx="3.5" fill="var(--vscode-foreground)" fill-opacity="0.25"/>
</g>
<g filter="url(#filter0_d_4051_440777)">
<rect width="210.268" height="342" transform="translate(11.866 6.5)" fill="var(--vscode-editorGroupHeader-tabsBackground, #252526)"/>
<path d="M28.6712 28.6875V35.1074H29.6678V32.914H31.1538C32.4129 32.914 33.3027 32.0509 33.3027 30.8141C33.3027 29.5506 32.4396 28.6875 31.1849 28.6875H28.6712ZM29.6678 29.5283H30.9225C31.7989 29.5283 32.2839 29.9821 32.2839 30.8141C32.2839 31.6194 31.7811 32.0776 30.9225 32.0776H29.6678V29.5283ZM37.3246 28.5317C35.4827 28.5317 34.326 29.8264 34.326 31.8952C34.326 33.9596 35.456 35.2631 37.3246 35.2631C39.1799 35.2631 40.3188 33.9551 40.3188 31.8952C40.3188 29.8309 39.171 28.5317 37.3246 28.5317ZM37.3246 29.4127C38.5392 29.4127 39.3 30.3736 39.3 31.8952C39.3 33.4034 38.5437 34.3822 37.3246 34.3822C36.0878 34.3822 35.3448 33.4034 35.3448 31.8952C35.3448 30.3736 36.11 29.4127 37.3246 29.4127ZM45.0615 30.3069H45.1238L46.503 35.1074H47.4417L49.1768 28.6875H48.1402L46.9657 33.6793H46.9034L45.5553 28.6875H44.6299L43.2908 33.6793H43.2285L42.0495 28.6875H41.0129L42.7435 35.1074H43.6867L45.0615 30.3069ZM54.4579 34.2488H51.3791V32.2511H54.2932V31.4236H51.3791V29.5461H54.4579V28.6875H50.3825V35.1074H54.4579V34.2488ZM56.8959 32.6382H58.3018L59.6098 35.1074H60.7621L59.3207 32.4825C60.1037 32.22 60.5664 31.517 60.5664 30.6495C60.5664 29.4527 59.7344 28.6875 58.4397 28.6875H55.8993V35.1074H56.8959V32.6382ZM56.8959 29.5239H58.3018C59.0715 29.5239 59.5431 29.9554 59.5431 30.6717C59.5431 31.4058 59.0982 31.8196 58.3285 31.8196H56.8959V29.5239ZM61.9856 28.6875V35.1074H62.9822V32.914H64.4682C65.7273 32.914 66.6171 32.0509 66.6171 30.8141C66.6171 29.5506 65.754 28.6875 64.4993 28.6875H61.9856ZM62.9822 29.5283H64.2368C65.1133 29.5283 65.5982 29.9821 65.5982 30.8141C65.5982 31.6194 65.0955 32.0776 64.2368 32.0776H62.9822V29.5283ZM71.64 35.1074H72.6989L70.381 28.6875H69.3087L66.9908 35.1074H68.0141L68.6058 33.3723H71.0528L71.64 35.1074ZM69.7937 29.822H69.8693L70.7992 32.5715H68.8594L69.7937 29.822ZM78.9943 32.5804V31.784H76.3605V32.5893H78.0155V32.7316C78.0066 33.7149 77.2859 34.3778 76.2359 34.3778C75.0302 34.3778 74.2739 33.4301 74.2739 31.8908C74.2739 30.3736 75.0257 29.4171 76.2136 29.4171C77.0901 29.4171 77.6996 29.8487 77.9488 30.645H78.9498C78.7318 29.3504 77.6729 28.5317 76.2136 28.5317C74.4162 28.5317 73.255 29.8531 73.255 31.8952C73.255 33.964 74.4029 35.2631 76.2225 35.2631C77.9043 35.2631 78.9943 34.2087 78.9943 32.5804ZM84.4444 34.2488H81.3656V32.2511H84.2797V31.4236H81.3656V29.5461H84.4444V28.6875H80.369V35.1074H84.4444V34.2488ZM85.5833 33.3945C85.6545 34.5335 86.611 35.2631 88.0347 35.2631C89.5563 35.2631 90.5084 34.4979 90.5084 33.2833C90.5084 32.3223 89.9656 31.7929 88.6487 31.477L87.9413 31.3035C87.1049 31.0988 86.7668 30.8319 86.7668 30.3647C86.7668 29.7641 87.2917 29.3771 88.0792 29.3771C88.8267 29.3771 89.3427 29.7508 89.4362 30.3603H90.4061C90.3482 29.2881 89.3961 28.5317 88.0926 28.5317C86.6911 28.5317 85.7568 29.2881 85.7568 30.4181C85.7568 31.3524 86.2863 31.9041 87.4475 32.1844L88.275 32.3846C89.1247 32.5893 89.4985 32.9007 89.4985 33.4034C89.4985 33.9907 88.9112 34.4134 88.1104 34.4134C87.2517 34.4134 86.6555 34.0174 86.571 33.3945H85.5833ZM94.5526 32.4291C94.5526 34.0441 94.9708 35.3655 95.8383 36.4777H96.6837C96.0385 35.6591 95.5403 33.9507 95.5403 32.4247C95.5403 30.9075 96.043 29.1947 96.6837 28.3805H95.8383C94.9708 29.4883 94.5526 30.8141 94.5526 32.4291ZM101.591 30.3069H101.653L103.032 35.1074H103.971L105.706 28.6875H104.67L103.495 33.6793H103.433L102.085 28.6875H101.159L99.8202 33.6793H99.7579L98.5789 28.6875H97.5423L99.273 35.1074H100.216L101.591 30.3069ZM109.399 28.5317C107.557 28.5317 106.4 29.8264 106.4 31.8952C106.4 33.9596 107.53 35.2631 109.399 35.2631C111.254 35.2631 112.393 33.9551 112.393 31.8952C112.393 29.8309 111.245 28.5317 109.399 28.5317ZM109.399 29.4127C110.614 29.4127 111.374 30.3736 111.374 31.8952C111.374 33.4034 110.618 34.3822 109.399 34.3822C108.162 34.3822 107.419 33.4034 107.419 31.8952C107.419 30.3736 108.184 29.4127 109.399 29.4127ZM114.742 32.6382H116.148L117.456 35.1074H118.609L117.167 32.4825C117.95 32.22 118.413 31.517 118.413 30.6495C118.413 29.4527 117.581 28.6875 116.286 28.6875H113.746V35.1074H114.742V32.6382ZM114.742 29.5239H116.148C116.918 29.5239 117.389 29.9554 117.389 30.6717C117.389 31.4058 116.945 31.8196 116.175 31.8196H114.742V29.5239ZM120.829 35.1074V32.9674L121.549 32.1488L123.703 35.1074H124.948L122.252 31.4726L124.735 28.6875H123.556L120.9 31.7217H120.829V28.6875H119.832V35.1074H120.829ZM125.473 33.3945C125.545 34.5335 126.501 35.2631 127.925 35.2631C129.446 35.2631 130.398 34.4979 130.398 33.2833C130.398 32.3223 129.856 31.7929 128.539 31.477L127.831 31.3035C126.995 31.0988 126.657 30.8319 126.657 30.3647C126.657 29.7641 127.182 29.3771 127.969 29.3771C128.717 29.3771 129.233 29.7508 129.326 30.3603H130.296C130.238 29.2881 129.286 28.5317 127.983 28.5317C126.581 28.5317 125.647 29.2881 125.647 30.4181C125.647 31.3524 126.176 31.9041 127.338 32.1844L128.165 32.3846C129.015 32.5893 129.389 32.9007 129.389 33.4034C129.389 33.9907 128.801 34.4134 128 34.4134C127.142 34.4134 126.546 34.0174 126.461 33.3945H125.473ZM131.711 28.6875V35.1074H132.707V32.914H134.193C135.453 32.914 136.342 32.0509 136.342 30.8141C136.342 29.5506 135.479 28.6875 134.225 28.6875H131.711ZM132.707 29.5283H133.962C134.839 29.5283 135.324 29.9821 135.324 30.8141C135.324 31.6194 134.821 32.0776 133.962 32.0776H132.707V29.5283ZM141.365 35.1074H142.424L140.106 28.6875H139.034L136.716 35.1074H137.739L138.331 33.3723H140.778L141.365 35.1074ZM139.519 29.822H139.595L140.524 32.5715H138.585L139.519 29.822ZM145.877 35.2631C147.309 35.2631 148.364 34.4401 148.542 33.1899H147.549C147.372 33.9195 146.726 34.3778 145.877 34.3778C144.72 34.3778 143.999 33.4257 143.999 31.8997C143.999 30.3736 144.72 29.4171 145.872 29.4171C146.718 29.4171 147.363 29.9243 147.549 30.7207H148.542C148.381 29.4349 147.287 28.5317 145.872 28.5317C144.088 28.5317 142.98 29.822 142.98 31.8997C142.98 33.9729 144.093 35.2631 145.877 35.2631ZM153.929 34.2488H150.851V32.2511H153.765V31.4236H150.851V29.5461H153.929V28.6875H149.854V35.1074H153.929V34.2488ZM157.151 32.4291C157.151 30.8186 156.732 29.4927 155.869 28.3805H155.024C155.665 29.1991 156.167 30.9075 156.167 32.4336C156.167 33.9551 155.665 35.6636 155.024 36.4777H155.869C156.732 35.3699 157.151 34.0486 157.151 32.4291Z" fill="var(--vscode-foreground)"/>
<path d="M33.866 59.6161L38.186 55.2428L38.826 55.8828L34.1326 60.5228H33.546L28.8526 55.8828L29.4926 55.2428L33.866 59.6161Z" fill="var(--vscode-foreground)"/>
<rect x="49.866" y="54.0361" width="42" height="7" rx="3.5" fill="var(--vscode-foreground)" fill-opacity="0.25"/>
<path d="M45.866 83.6161L50.186 79.2428L50.826 79.8828L46.1326 84.5228H45.546L40.8526 79.8828L41.4926 79.2428L45.866 83.6161Z" fill="var(--vscode-foreground)"/>
<path d="M71.8572 79.6426H70.4924L69.261 84.9619H69.1531L67.7312 79.6426H66.4236L65.0017 84.9619H64.9001L63.6624 79.6426H62.2786L64.1829 86.5361H65.5857L67.0076 81.3945H67.1155L68.5437 86.5361H69.9592L71.8572 79.6426ZM77.532 84.689C77.2781 85.2476 76.7131 85.5522 75.8879 85.5522C74.7961 85.5522 74.0916 84.7651 74.0471 83.5146V83.4512H78.9285V82.9814C78.9285 80.8232 77.7668 79.5093 75.8435 79.5093C73.8948 79.5093 72.657 80.9121 72.657 83.1021C72.657 85.3047 73.8694 86.6694 75.8499 86.6694C77.4304 86.6694 78.5476 85.9077 78.8459 84.689H77.532ZM75.8372 80.6201C76.8464 80.6201 77.5066 81.3501 77.5383 82.4673H74.0471C74.1233 81.3564 74.8279 80.6201 75.8372 80.6201ZM84.2288 86.6504C85.9744 86.6504 87.0852 85.2603 87.0852 83.0894C87.0852 80.8994 85.9807 79.522 84.2288 79.522C83.283 79.522 82.4705 79.9854 82.1023 80.7344H81.9944V76.9385H80.6296V86.5361H81.9436V85.4443H82.0452C82.4578 86.2061 83.2639 86.6504 84.2288 86.6504ZM83.8352 80.6899C84.9905 80.6899 85.6824 81.5977 85.6824 83.0894C85.6824 84.5811 84.9905 85.4824 83.8352 85.4824C82.6863 85.4824 81.9753 84.5684 81.969 83.0894C81.9753 81.6104 82.6926 80.6899 83.8352 80.6899ZM92.9187 83.4766V82.2134H88.7546V83.4766H92.9187ZM98.511 79.522C97.5715 79.522 96.759 79.998 96.3401 80.7852H96.2385V79.6426H94.9246V88.834H96.2893V85.4951H96.3972C96.759 86.2251 97.5398 86.6504 98.5237 86.6504C100.269 86.6504 101.38 85.2666 101.38 83.0894C101.38 80.8994 100.269 79.522 98.511 79.522ZM98.1238 85.4824C96.9812 85.4824 96.2639 84.562 96.2639 83.0894C96.2639 81.6104 96.9812 80.6899 98.1301 80.6899C99.2854 80.6899 99.9773 81.5913 99.9773 83.0894C99.9773 84.5874 99.2854 85.4824 98.1238 85.4824ZM104.935 86.6504C105.843 86.6504 106.598 86.2568 107.01 85.5586H107.118V86.5361H108.432V81.8198C108.432 80.3726 107.455 79.5093 105.722 79.5093C104.154 79.5093 103.037 80.2646 102.897 81.4263H104.218C104.37 80.9248 104.897 80.6392 105.658 80.6392C106.592 80.6392 107.074 81.0645 107.074 81.8198V82.4229L105.201 82.5371C103.557 82.6387 102.631 83.356 102.631 84.5938C102.631 85.8506 103.602 86.6504 104.935 86.6504ZM105.284 85.5522C104.541 85.5522 104.002 85.1777 104.002 84.5366C104.002 83.9082 104.433 83.5718 105.385 83.5083L107.074 83.394V83.9907C107.074 84.8794 106.312 85.5522 105.284 85.5522ZM113.288 89.1704C115.243 89.1704 116.481 88.1738 116.481 86.606V79.6426H115.174V80.7407H115.066C114.678 79.9917 113.847 79.522 112.895 79.522C111.13 79.522 110.026 80.9121 110.026 83.0005C110.026 85.0698 111.117 86.4346 112.882 86.4346C113.834 86.4346 114.596 86.022 115.015 85.2729H115.116V86.5996C115.116 87.5327 114.444 88.0913 113.307 88.0913C112.387 88.0913 111.809 87.7612 111.695 87.2407H110.299C110.445 88.4023 111.562 89.1704 113.288 89.1704ZM113.269 85.3047C112.095 85.3047 111.435 84.4097 111.435 83.0005C111.435 81.5913 112.095 80.6899 113.269 80.6899C114.431 80.6899 115.142 81.5913 115.142 83.0005C115.142 84.4097 114.437 85.3047 113.269 85.3047ZM122.994 84.689C122.74 85.2476 122.175 85.5522 121.35 85.5522C120.258 85.5522 119.553 84.7651 119.509 83.5146V83.4512H124.39V82.9814C124.39 80.8232 123.229 79.5093 121.305 79.5093C119.357 79.5093 118.119 80.9121 118.119 83.1021C118.119 85.3047 119.331 86.6694 121.312 86.6694C122.892 86.6694 124.01 85.9077 124.308 84.689H122.994ZM121.299 80.6201C122.308 80.6201 122.969 81.3501 123 82.4673H119.509C119.585 81.3564 120.29 80.6201 121.299 80.6201ZM125.869 81.5723C125.869 82.5942 126.479 83.1782 127.793 83.4829L128.999 83.7686C129.691 83.9336 130.014 84.2129 130.014 84.6445C130.014 85.2095 129.411 85.603 128.561 85.603C127.736 85.603 127.228 85.2666 127.056 84.7271H125.692C125.812 85.9268 126.885 86.6694 128.529 86.6694C130.179 86.6694 131.392 85.7998 131.392 84.5176C131.392 83.5146 130.776 82.9497 129.462 82.645L128.313 82.3784C127.564 82.2007 127.215 81.9341 127.215 81.5088C127.215 80.9502 127.793 80.5757 128.554 80.5757C129.329 80.5757 129.824 80.9121 129.951 81.4263H131.259C131.125 80.2329 130.11 79.5093 128.554 79.5093C126.993 79.5093 125.869 80.3726 125.869 81.5723Z" fill="var(--vscode-foreground)"/>
<rect x="138.866" y="78.0361" width="42" height="7" rx="3.5" fill="var(--vscode-foreground)" fill-opacity="0.25"/>
<rect width="210.268" height="24" transform="translate(11.866 93.5361)" fill="var(--vscode-list-activeSelectionBackground)"/>
<path d="M52.866 104.916L56.626 101.416V103.036L53.806 105.536L56.626 108.036V109.656L52.866 106.156V104.916ZM62.866 106.216L59.126 109.716V108.036L61.986 105.536L59.126 103.036V101.356L62.866 104.856V106.216Z" fill="#E37933"/>
<rect x="73.866" y="102.036" width="70" height="7" rx="3.5" fill="var(--vscode-list-activeSelectionForeground)"/>
<path d="M54.306 134.096L54.806 131.596H53.246V130.276H55.126L55.426 128.716H53.806V127.416H55.746L56.246 124.976H57.986L57.486 127.416H59.246L59.746 124.976H61.486L60.986 127.416H62.546V128.716H60.746L60.366 130.276H61.986V131.596H60.126L59.626 134.096H57.866L58.366 131.596H56.626L56.126 134.096H54.306ZM58.626 130.296L58.926 128.716H57.186L56.866 130.296H58.626Z" fill="#519ABA"/>
<rect x="73.866" y="126.036" width="70" height="7" rx="3.5" fill="var(--vscode-foreground)" fill-opacity="0.25"/>
<path d="M54.986 149.776H56.686V154.536C56.686 155.563 56.446 156.309 55.966 156.776C55.526 157.203 54.866 157.416 53.986 157.416C53.786 157.416 53.566 157.403 53.326 157.376C53.086 157.336 52.8926 157.283 52.746 157.216L52.926 155.856C53.1793 155.976 53.4726 156.036 53.806 156.036C54.1793 156.036 54.4593 155.936 54.646 155.736C54.8726 155.496 54.986 155.096 54.986 154.536V149.776ZM58.186 155.536C58.426 155.669 58.706 155.783 59.026 155.876C59.386 155.983 59.726 156.036 60.046 156.036C60.446 156.036 60.746 155.969 60.946 155.836C61.146 155.689 61.246 155.489 61.246 155.236C61.246 154.983 61.1526 154.783 60.966 154.636C60.7793 154.476 60.4526 154.316 59.986 154.156C58.6126 153.676 57.926 152.929 57.926 151.916C57.926 151.249 58.1793 150.709 58.686 150.296C59.206 149.869 59.9126 149.656 60.806 149.656C61.5126 149.656 62.1593 149.783 62.746 150.036L62.366 151.416L62.246 151.356C62.006 151.263 61.8126 151.196 61.666 151.156C61.386 151.076 61.0993 151.036 60.806 151.036C60.446 151.036 60.166 151.109 59.966 151.256C59.7793 151.389 59.686 151.569 59.686 151.796C59.686 152.023 59.7926 152.209 60.006 152.356C60.166 152.476 60.5126 152.643 61.046 152.856C61.7126 153.109 62.1993 153.416 62.506 153.776C62.826 154.136 62.986 154.576 62.986 155.096C62.986 155.763 62.7326 156.303 62.226 156.716C61.6793 157.183 60.9126 157.416 59.926 157.416C59.5393 157.416 59.1326 157.363 58.706 157.256C58.3726 157.189 58.0726 157.096 57.806 156.976L58.186 155.536Z" fill="#F55385"/>
<rect x="73.866" y="150.036" width="70" height="7" rx="3.5" fill="var(--vscode-foreground)" fill-opacity="0.25"/>
</g>
<defs>
<filter id="filter0_d_4051_440777" x="3.86597" y="0.5" width="226.268" height="358" filterUnits="userSpaceOnUse" color-interpolation-filters="sRGB">
<feFlood flood-opacity="0" result="BackgroundImageFix"/>
<feColorMatrix in="SourceAlpha" type="matrix" values="0 0 0 0 0 0 0 0 0 0 0 0 0 0 0 0 0 0 127 0" result="hardAlpha"/>
<feOffset dy="2"/>
<feGaussianBlur stdDeviation="4"/>
<feColorMatrix type="matrix" values="0 0 0 0 0 0 0 0 0 0 0 0 0 0 0 0 0 0 0.4 0"/>
<feBlend mode="normal" in2="BackgroundImageFix" result="effect1_dropShadow_4051_440777"/>
<feBlend mode="normal" in="SourceGraphic" in2="effect1_dropShadow_4051_440777" result="shape"/>
</filter>
<clipPath id="clip0_4051_440777">
<rect width="198" height="318" fill="white" transform="translate(209.5 18.5)"/>
</clipPath>
<clipPath id="clip1_4051_440777">
<rect width="103" height="35" fill="white" transform="translate(209.5 18.5)"/>
</clipPath>
</defs>
</svg>
