<svg width="584" height="381" viewBox="0 0 584 381" fill="none" xmlns="http://www.w3.org/2000/svg">
<g filter="url(#filter0_d_5852_443543)">
<rect width="196.187" height="319.098" transform="translate(8 31)" fill="var(--vscode-sideBar-background)"/>
<path d="M23.6798 51.5061H26.0252C27.1958 51.5061 28.0011 52.3114 28.0011 53.4903C28.0011 54.6443 27.1709 55.4496 25.9961 55.4496H24.6097V57.4961H23.6798V51.5061ZM24.6097 52.2906V54.6692H25.7803C26.5814 54.6692 27.0505 54.2416 27.0505 53.4903C27.0505 52.714 26.598 52.2906 25.7803 52.2906H24.6097ZM31.7537 51.3608C33.4764 51.3608 34.5474 52.5729 34.5474 54.499C34.5474 56.421 33.4847 57.6414 31.7537 57.6414C30.0102 57.6414 28.9559 56.4251 28.9559 54.499C28.9559 52.5687 30.0352 51.3608 31.7537 51.3608ZM31.7537 52.1827C30.6205 52.1827 29.9065 53.0793 29.9065 54.499C29.9065 55.9062 30.5997 56.8195 31.7537 56.8195C32.8911 56.8195 33.5968 55.9062 33.5968 54.499C33.5968 53.0793 32.887 52.1827 31.7537 52.1827ZM38.9725 53.0171L37.6898 57.4961H36.8098L35.195 51.5061H36.1622L37.2622 56.1636H37.3203L38.5698 51.5061H39.4332L40.691 56.1636H40.7491L41.845 51.5061H42.8122L41.1933 57.4961H40.3174L39.0306 53.0171H38.9725ZM47.7396 56.6949V57.4961H43.9372V51.5061H47.7396V52.3072H44.867V54.059H47.586V54.8311H44.867V56.6949H47.7396ZM50.0144 55.1922V57.4961H49.0846V51.5061H51.4548C52.6628 51.5061 53.4391 52.22 53.4391 53.3367C53.4391 54.1462 53.0074 54.802 52.2768 55.0469L53.6217 57.4961H52.5466L51.3262 55.1922H50.0144ZM50.0144 52.2865V54.4284H51.3511C52.0692 54.4284 52.4843 54.0424 52.4843 53.3574C52.4843 52.6891 52.0443 52.2865 51.3262 52.2865H50.0144ZM54.7633 51.5061H57.1086C58.2793 51.5061 59.0846 52.3114 59.0846 53.4903C59.0846 54.6443 58.2543 55.4496 57.0796 55.4496H55.6931V57.4961H54.7633V51.5061ZM55.6931 52.2906V54.6692H56.8637C57.6649 54.6692 58.134 54.2416 58.134 53.4903C58.134 52.714 57.6815 52.2906 56.8637 52.2906H55.6931ZM63.7712 57.4961L63.2232 55.8772H60.9401L60.388 57.4961H59.4333L61.596 51.5061H62.5964L64.7591 57.4961H63.7712ZM62.0485 52.5646L61.1767 55.13H62.9866L62.119 52.5646H62.0485ZM70.6329 55.1383C70.6329 56.6576 69.6159 57.6414 68.0468 57.6414C66.349 57.6414 65.278 56.4293 65.278 54.499C65.278 52.5936 66.3614 51.3608 68.0385 51.3608C69.4001 51.3608 70.388 52.1246 70.5914 53.3325H69.6574C69.425 52.5895 68.8563 52.1868 68.0385 52.1868C66.9301 52.1868 66.2286 53.0793 66.2286 54.4948C66.2286 55.9311 66.9343 56.8153 68.0592 56.8153C69.0389 56.8153 69.7114 56.1968 69.7197 55.2794V55.1466H68.1755V54.3952H70.6329V55.1383ZM75.718 56.6949V57.4961H71.9156V51.5061H75.718V52.3072H72.8455V54.059H75.5644V54.8311H72.8455V56.6949H75.718ZM76.7807 55.8979H77.7023C77.7811 56.4791 78.3374 56.8485 79.1385 56.8485C79.8857 56.8485 80.4337 56.4542 80.4337 55.9062C80.4337 55.4371 80.085 55.1466 79.2921 54.9556L78.52 54.7688C77.4366 54.5073 76.9426 53.9926 76.9426 53.1208C76.9426 52.0665 77.8143 51.3608 79.1219 51.3608C80.3382 51.3608 81.2265 52.0665 81.2805 53.0669H80.3756C80.2884 52.4982 79.8069 52.1495 79.1095 52.1495C78.3747 52.1495 77.8849 52.5106 77.8849 53.071C77.8849 53.5069 78.2004 53.756 78.9808 53.9469L79.6408 54.1088C80.8696 54.4035 81.376 54.8975 81.376 55.7941C81.376 56.9274 80.4877 57.6414 79.068 57.6414C77.7396 57.6414 76.8471 56.9606 76.7807 55.8979ZM85.1493 54.9971C85.1493 53.4903 85.5395 52.2533 86.349 51.2196H87.1377C86.54 51.9793 86.0709 53.5775 86.0709 54.993C86.0709 56.4168 86.5358 58.0108 87.1377 58.7746H86.349C85.5395 57.7369 85.1493 56.504 85.1493 54.9971ZM91.7164 53.0171L90.4337 57.4961H89.5537L87.9389 51.5061H88.9061L90.0061 56.1636H90.0642L91.3137 51.5061H92.1772L93.4349 56.1636H93.4931L94.5889 51.5061H95.5561L93.9372 57.4961H93.0613L91.7745 53.0171H91.7164ZM99.0016 51.3608C100.724 51.3608 101.795 52.5729 101.795 54.499C101.795 56.421 100.733 57.6414 99.0016 57.6414C97.2581 57.6414 96.2037 56.4251 96.2037 54.499C96.2037 52.5687 97.283 51.3608 99.0016 51.3608ZM99.0016 52.1827C97.8683 52.1827 97.1543 53.0793 97.1543 54.499C97.1543 55.9062 97.8476 56.8195 99.0016 56.8195C100.139 56.8195 100.845 55.9062 100.845 54.499C100.845 53.0793 100.135 52.1827 99.0016 52.1827ZM103.987 55.1922V57.4961H103.057V51.5061H105.427C106.635 51.5061 107.412 52.22 107.412 53.3367C107.412 54.1462 106.98 54.802 106.249 55.0469L107.594 57.4961H106.519L105.299 55.1922H103.987ZM103.987 52.2865V54.4284H105.324C106.042 54.4284 106.457 54.0424 106.457 53.3574C106.457 52.6891 106.017 52.2865 105.299 52.2865H103.987ZM109.666 57.4961H108.736V51.5061H109.666V54.3371H109.732L112.21 51.5061H113.31L110.994 54.1046L113.51 57.4961H112.347L110.338 54.7356L109.666 55.4994V57.4961ZM114 55.8979H114.921C115 56.4791 115.556 56.8485 116.357 56.8485C117.105 56.8485 117.652 56.4542 117.652 55.9062C117.652 55.4371 117.304 55.1466 116.511 54.9556L115.739 54.7688C114.655 54.5073 114.161 53.9926 114.161 53.1208C114.161 52.0665 115.033 51.3608 116.341 51.3608C117.557 51.3608 118.445 52.0665 118.499 53.0669H117.594C117.507 52.4982 117.026 52.1495 116.328 52.1495C115.594 52.1495 115.104 52.5106 115.104 53.071C115.104 53.5069 115.419 53.756 116.2 53.9469L116.86 54.1088C118.088 54.4035 118.595 54.8975 118.595 55.7941C118.595 56.9274 117.706 57.6414 116.287 57.6414C114.958 57.6414 114.066 56.9606 114 55.8979ZM119.819 51.5061H122.165C123.335 51.5061 124.141 52.3114 124.141 53.4903C124.141 54.6443 123.31 55.4496 122.136 55.4496H120.749V57.4961H119.819V51.5061ZM120.749 52.2906V54.6692H121.92C122.721 54.6692 123.19 54.2416 123.19 53.4903C123.19 52.714 122.738 52.2906 121.92 52.2906H120.749ZM128.827 57.4961L128.279 55.8772H125.996L125.444 57.4961H124.489L126.652 51.5061H127.652L129.815 57.4961H128.827ZM127.105 52.5646L126.233 55.13H128.043L127.175 52.5646H127.105ZM133.036 57.6414C131.372 57.6414 130.334 56.4376 130.334 54.5031C130.334 52.5646 131.368 51.3608 133.032 51.3608C134.352 51.3608 135.374 52.2034 135.523 53.4031H134.597C134.423 52.6601 133.821 52.1868 133.032 52.1868C131.957 52.1868 131.285 53.0793 131.285 54.5031C131.285 55.927 131.957 56.8153 133.036 56.8153C133.829 56.8153 134.431 56.3877 134.597 55.707H135.523C135.357 56.8734 134.373 57.6414 133.036 57.6414ZM140.55 56.6949V57.4961H136.748V51.5061H140.55V52.3072H137.677V54.059H140.396V54.8311H137.677V56.6949H140.55ZM143.555 54.9971C143.555 56.5081 143.165 57.741 142.36 58.7746H141.571C142.169 58.015 142.638 56.421 142.638 55.0013C142.638 53.5775 142.169 51.9834 141.571 51.2196H142.36C143.165 52.2574 143.555 53.4944 143.555 54.9971Z" fill="#CCCCCC"/>
<path d="M28.5266 80.7635L32.5573 76.6831L33.1545 77.2802L28.7754 81.6095H28.2281L23.849 77.2802L24.4462 76.6831L28.5266 80.7635Z" fill=" var(--vscode-tab-unfocusedInactiveForeground)"/>
<g clip-path="url(#clip0_5852_443543)">
<path d="M49.0535 73.0195C49.5674 73.0195 50.0631 73.087 50.5405 73.2218C51.018 73.353 51.4645 73.5407 51.88 73.7849C52.2954 74.0255 52.6727 74.317 53.0116 74.6596C53.3542 74.9986 53.6458 75.3758 53.8864 75.7913C54.1305 76.2068 54.3183 76.6533 54.4495 77.1307C54.5843 77.6082 54.6517 78.1038 54.6517 78.6177C54.6517 79.1317 54.5843 79.6273 54.4495 80.1048C54.3183 80.5822 54.1305 81.0287 53.8864 81.4442C53.6458 81.8597 53.3542 82.2387 53.0116 82.5813C52.6727 82.9203 52.2954 83.2118 51.88 83.456C51.4645 83.6966 51.018 83.8843 50.5405 84.0191C50.0631 84.1503 49.5674 84.2159 49.0535 84.2159C48.5396 84.2159 48.044 84.1503 47.5665 84.0191C47.089 83.8843 46.6426 83.6966 46.2271 83.456C45.8116 83.2118 45.4326 82.9203 45.09 82.5813C44.751 82.2387 44.4594 81.8597 44.2152 81.4442C43.9747 81.0287 43.787 80.584 43.6521 80.1102C43.5209 79.6328 43.4553 79.1353 43.4553 78.6177C43.4553 78.1038 43.5209 77.6082 43.6521 77.1307C43.787 76.6533 43.9747 76.2068 44.2152 75.7913C44.4594 75.3758 44.751 74.9986 45.09 74.6596C45.4326 74.317 45.8116 74.0255 46.2271 73.7849C46.6426 73.5407 47.0872 73.353 47.561 73.2218C48.0385 73.087 48.536 73.0195 49.0535 73.0195ZM53.4763 76.5184C53.3378 76.2232 53.1702 75.9462 52.9734 75.6874C52.7765 75.425 52.5579 75.1863 52.3173 74.9712C52.0768 74.7562 51.8162 74.5649 51.5356 74.3972C51.2549 74.2296 50.9615 74.0929 50.6553 73.9872C50.7866 74.1694 50.905 74.3626 51.0107 74.5667C51.1164 74.7708 51.2094 74.9822 51.2895 75.2009C51.3734 75.4159 51.4444 75.6346 51.5027 75.8569C51.5611 76.0792 51.6121 76.2997 51.6558 76.5184H53.4763ZM53.952 78.6177C53.952 78.133 53.8845 77.6665 53.7497 77.2182H51.7652C51.7943 77.4515 51.8162 77.6847 51.8308 77.918C51.8454 78.1476 51.8526 78.3808 51.8526 78.6177C51.8526 78.8546 51.8454 79.0897 51.8308 79.323C51.8162 79.5526 51.7943 79.784 51.7652 80.0173H53.7497C53.8845 79.569 53.952 79.1025 53.952 78.6177ZM49.0535 83.5162C49.2321 83.5162 49.398 83.467 49.551 83.3685C49.7077 83.2702 49.8517 83.1408 49.9829 82.9804C50.1141 82.82 50.2308 82.6396 50.3328 82.4392C50.4385 82.2351 50.5315 82.0291 50.6116 81.8214C50.6918 81.6137 50.7592 81.4132 50.8139 81.22C50.8686 81.0269 50.9105 80.8592 50.9396 80.7171H47.1674C47.1966 80.8592 47.2385 81.0269 47.2932 81.22C47.3478 81.4132 47.4152 81.6137 47.4954 81.8214C47.5756 82.0291 47.6667 82.2351 47.7688 82.4392C47.8745 82.6396 47.9929 82.82 48.1242 82.9804C48.2554 83.1408 48.3975 83.2702 48.5506 83.3685C48.7073 83.467 48.8749 83.5162 49.0535 83.5162ZM51.0599 80.0173C51.0891 79.784 51.1109 79.5526 51.1255 79.323C51.1438 79.0897 51.1529 78.8546 51.1529 78.6177C51.1529 78.3808 51.1438 78.1476 51.1255 77.918C51.1109 77.6847 51.0891 77.4515 51.0599 77.2182H47.0471C47.018 77.4515 46.9943 77.6847 46.9761 77.918C46.9615 78.1476 46.9542 78.3808 46.9542 78.6177C46.9542 78.8546 46.9615 79.0897 46.9761 79.323C46.9943 79.5526 47.018 79.784 47.0471 80.0173H51.0599ZM44.1551 78.6177C44.1551 79.1025 44.2225 79.569 44.3574 80.0173H46.3419C46.3127 79.784 46.2909 79.5526 46.2763 79.323C46.2617 79.0897 46.2544 78.8546 46.2544 78.6177C46.2544 78.3808 46.2617 78.1476 46.2763 77.918C46.2909 77.6847 46.3127 77.4515 46.3419 77.2182H44.3574C44.2225 77.6665 44.1551 78.133 44.1551 78.6177ZM49.0535 73.7193C48.8749 73.7193 48.7073 73.7685 48.5506 73.8669C48.3975 73.9653 48.2554 74.0947 48.1242 74.2551C47.9929 74.4154 47.8745 74.5977 47.7688 74.8018C47.6667 75.0022 47.5756 75.2063 47.4954 75.4141C47.4152 75.6218 47.3478 75.8223 47.2932 76.0154C47.2385 76.2086 47.1966 76.3763 47.1674 76.5184H50.9396C50.9105 76.3763 50.8686 76.2086 50.8139 76.0154C50.7592 75.8223 50.6918 75.6218 50.6116 75.4141C50.5315 75.2063 50.4385 75.0022 50.3328 74.8018C50.2308 74.5977 50.1141 74.4154 49.9829 74.2551C49.8517 74.0947 49.7077 73.9653 49.551 73.8669C49.398 73.7685 49.2321 73.7193 49.0535 73.7193ZM47.4517 73.9872C47.1456 74.0929 46.8521 74.2296 46.5715 74.3972C46.2909 74.5649 46.0303 74.7562 45.7897 74.9712C45.5492 75.1863 45.3305 75.425 45.1337 75.6874C44.9369 75.9462 44.7692 76.2232 44.6307 76.5184H46.4512C46.495 76.2997 46.546 76.0792 46.6043 75.8569C46.6626 75.6346 46.7319 75.4159 46.8121 75.2009C46.8959 74.9822 46.9907 74.7708 47.0963 74.5667C47.202 74.3626 47.3205 74.1694 47.4517 73.9872ZM44.6307 80.7171C44.7692 81.0123 44.9369 81.2911 45.1337 81.5535C45.3305 81.8123 45.5492 82.0492 45.7897 82.2642C46.0303 82.4793 46.2909 82.6706 46.5715 82.8383C46.8521 83.0059 47.1456 83.1426 47.4517 83.2483C47.3205 83.066 47.202 82.8729 47.0963 82.6688C46.9907 82.4647 46.8959 82.2551 46.8121 82.0401C46.7319 81.8214 46.6626 81.6009 46.6043 81.3786C46.546 81.1562 46.495 80.9357 46.4512 80.7171H44.6307ZM50.6553 83.2483C50.9615 83.1426 51.2549 83.0059 51.5356 82.8383C51.8162 82.6706 52.0768 82.4793 52.3173 82.2642C52.5579 82.0492 52.7765 81.8123 52.9734 81.5535C53.1702 81.2911 53.3378 81.0123 53.4763 80.7171H51.6558C51.6121 80.9357 51.5611 81.1562 51.5027 81.3786C51.4444 81.6009 51.3734 81.8214 51.2895 82.0401C51.2094 82.2551 51.1164 82.4647 51.0107 82.6688C50.905 82.8729 50.7866 83.066 50.6553 83.2483Z" fill="#BE5DC9"/>
</g>
<rect x="60.25" y="75.3535" width="39.1874" height="6.53124" rx="3.26562" fill="var(--vscode-tab-unfocusedInactiveForeground)"/>
<path d="M37.9317 101.215L33.8512 97.1847L34.4484 96.5876L38.7776 100.967V101.514L34.4484 105.893L33.8512 105.296L37.9317 101.215Z" fill=" var(--vscode-tab-unfocusedInactiveForeground)"/>
<g clip-path="url(#clip1_5852_443543)">
<path fill-rule="evenodd" clip-rule="evenodd" d="M63.9822 101.012V105.094H55.8181V103.461H52.5525V100.195H50.9197V96.1133H59.0837V100.195H53.3689V102.645H55.8181V101.012H63.9822ZM51.7361 96.9297H58.2673V97.7461H51.7361V96.9297ZM63.1658 101.828H56.6345V102.236V102.645V104.277H63.1658V102.645V102.236V101.828ZM51.7361 98.5625H58.2673V99.3789H51.7361V98.5625Z" fill="#B5A1FF"/>
</g>
<path d="M72.2869 105.118C71.0432 105.118 70.137 104.372 70.137 103.199C70.137 102.045 71.0017 101.375 72.5357 101.28L74.2829 101.174V100.611C74.2829 99.9065 73.8327 99.5096 72.9621 99.5096C72.2514 99.5096 71.7598 99.7762 71.6177 100.244H70.3858C70.5161 99.1602 71.5585 98.4554 73.0213 98.4554C74.6382 98.4554 75.5503 99.2609 75.5503 100.611V105.012H74.3243V104.1H74.2236C73.8387 104.751 73.1339 105.118 72.2869 105.118ZM72.6127 104.094C73.5721 104.094 74.2829 103.466 74.2829 102.637V102.08L72.7074 102.187C71.8191 102.246 71.4163 102.56 71.4163 103.146C71.4163 103.744 71.9197 104.094 72.6127 104.094ZM79.7198 105.118C78.0792 105.118 77.0428 103.827 77.0428 101.79C77.0428 99.7643 78.0911 98.4673 79.7198 98.4673C80.6022 98.4673 81.3485 98.8937 81.6979 99.5985H81.7927V96.0568H83.066V105.012H81.846V103.993H81.7453C81.3603 104.698 80.6082 105.118 79.7198 105.118ZM80.0811 99.557C79.0091 99.557 78.3576 100.404 78.3576 101.796C78.3576 103.193 79.0031 104.029 80.0811 104.029C81.153 104.029 81.8164 103.182 81.8164 101.796C81.8164 100.422 81.1471 99.557 80.0811 99.557ZM90.4396 98.5798L88.118 105.012H86.7499L84.4223 98.5798H85.7845L87.3895 103.709H87.4902L89.0893 98.5798H90.4396ZM93.2884 105.118C92.0447 105.118 91.1385 104.372 91.1385 103.199C91.1385 102.045 92.0032 101.375 93.5372 101.28L95.2843 101.174V100.611C95.2843 99.9065 94.8342 99.5096 93.9636 99.5096C93.2529 99.5096 92.7613 99.7762 92.6192 100.244H91.3873C91.5176 99.1602 92.5599 98.4554 94.0228 98.4554C95.6397 98.4554 96.5518 99.2609 96.5518 100.611V105.012H95.3258V104.1H95.2251C94.8401 104.751 94.1353 105.118 93.2884 105.118ZM93.6142 104.094C94.5736 104.094 95.2843 103.466 95.2843 102.637V102.08L93.7089 102.187C92.8205 102.246 92.4178 102.56 92.4178 103.146C92.4178 103.744 92.9212 104.094 93.6142 104.094ZM98.3641 105.012V98.5798H99.59V99.5985H99.6848C99.9987 98.8878 100.638 98.4554 101.61 98.4554C103.049 98.4554 103.842 99.3142 103.842 100.848V105.012H102.569V101.15C102.569 100.084 102.119 99.5629 101.177 99.5629C100.236 99.5629 99.6374 100.203 99.6374 101.239V105.012H98.3641ZM111.098 100.647H109.86C109.712 100.019 109.191 99.5393 108.338 99.5393C107.272 99.5393 106.62 100.38 106.62 101.772C106.62 103.193 107.278 104.052 108.338 104.052C109.143 104.052 109.694 103.673 109.86 102.974H111.098C110.932 104.242 109.937 105.136 108.344 105.136C106.466 105.136 105.317 103.857 105.317 101.772C105.317 99.7288 106.46 98.4554 108.338 98.4554C109.955 98.4554 110.932 99.3971 111.098 100.647ZM116.783 103.288H118.009C117.731 104.425 116.689 105.136 115.214 105.136C113.366 105.136 112.235 103.863 112.235 101.808C112.235 99.7643 113.39 98.4554 115.208 98.4554C117.002 98.4554 118.086 99.6814 118.086 101.695V102.133H113.532V102.193C113.573 103.359 114.231 104.094 115.249 104.094C116.019 104.094 116.546 103.809 116.783 103.288ZM115.202 99.4919C114.26 99.4919 113.603 100.179 113.532 101.215H116.789C116.76 100.173 116.144 99.4919 115.202 99.4919ZM121.971 105.118C120.331 105.118 119.294 103.827 119.294 101.79C119.294 99.7643 120.343 98.4673 121.971 98.4673C122.854 98.4673 123.6 98.8937 123.95 99.5985H124.044V96.0568H125.318V105.012H124.098V103.993H123.997C123.612 104.698 122.86 105.118 121.971 105.118ZM122.333 99.557C121.261 99.557 120.609 100.404 120.609 101.796C120.609 103.193 121.255 104.029 122.333 104.029C123.405 104.029 124.068 103.182 124.068 101.796C124.068 100.422 123.399 99.557 122.333 99.557ZM131.14 102.157H127.254V100.978H131.14V102.157ZM133.266 105.012V99.6162H132.206V98.5976H133.266V97.9046C133.266 96.6253 133.917 95.9976 135.256 95.9976C135.546 95.9976 135.795 96.0212 136.014 96.0568V97.0162C135.895 96.9985 135.724 96.9866 135.522 96.9866C134.812 96.9866 134.521 97.3124 134.521 97.9638V98.5976H135.961V99.6162H134.539V105.012H133.266ZM139.881 105.136C137.992 105.136 136.837 103.875 136.837 101.796C136.837 99.7229 137.998 98.4554 139.881 98.4554C141.759 98.4554 142.92 99.7169 142.92 101.796C142.92 103.875 141.765 105.136 139.881 105.136ZM139.881 104.052C140.983 104.052 141.611 103.223 141.611 101.796C141.611 100.362 140.983 99.5333 139.881 99.5333C138.774 99.5333 138.152 100.362 138.152 101.796C138.152 103.229 138.774 104.052 139.881 104.052ZM144.454 105.012V98.5798H145.68V99.557H145.774C145.958 98.9233 146.675 98.4673 147.516 98.4673C147.705 98.4673 147.948 98.485 148.084 98.5146V99.711C147.978 99.6814 147.598 99.6399 147.373 99.6399C146.408 99.6399 145.727 100.262 145.727 101.168V105.012H144.454ZM149.405 105.012V98.5798H150.631V99.6044H150.726C151.01 98.8818 151.661 98.4554 152.52 98.4554C153.403 98.4554 154.013 98.9115 154.297 99.6044H154.398C154.723 98.9115 155.464 98.4554 156.358 98.4554C157.661 98.4554 158.419 99.2372 158.419 100.576V105.012H157.146V100.884C157.146 99.9953 156.731 99.5629 155.896 99.5629C155.073 99.5629 154.534 100.167 154.534 100.943V105.012H153.284V100.753C153.284 100.019 152.798 99.5629 152.04 99.5629C151.265 99.5629 150.678 100.22 150.678 101.061V105.012H149.405ZM160.06 100.38C160.06 99.2609 161.108 98.4554 162.565 98.4554C164.016 98.4554 164.963 99.1306 165.088 100.244H163.868C163.749 99.7643 163.287 99.4504 162.565 99.4504C161.854 99.4504 161.315 99.7998 161.315 100.321C161.315 100.718 161.641 100.967 162.34 101.132L163.412 101.381C164.638 101.665 165.212 102.193 165.212 103.128C165.212 104.325 164.081 105.136 162.541 105.136C161.007 105.136 160.006 104.443 159.894 103.324H161.167C161.327 103.827 161.801 104.141 162.571 104.141C163.364 104.141 163.927 103.774 163.927 103.247C163.927 102.844 163.625 102.583 162.979 102.429L161.854 102.163C160.628 101.879 160.06 101.334 160.06 100.38Z" fill="#A0A0A0"/>
<path d="M37.9317 123.608L33.8512 119.577L34.4484 118.98L38.7776 123.359V123.907L34.4484 128.286L33.8512 127.688L37.9317 123.608Z" fill=" var(--vscode-tab-unfocusedInactiveForeground)"/>
<g clip-path="url(#clip2_5852_443543)">
<path d="M52.3144 129.002H55.7285L55.4819 129.936H51.3279V116.873H63.1658V120.656C62.8215 120.705 62.4927 120.812 62.1792 120.977V117.806H52.3144V129.002Z" fill="#00DBBC"/>
<path d="M62.7065 122.18C62.8851 122.18 63.051 122.213 63.204 122.281C63.3614 122.348 63.4974 122.442 63.6123 122.563C63.727 122.685 63.8164 122.826 63.8801 122.988C63.9482 123.149 63.9822 123.324 63.9822 123.513C63.9822 123.688 63.9503 123.858 63.8865 124.024C63.8227 124.19 63.7313 124.336 63.6123 124.462L59.0391 129.303L56.6345 129.936L57.2341 127.397L61.8072 122.563C61.9263 122.438 62.0645 122.343 62.2218 122.281C62.3791 122.213 62.5407 122.18 62.7065 122.18ZM63.0318 123.856C63.1211 123.762 63.1658 123.647 63.1658 123.513C63.1658 123.374 63.1211 123.261 63.0318 123.176C62.9468 123.086 62.8383 123.041 62.7065 123.041C62.647 123.041 62.5896 123.053 62.5343 123.075C62.479 123.093 62.4301 123.124 62.3876 123.169L57.9739 127.842L57.7571 128.751L58.6181 128.522L63.0318 123.856Z" fill="#00DBBC"/>
<path fill-rule="evenodd" clip-rule="evenodd" d="M62.3493 117.689H52.1443V129.119H55.6747L56.2263 127.078L57.0198 126.262H52.9607V123.812H59.4002L61.7893 121.354C61.7893 121.354 62.1455 121.061 62.3493 120.951V117.689ZM52.9607 118.914H61.5329V121.363H52.9607V118.914Z" fill="#00DBBC"/>
</g>
<path d="M73.9216 127.511C73.0213 127.511 72.2692 127.096 71.8842 126.386H71.7894V127.404H70.5635V118.449H71.8368V121.991H71.9375C72.281 121.292 73.0391 120.86 73.9216 120.86C75.5562 120.86 76.5867 122.145 76.5867 124.188C76.5867 126.214 75.5503 127.511 73.9216 127.511ZM73.5544 121.95C72.4883 121.95 71.8191 122.808 71.8131 124.188C71.8191 125.568 72.4824 126.421 73.5544 126.421C74.6323 126.421 75.2778 125.58 75.2778 124.188C75.2778 122.797 74.6323 121.95 73.5544 121.95ZM79.9034 127.511C78.6596 127.511 77.7535 126.765 77.7535 125.592C77.7535 124.437 78.6182 123.768 80.1521 123.673L81.8993 123.566V123.004C81.8993 122.299 81.4492 121.902 80.5786 121.902C79.8678 121.902 79.3763 122.169 79.2341 122.637H78.0022C78.1325 121.553 79.1749 120.848 80.6378 120.848C82.2546 120.848 83.1667 121.653 83.1667 123.004V127.404H81.9407V126.492H81.8401C81.4551 127.144 80.7503 127.511 79.9034 127.511ZM80.2291 126.486C81.1886 126.486 81.8993 125.859 81.8993 125.029V124.473L80.3239 124.579C79.4355 124.638 79.0328 124.952 79.0328 125.539C79.0328 126.137 79.5362 126.486 80.2291 126.486ZM84.831 122.773C84.831 121.653 85.8793 120.848 87.3362 120.848C88.7872 120.848 89.7349 121.523 89.8592 122.637H88.6392C88.5207 122.157 88.0588 121.843 87.3362 121.843C86.6255 121.843 86.0866 122.192 86.0866 122.714C86.0866 123.11 86.4123 123.359 87.1112 123.525L88.1831 123.774C89.4091 124.058 89.9836 124.585 89.9836 125.521C89.9836 126.717 88.8524 127.529 87.3125 127.529C85.7786 127.529 84.7777 126.836 84.6651 125.716H85.9385C86.0984 126.22 86.5722 126.534 87.3421 126.534C88.1358 126.534 88.6984 126.166 88.6984 125.639C88.6984 125.237 88.3964 124.976 87.7508 124.822L86.6255 124.556C85.3995 124.271 84.831 123.726 84.831 122.773ZM92.175 119.823C91.7308 119.823 91.3695 119.462 91.3695 119.024C91.3695 118.58 91.7308 118.218 92.175 118.218C92.6192 118.218 92.9804 118.58 92.9804 119.024C92.9804 119.462 92.6192 119.823 92.175 119.823ZM91.5412 127.404V120.972H92.8087V127.404H91.5412ZM100.141 123.039H98.903C98.7549 122.412 98.2338 121.932 97.3809 121.932C96.3148 121.932 95.6634 122.773 95.6634 124.165C95.6634 125.586 96.3208 126.445 97.3809 126.445C98.1864 126.445 98.7372 126.066 98.903 125.367H100.141C99.975 126.634 98.98 127.529 97.3868 127.529C95.5094 127.529 94.3604 126.249 94.3604 124.165C94.3604 122.121 95.5035 120.848 97.3809 120.848C98.9978 120.848 99.975 121.79 100.141 123.039ZM105.507 124.55H101.621V123.371H105.507V124.55ZM107.633 127.404V122.009H106.573V120.99H107.633V120.297C107.633 119.018 108.284 118.39 109.623 118.39C109.913 118.39 110.162 118.414 110.381 118.449V119.409C110.263 119.391 110.091 119.379 109.889 119.379C109.179 119.379 108.888 119.705 108.888 120.356V120.99H110.328V122.009H108.906V127.404H107.633ZM114.248 127.529C112.359 127.529 111.204 126.267 111.204 124.188C111.204 122.115 112.365 120.848 114.248 120.848C116.126 120.848 117.287 122.11 117.287 124.188C117.287 126.267 116.132 127.529 114.248 127.529ZM114.248 126.445C115.35 126.445 115.978 125.616 115.978 124.188C115.978 122.755 115.35 121.926 114.248 121.926C113.141 121.926 112.519 122.755 112.519 124.188C112.519 125.622 113.141 126.445 114.248 126.445ZM118.821 127.404V120.972H120.047V121.95H120.141C120.325 121.316 121.042 120.86 121.883 120.86C122.072 120.86 122.315 120.878 122.451 120.907V122.104C122.345 122.074 121.966 122.033 121.74 122.033C120.775 122.033 120.094 122.654 120.094 123.561V127.404H118.821ZM123.772 127.404V120.972H124.998V121.997H125.093C125.377 121.274 126.028 120.848 126.887 120.848C127.77 120.848 128.38 121.304 128.664 121.997H128.765C129.09 121.304 129.831 120.848 130.725 120.848C132.028 120.848 132.786 121.63 132.786 122.968V127.404H131.513V123.276C131.513 122.388 131.098 121.956 130.263 121.956C129.44 121.956 128.901 122.56 128.901 123.335V127.404H127.651V123.146C127.651 122.412 127.166 121.956 126.407 121.956C125.632 121.956 125.045 122.613 125.045 123.454V127.404H123.772ZM134.427 122.773C134.427 121.653 135.475 120.848 136.932 120.848C138.383 120.848 139.331 121.523 139.455 122.637H138.235C138.116 122.157 137.654 121.843 136.932 121.843C136.221 121.843 135.682 122.192 135.682 122.714C135.682 123.11 136.008 123.359 136.707 123.525L137.779 123.774C139.005 124.058 139.579 124.585 139.579 125.521C139.579 126.717 138.448 127.529 136.908 127.529C135.374 127.529 134.373 126.836 134.261 125.716H135.534C135.694 126.22 136.168 126.534 136.938 126.534C137.731 126.534 138.294 126.166 138.294 125.639C138.294 125.237 137.992 124.976 137.346 124.822L136.221 124.556C134.995 124.271 134.427 123.726 134.427 122.773Z" fill="#A0A0A0"/>
<path d="M37.9317 146.001L33.8512 141.97L34.4484 141.373L38.7776 145.752V146.299L34.4484 150.678L33.8512 150.081L37.9317 146.001Z" fill=" var(--vscode-tab-unfocusedInactiveForeground)"/>
<g clip-path="url(#clip3_5852_443543)">
<path fill-rule="evenodd" clip-rule="evenodd" d="M59.6765 142.049V139.945L61.7952 142.049H59.6765ZM52.1443 152.328H62.4794V142.998H58.7212V139.266H52.1443V152.328ZM56.1581 145.104L54.621 146.641L56.1581 148.178L55.5024 148.834L53.3097 146.641L55.5024 144.449L56.1581 145.104ZM59.0906 144.449L61.2834 146.641L59.0906 148.834L58.435 148.178L59.9721 146.641L58.435 145.104L59.0906 144.449Z" fill="#15C6F4"/>
</g>
<path d="M75.9649 145.432H74.727C74.579 144.804 74.0578 144.324 73.2049 144.324C72.1389 144.324 71.4874 145.165 71.4874 146.557C71.4874 147.979 72.1448 148.837 73.2049 148.837C74.0104 148.837 74.5612 148.458 74.727 147.76H75.9649C75.799 149.027 74.804 149.921 73.2109 149.921C71.3334 149.921 70.1844 148.642 70.1844 146.557C70.1844 144.514 71.3275 143.241 73.2049 143.241C74.8218 143.241 75.799 144.182 75.9649 145.432ZM80.1462 149.921C78.2569 149.921 77.102 148.66 77.102 146.581C77.102 144.508 78.2628 143.241 80.1462 143.241C82.0237 143.241 83.1845 144.502 83.1845 146.581C83.1845 148.66 82.0296 149.921 80.1462 149.921ZM80.1462 148.837C81.2478 148.837 81.8756 148.008 81.8756 146.581C81.8756 145.148 81.2478 144.318 80.1462 144.318C79.0387 144.318 78.4168 145.148 78.4168 146.581C78.4168 148.014 79.0387 148.837 80.1462 148.837ZM84.7184 149.797V143.365H85.9444V144.384H86.0392C86.3531 143.673 86.9927 143.241 87.964 143.241C89.4032 143.241 90.1968 144.099 90.1968 145.633V149.797H88.9235V145.935C88.9235 144.869 88.4734 144.348 87.5317 144.348C86.59 144.348 85.9918 144.988 85.9918 146.024V149.797H84.7184ZM92.4415 141.742H93.7148V143.383H95.1126V144.401H93.7148V147.795C93.7148 148.488 93.9932 148.79 94.6269 148.79C94.8224 148.79 94.9349 148.778 95.1126 148.76V149.773C94.9053 149.809 94.6684 149.838 94.4196 149.838C93.0041 149.838 92.4415 149.341 92.4415 148.103V144.401H91.4169V143.383H92.4415V141.742ZM100.769 148.073H101.995C101.716 149.211 100.674 149.921 99.1991 149.921C97.3513 149.921 96.2201 148.648 96.2201 146.593C96.2201 144.549 97.375 143.241 99.1932 143.241C100.988 143.241 102.072 144.467 102.072 146.48V146.919H97.5171V146.978C97.5586 148.144 98.216 148.879 99.2347 148.879C100.005 148.879 100.532 148.595 100.769 148.073ZM99.1873 144.277C98.2456 144.277 97.5882 144.964 97.5171 146.001H100.775C100.745 144.958 100.129 144.277 99.1873 144.277ZM103.6 149.797V143.365H104.826V144.384H104.92C105.234 143.673 105.874 143.241 106.845 143.241C108.284 143.241 109.078 144.099 109.078 145.633V149.797H107.805V145.935C107.805 144.869 107.355 144.348 106.413 144.348C105.471 144.348 104.873 144.988 104.873 146.024V149.797H103.6ZM111.323 141.742H112.596V143.383H113.994V144.401H112.596V147.795C112.596 148.488 112.874 148.79 113.508 148.79C113.704 148.79 113.816 148.778 113.994 148.76V149.773C113.786 149.809 113.55 149.838 113.301 149.838C111.885 149.838 111.323 149.341 111.323 148.103V144.401H110.298V143.383H111.323V141.742ZM119.2 146.942H115.314V145.764H119.2V146.942ZM120.923 145.165C120.923 144.046 121.971 143.241 123.428 143.241C124.879 143.241 125.827 143.916 125.951 145.029H124.731C124.613 144.549 124.151 144.236 123.428 144.236C122.718 144.236 122.179 144.585 122.179 145.106C122.179 145.503 122.504 145.752 123.203 145.918L124.275 146.166C125.501 146.451 126.076 146.978 126.076 147.913C126.076 149.11 124.945 149.921 123.405 149.921C121.871 149.921 120.87 149.228 120.757 148.109H122.031C122.191 148.612 122.664 148.926 123.434 148.926C124.228 148.926 124.791 148.559 124.791 148.032C124.791 147.629 124.489 147.369 123.843 147.215L122.718 146.948C121.492 146.664 120.923 146.119 120.923 145.165ZM127.61 149.797V143.365H128.836V144.384H128.93C129.244 143.673 129.884 143.241 130.855 143.241C132.295 143.241 133.088 144.099 133.088 145.633V149.797H131.815V145.935C131.815 144.869 131.365 144.348 130.423 144.348C129.481 144.348 128.883 144.988 128.883 146.024V149.797H127.61ZM135.54 142.216C135.096 142.216 134.735 141.855 134.735 141.416C134.735 140.972 135.096 140.611 135.54 140.611C135.984 140.611 136.346 140.972 136.346 141.416C136.346 141.855 135.984 142.216 135.54 142.216ZM134.906 149.797V143.365H136.174V149.797H134.906ZM141.392 143.252C143.032 143.252 144.069 144.538 144.069 146.581C144.069 148.612 143.032 149.903 141.403 149.903C140.485 149.903 139.757 149.507 139.419 148.826H139.319V151.941H138.045V143.365H139.271V144.431H139.366C139.757 143.697 140.515 143.252 141.392 143.252ZM141.03 148.814C142.114 148.814 142.76 147.979 142.76 146.581C142.76 145.183 142.114 144.342 141.036 144.342C139.964 144.342 139.295 145.201 139.295 146.581C139.295 147.955 139.964 148.814 141.03 148.814ZM148.949 143.252C150.589 143.252 151.626 144.538 151.626 146.581C151.626 148.612 150.589 149.903 148.961 149.903C148.043 149.903 147.314 149.507 146.977 148.826H146.876V151.941H145.603V143.365H146.829V144.431H146.923C147.314 143.697 148.072 143.252 148.949 143.252ZM148.588 148.814C149.671 148.814 150.317 147.979 150.317 146.581C150.317 145.183 149.671 144.342 148.593 144.342C147.521 144.342 146.852 145.201 146.852 146.581C146.852 147.955 147.521 148.814 148.588 148.814ZM157.388 148.073H158.614C158.336 149.211 157.294 149.921 155.819 149.921C153.971 149.921 152.84 148.648 152.84 146.593C152.84 144.549 153.995 143.241 155.813 143.241C157.608 143.241 158.691 144.467 158.691 146.48V146.919H154.137V146.978C154.178 148.144 154.836 148.879 155.855 148.879C156.624 148.879 157.152 148.595 157.388 148.073ZM155.807 144.277C154.865 144.277 154.208 144.964 154.137 146.001H157.394C157.365 144.958 156.749 144.277 155.807 144.277ZM160.67 141.742H161.943V143.383H163.341V144.401H161.943V147.795C161.943 148.488 162.221 148.79 162.855 148.79C163.05 148.79 163.163 148.778 163.341 148.76V149.773C163.133 149.809 162.896 149.838 162.648 149.838C161.232 149.838 160.67 149.341 160.67 148.103V144.401H159.645V143.383H160.67V141.742ZM164.596 145.165C164.596 144.046 165.645 143.241 167.102 143.241C168.553 143.241 169.5 143.916 169.625 145.029H168.404C168.286 144.549 167.824 144.236 167.102 144.236C166.391 144.236 165.852 144.585 165.852 145.106C165.852 145.503 166.178 145.752 166.876 145.918L167.948 146.166C169.174 146.451 169.749 146.978 169.749 147.913C169.749 149.11 168.618 149.921 167.078 149.921C165.544 149.921 164.543 149.228 164.43 148.109H165.704C165.864 148.612 166.338 148.926 167.107 148.926C167.901 148.926 168.464 148.559 168.464 148.032C168.464 147.629 168.162 147.369 167.516 147.215L166.391 146.948C165.165 146.664 164.596 146.119 164.596 145.165Z" fill="#A0A0A0"/>
<path d="M37.9317 168.395L33.8512 164.364L34.4484 163.767L38.7776 168.146V168.694L34.4484 173.073L33.8512 172.476L37.9317 168.395Z" fill=" var(--vscode-tab-unfocusedInactiveForeground)"/>
<g clip-path="url(#clip4_5852_443543)">
<path fill-rule="evenodd" clip-rule="evenodd" d="M62.7575 161.658H51.7361V174.517H62.7575V161.658ZM53.573 165.332H54.4915V164.414H53.573V165.332ZM54.4915 168.087H53.573V167.169H54.4915V168.087ZM60.9206 168.087H55.4099V167.169H60.9206V168.087ZM53.573 170.843H54.4915V169.924H53.573V170.843ZM60.9206 170.843H55.4099V169.924H60.9206V170.843ZM60.9206 165.332H55.4099V164.414H60.9206V165.332Z" fill="#5BD667"/>
</g>
<path d="M70.5635 172.189V163.235H71.8368V172.189H70.5635ZM74.4072 164.609C73.963 164.609 73.6018 164.247 73.6018 163.809C73.6018 163.365 73.963 163.004 74.4072 163.004C74.8514 163.004 75.2127 163.365 75.2127 163.809C75.2127 164.247 74.8514 164.609 74.4072 164.609ZM73.7735 172.189V165.758H75.0409V172.189H73.7735ZM76.7644 167.558C76.7644 166.439 77.8127 165.633 79.2697 165.633C80.7207 165.633 81.6683 166.308 81.7927 167.422H80.5726C80.4542 166.942 79.9922 166.628 79.2697 166.628C78.559 166.628 78.02 166.978 78.02 167.499C78.02 167.896 78.3457 168.144 79.0446 168.31L80.1166 168.559C81.3426 168.843 81.9171 169.37 81.9171 170.306C81.9171 171.502 80.7858 172.314 79.246 172.314C77.712 172.314 76.7111 171.621 76.5986 170.502H77.8719C78.0318 171.005 78.5056 171.319 79.2756 171.319C80.0692 171.319 80.6319 170.952 80.6319 170.425C80.6319 170.022 80.3298 169.761 79.6842 169.607L78.559 169.341C77.333 169.056 76.7644 168.512 76.7644 167.558ZM83.8537 164.135H85.1271V165.775H86.5248V166.794H85.1271V170.188C85.1271 170.881 85.4055 171.183 86.0392 171.183C86.2346 171.183 86.3471 171.171 86.5248 171.153V172.166C86.3175 172.201 86.0806 172.231 85.8319 172.231C84.4164 172.231 83.8537 171.733 83.8537 170.496V166.794H82.8291V165.775H83.8537V164.135ZM87.7804 167.558C87.7804 166.439 88.8287 165.633 90.2857 165.633C91.7367 165.633 92.6843 166.308 92.8087 167.422H91.5886C91.4702 166.942 91.0082 166.628 90.2857 166.628C89.575 166.628 89.036 166.978 89.036 167.499C89.036 167.896 89.3617 168.144 90.0606 168.31L91.1326 168.559C92.3586 168.843 92.9331 169.37 92.9331 170.306C92.9331 171.502 91.8018 172.314 90.262 172.314C88.728 172.314 87.7271 171.621 87.6146 170.502H88.8879C89.0478 171.005 89.5216 171.319 90.2916 171.319C91.0852 171.319 91.6479 170.952 91.6479 170.425C91.6479 170.022 91.3458 169.761 90.7002 169.607L89.575 169.341C88.349 169.056 87.7804 168.512 87.7804 167.558Z" fill="#A0A0A0"/>
<path d="M37.9317 190.788L33.8512 186.757L34.4484 186.16L38.7776 190.539V191.086L34.4484 195.465L33.8512 194.868L37.9317 190.788Z" fill=" var(--vscode-tab-unfocusedInactiveForeground)"/>
<g clip-path="url(#clip5_5852_443543)">
<path d="M59.9001 188.951C60.2749 188.951 60.6363 189 60.9844 189.099C61.3326 189.194 61.6581 189.331 61.9611 189.509C62.264 189.685 62.5391 189.897 62.7863 190.147C63.0361 190.394 63.2487 190.669 63.4241 190.972C63.6021 191.275 63.739 191.601 63.8347 191.949C63.933 192.297 63.9822 192.658 63.9822 193.033C63.9822 193.408 63.933 193.769 63.8347 194.117C63.739 194.466 63.6021 194.791 63.4241 195.094C63.2487 195.397 63.0361 195.673 62.7863 195.923C62.5391 196.17 62.264 196.383 61.9611 196.561C61.6581 196.737 61.3326 196.873 60.9844 196.972C60.6363 197.067 60.2749 197.115 59.9001 197.115C59.5254 197.115 59.164 197.067 58.8159 196.972C58.4677 196.873 58.1422 196.737 57.8392 196.561C57.5362 196.383 57.2598 196.17 57.01 195.923C56.7629 195.673 56.5503 195.397 56.3722 195.094C56.1968 194.791 56.0599 194.467 55.9616 194.121C55.866 193.773 55.8181 193.411 55.8181 193.033C55.8181 192.658 55.866 192.297 55.9616 191.949C56.0599 191.601 56.1968 191.275 56.3722 190.972C56.5503 190.669 56.7629 190.394 57.01 190.147C57.2598 189.897 57.5362 189.685 57.8392 189.509C58.1422 189.331 58.4664 189.194 58.8119 189.099C59.16 189 59.5228 188.951 59.9001 188.951ZM63.1251 191.502C63.0241 191.287 62.9019 191.085 62.7584 190.897C62.6148 190.705 62.4554 190.531 62.28 190.374C62.1046 190.217 61.9146 190.078 61.7099 189.956C61.5053 189.834 61.2914 189.734 61.0681 189.657C61.1638 189.79 61.2502 189.93 61.3273 190.079C61.4043 190.228 61.4721 190.382 61.5305 190.542C61.5917 190.699 61.6435 190.858 61.686 191.02C61.7286 191.182 61.7657 191.343 61.7976 191.502H63.1251ZM63.4719 193.033C63.4719 192.68 63.4228 192.34 63.3244 192.013H61.8774C61.8986 192.183 61.9146 192.353 61.9252 192.523C61.9358 192.69 61.9412 192.86 61.9412 193.033C61.9412 193.206 61.9358 193.377 61.9252 193.547C61.9146 193.715 61.8986 193.884 61.8774 194.054H63.3244C63.4228 193.727 63.4719 193.387 63.4719 193.033ZM59.9001 196.605C60.0304 196.605 60.1513 196.569 60.2629 196.497C60.3772 196.426 60.4822 196.331 60.5778 196.214C60.6735 196.097 60.7585 195.966 60.833 195.82C60.91 195.671 60.9778 195.521 61.0362 195.369C61.0947 195.218 61.1439 195.072 61.1837 194.931C61.2236 194.79 61.2542 194.668 61.2754 194.564H58.5249C58.5461 194.668 58.5767 194.79 58.6165 194.931C58.6564 195.072 58.7056 195.218 58.764 195.369C58.8225 195.521 58.8889 195.671 58.9634 195.82C59.0404 195.966 59.1268 196.097 59.2224 196.214C59.3181 196.331 59.4218 196.426 59.5334 196.497C59.6477 196.569 59.7699 196.605 59.9001 196.605ZM61.3631 194.054C61.3844 193.884 61.4003 193.715 61.411 193.547C61.4242 193.377 61.4309 193.206 61.4309 193.033C61.4309 192.86 61.4242 192.69 61.411 192.523C61.4003 192.353 61.3844 192.183 61.3631 192.013H58.4371C58.4159 192.183 58.3986 192.353 58.3853 192.523C58.3747 192.69 58.3694 192.86 58.3694 193.033C58.3694 193.206 58.3747 193.377 58.3853 193.547C58.3986 193.715 58.4159 193.884 58.4371 194.054H61.3631ZM56.3284 193.033C56.3284 193.387 56.3775 193.727 56.4759 194.054H57.9229C57.9017 193.884 57.8857 193.715 57.8751 193.547C57.8644 193.377 57.8591 193.206 57.8591 193.033C57.8591 192.86 57.8644 192.69 57.8751 192.523C57.8857 192.353 57.9017 192.183 57.9229 192.013H56.4759C56.3775 192.34 56.3284 192.68 56.3284 193.033ZM59.9001 189.461C59.7699 189.461 59.6477 189.497 59.5334 189.569C59.4218 189.641 59.3181 189.735 59.2224 189.852C59.1268 189.969 59.0404 190.102 58.9634 190.251C58.8889 190.397 58.8225 190.546 58.764 190.697C58.7056 190.849 58.6564 190.995 58.6165 191.136C58.5767 191.277 58.5461 191.399 58.5249 191.502H61.2754C61.2542 191.399 61.2236 191.277 61.1837 191.136C61.1439 190.995 61.0947 190.849 61.0362 190.697C60.9778 190.546 60.91 190.397 60.833 190.251C60.7585 190.102 60.6735 189.969 60.5778 189.852C60.4822 189.735 60.3772 189.641 60.2629 189.569C60.1513 189.497 60.0304 189.461 59.9001 189.461ZM58.7322 189.657C58.5089 189.734 58.295 189.834 58.0903 189.956C57.8857 190.078 57.6957 190.217 57.5203 190.374C57.3449 190.531 57.1854 190.705 57.0419 190.897C56.8984 191.085 56.7762 191.287 56.6752 191.502H58.0027C58.0345 191.343 58.0717 191.182 58.1143 191.02C58.1568 190.858 58.2073 190.699 58.2657 190.542C58.3268 190.382 58.396 190.228 58.473 190.079C58.5501 189.93 58.6365 189.79 58.7322 189.657ZM56.6752 194.564C56.7762 194.779 56.8984 194.983 57.0419 195.174C57.1854 195.363 57.3449 195.535 57.5203 195.692C57.6957 195.849 57.8857 195.988 58.0903 196.111C58.295 196.233 58.5089 196.333 58.7322 196.41C58.6365 196.277 58.5501 196.136 58.473 195.987C58.396 195.838 58.3268 195.685 58.2657 195.529C58.2073 195.369 58.1568 195.208 58.1143 195.046C58.0717 194.884 58.0345 194.723 58.0027 194.564H56.6752ZM61.0681 196.41C61.2914 196.333 61.5053 196.233 61.7099 196.111C61.9146 195.988 62.1046 195.849 62.28 195.692C62.4554 195.535 62.6148 195.363 62.7584 195.174C62.9019 194.983 63.0241 194.779 63.1251 194.564H61.7976C61.7657 194.723 61.7286 194.884 61.686 195.046C61.6435 195.208 61.5917 195.369 61.5305 195.529C61.4721 195.685 61.4043 195.838 61.3273 195.987C61.2502 196.136 61.1638 196.277 61.0681 196.41Z" fill="#FF823B"/>
<path fill-rule="evenodd" clip-rule="evenodd" d="M59.6765 186.836V184.732L61.7952 186.836H59.6765ZM62.4794 188.868C61.7303 188.403 60.8466 188.135 59.9001 188.135C57.1948 188.135 55.0017 190.328 55.0017 193.033C55.0017 194.737 55.8716 196.238 57.1914 197.115H52.1443V184.053H58.7212V187.785H62.4794V188.868Z" fill="#FFA058"/>
</g>
<path d="M78.9025 188.152L77.1316 194.584H75.8109L74.4783 189.787H74.3776L73.051 194.584H71.7421L69.9653 188.152H71.2564L72.4113 193.115H72.5061L73.8327 188.152H75.0528L76.3794 193.115H76.4801L77.6291 188.152H78.9025ZM84.1972 192.861H85.4232C85.1449 193.998 84.1025 194.708 82.6278 194.708C80.7799 194.708 79.6487 193.435 79.6487 191.38C79.6487 189.337 80.8036 188.028 82.6218 188.028C84.4164 188.028 85.5002 189.254 85.5002 191.267V191.706H80.9458V191.765C80.9872 192.932 81.6446 193.666 82.6633 193.666C83.4332 193.666 83.9603 193.382 84.1972 192.861ZM82.6159 189.064C81.6742 189.064 81.0168 189.751 80.9458 190.788H84.2032C84.1736 189.745 83.5576 189.064 82.6159 189.064ZM90.4456 194.691C89.5453 194.691 88.7932 194.276 88.4082 193.565H88.3134V194.584H87.0875V185.629H88.3608V189.171H88.4615C88.805 188.472 89.5631 188.04 90.4456 188.04C92.0802 188.04 93.1107 189.325 93.1107 191.368C93.1107 193.394 92.0743 194.691 90.4456 194.691ZM90.0784 189.129C89.0123 189.129 88.3431 189.988 88.3371 191.368C88.3431 192.748 89.0064 193.601 90.0784 193.601C91.1563 193.601 91.8018 192.76 91.8018 191.368C91.8018 189.976 91.1563 189.129 90.0784 189.129ZM98.5536 191.729H94.6684V190.551H98.5536V191.729ZM100.68 194.584V189.189H99.6196V188.17H100.68V187.477C100.68 186.198 101.331 185.57 102.67 185.57C102.96 185.57 103.209 185.594 103.428 185.629V186.589C103.309 186.571 103.138 186.559 102.936 186.559C102.226 186.559 101.935 186.885 101.935 187.536V188.17H103.375V189.189H101.953V194.584H100.68ZM105.477 187.003C105.033 187.003 104.672 186.642 104.672 186.204C104.672 185.759 105.033 185.398 105.477 185.398C105.921 185.398 106.283 185.759 106.283 186.204C106.283 186.642 105.921 187.003 105.477 187.003ZM104.843 194.584V188.152H106.111V194.584H104.843ZM108.042 194.584V185.629H109.315V194.584H108.042ZM115.457 192.861H116.683C116.404 193.998 115.362 194.708 113.887 194.708C112.039 194.708 110.908 193.435 110.908 191.38C110.908 189.337 112.063 188.028 113.881 188.028C115.676 188.028 116.76 189.254 116.76 191.267V191.706H112.205V191.765C112.247 192.932 112.904 193.666 113.923 193.666C114.693 193.666 115.22 193.382 115.457 192.861ZM113.875 189.064C112.934 189.064 112.276 189.751 112.205 190.788H115.463C115.433 189.745 114.817 189.064 113.875 189.064ZM118.14 189.953C118.14 188.833 119.188 188.028 120.645 188.028C122.096 188.028 123.043 188.703 123.168 189.816H121.948C121.829 189.337 121.367 189.023 120.645 189.023C119.934 189.023 119.395 189.372 119.395 189.893C119.395 190.29 119.721 190.539 120.42 190.705L121.492 190.953C122.718 191.238 123.292 191.765 123.292 192.701C123.292 193.897 122.161 194.708 120.621 194.708C119.087 194.708 118.086 194.015 117.974 192.896H119.247C119.407 193.399 119.881 193.713 120.651 193.713C121.444 193.713 122.007 193.346 122.007 192.819C122.007 192.416 121.705 192.156 121.059 192.002L119.934 191.735C118.708 191.451 118.14 190.906 118.14 189.953Z" fill="#A0A0A0"/>
<path d="M35.991 215.121L40.0217 211.041L40.6188 211.638L36.2398 215.967H35.6924L31.3134 211.638L31.9105 211.041L35.991 215.121Z" fill=" var(--vscode-tab-unfocusedInactiveForeground)"/>
<g clip-path="url(#clip6_5852_443543)">
<path fill-rule="evenodd" clip-rule="evenodd" d="M54.1853 212.754V211.344H63.9822V212.754H54.1853ZM63.9822 213.459V219.1H54.1853V213.459H63.9822Z" fill="#54ADFF"/>
<path fill-rule="evenodd" clip-rule="evenodd" d="M50.9197 207.262V208.746H61.1248V207.262H50.9197ZM61.1248 215.426V209.488H50.9197V215.426H53.3689V210.527H61.1247L61.1248 215.426Z" fill="#4092FF"/>
</g>
<path d="M78.9025 210.545L77.1316 216.977H75.8109L74.4783 212.179H74.3776L73.051 216.977H71.7421L69.9653 210.545H71.2564L72.4113 215.508H72.5061L73.8327 210.545H75.0528L76.3794 215.508H76.4801L77.6291 210.545H78.9025ZM84.1972 215.253H85.4232C85.1449 216.39 84.1025 217.101 82.6278 217.101C80.7799 217.101 79.6487 215.828 79.6487 213.772C79.6487 211.729 80.8036 210.42 82.6218 210.42C84.4164 210.42 85.5002 211.646 85.5002 213.66V214.098H80.9458V214.157C80.9872 215.324 81.6446 216.059 82.6633 216.059C83.4332 216.059 83.9603 215.774 84.1972 215.253ZM82.6159 211.457C81.6742 211.457 81.0168 212.144 80.9458 213.18H84.2032C84.1736 212.138 83.5576 211.457 82.6159 211.457ZM90.4456 217.083C89.5453 217.083 88.7932 216.669 88.4082 215.958H88.3134V216.977H87.0875V208.022H88.3608V211.563H88.4615C88.805 210.864 89.5631 210.432 90.4456 210.432C92.0802 210.432 93.1107 211.717 93.1107 213.761C93.1107 215.786 92.0743 217.083 90.4456 217.083ZM90.0784 211.522C89.0123 211.522 88.3431 212.381 88.3371 213.761C88.3431 215.141 89.0064 215.993 90.0784 215.993C91.1563 215.993 91.8018 215.152 91.8018 213.761C91.8018 212.369 91.1563 211.522 90.0784 211.522ZM98.5536 214.122H94.6684V212.943H98.5536V214.122ZM103.771 210.432C105.412 210.432 106.448 211.717 106.448 213.761C106.448 215.792 105.412 217.083 103.783 217.083C102.865 217.083 102.137 216.686 101.799 216.005H101.698V219.121H100.425V210.545H101.651V211.611H101.746C102.137 210.876 102.895 210.432 103.771 210.432ZM103.41 215.993C104.494 215.993 105.139 215.158 105.139 213.761C105.139 212.363 104.494 211.522 103.416 211.522C102.344 211.522 101.675 212.381 101.675 213.761C101.675 215.135 102.344 215.993 103.41 215.993ZM109.765 217.083C108.521 217.083 107.615 216.337 107.615 215.164C107.615 214.009 108.48 213.34 110.014 213.245L111.761 213.139V212.576C111.761 211.871 111.311 211.474 110.44 211.474C109.729 211.474 109.238 211.741 109.096 212.209H107.864C107.994 211.125 109.037 210.42 110.499 210.42C112.116 210.42 113.028 211.226 113.028 212.576V216.977H111.802V216.064H111.702C111.317 216.716 110.612 217.083 109.765 217.083ZM110.091 216.059C111.05 216.059 111.761 215.431 111.761 214.602V214.045L110.186 214.151C109.297 214.211 108.894 214.525 108.894 215.111C108.894 215.709 109.398 216.059 110.091 216.059ZM117.559 219.434C115.948 219.434 114.906 218.718 114.77 217.634H116.073C116.179 218.12 116.718 218.428 117.577 218.428C118.637 218.428 119.265 217.906 119.265 217.036V215.798H119.17C118.779 216.497 118.068 216.882 117.18 216.882C115.534 216.882 114.515 215.608 114.515 213.678C114.515 211.729 115.545 210.432 117.192 210.432C118.08 210.432 118.856 210.87 119.217 211.569H119.318V210.545H120.538V217.042C120.538 218.505 119.383 219.434 117.559 219.434ZM117.541 215.828C118.631 215.828 119.289 214.992 119.289 213.678C119.289 212.363 118.625 211.522 117.541 211.522C116.446 211.522 115.83 212.363 115.83 213.678C115.83 214.992 116.446 215.828 117.541 215.828ZM126.615 215.253H127.841C127.562 216.39 126.52 217.101 125.045 217.101C123.197 217.101 122.066 215.828 122.066 213.772C122.066 211.729 123.221 210.42 125.039 210.42C126.834 210.42 127.918 211.646 127.918 213.66V214.098H123.363V214.157C123.405 215.324 124.062 216.059 125.081 216.059C125.851 216.059 126.378 215.774 126.615 215.253ZM125.033 211.457C124.092 211.457 123.434 212.144 123.363 213.18H126.621C126.591 212.138 125.975 211.457 125.033 211.457ZM129.298 212.345C129.298 211.226 130.346 210.42 131.803 210.42C133.254 210.42 134.202 211.095 134.326 212.209H133.106C132.987 211.729 132.525 211.415 131.803 211.415C131.092 211.415 130.553 211.765 130.553 212.286C130.553 212.683 130.879 212.931 131.578 213.097L132.65 213.346C133.876 213.63 134.45 214.157 134.45 215.093C134.45 216.29 133.319 217.101 131.779 217.101C130.245 217.101 129.244 216.408 129.132 215.289H130.405C130.565 215.792 131.039 216.106 131.809 216.106C132.602 216.106 133.165 215.739 133.165 215.212C133.165 214.809 132.863 214.548 132.218 214.394L131.092 214.128C129.866 213.844 129.298 213.299 129.298 212.345Z" fill="#A0A0A0"/>
<rect width="196.187" height="22.7321" transform="translate(8 224.172)" fill="var(--vscode-list-inactiveSelectionBackground)"/>
<path d="M50.1561 235.128L53.6643 231.863V233.374L51.0332 235.707L53.6643 238.039V239.551L50.1561 236.285V235.128ZM59.4865 236.341L55.9969 239.607V238.039L58.6654 235.707L55.9969 233.374V231.807L59.4865 235.072V236.341Z" fill="#E37933"/>
<rect x="69.9197" y="232.271" width="65.3124" height="6.53124" rx="3.26562" fill="var(--vscode-tab-unfocusedInactiveForeground)"/>
<path d="M51.4997 262.694L51.9662 260.361H50.5107V259.13H52.2648L52.5447 257.674H51.0332V256.461H52.8433L53.3098 254.185H54.9333L54.4667 256.461H56.1089L56.5754 254.185H58.1989L57.7324 256.461H59.1879V257.674H57.5084L57.1539 259.13H58.6654V260.361H56.9299L56.4634 262.694H54.8213L55.2878 260.361H53.6643L53.1978 262.694H51.4997ZM55.5304 259.148L55.8103 257.674H54.1868L53.8883 259.148H55.5304Z" fill="#519ABA"/>
<rect x="69.9197" y="255.004" width="65.3124" height="6.53124" rx="3.26562" fill="var(--vscode-tab-unfocusedInactiveForeground)"/>
<path d="M52.1342 277.663H53.7203V282.105C53.7203 283.063 53.4964 283.759 53.0485 284.195C52.638 284.593 52.0222 284.792 51.2011 284.792C51.0145 284.792 50.8092 284.779 50.5853 284.754C50.3614 284.717 50.181 284.667 50.0442 284.605L50.2121 283.336C50.4485 283.448 50.7222 283.504 51.0332 283.504C51.3815 283.504 51.6428 283.411 51.8169 283.224C52.0284 283 52.1342 282.627 52.1342 282.105V277.663ZM55.1199 283.038C55.3438 283.162 55.605 283.268 55.9036 283.355C56.2395 283.454 56.5567 283.504 56.8553 283.504C57.2285 283.504 57.5084 283.442 57.695 283.318C57.8816 283.181 57.9749 282.994 57.9749 282.758C57.9749 282.521 57.8879 282.335 57.7137 282.198C57.5395 282.049 57.2347 281.899 56.7993 281.75C55.518 281.302 54.8773 280.606 54.8773 279.66C54.8773 279.038 55.1136 278.534 55.5864 278.149C56.0716 277.75 56.7309 277.551 57.5644 277.551C58.2238 277.551 58.8271 277.67 59.3745 277.906L59.0199 279.194L58.908 279.138C58.6841 279.051 58.5037 278.988 58.3668 278.951C58.1056 278.876 57.8381 278.839 57.5644 278.839C57.2285 278.839 56.9673 278.907 56.7807 279.044C56.6065 279.169 56.5194 279.337 56.5194 279.548C56.5194 279.76 56.6189 279.934 56.818 280.071C56.9673 280.183 57.2907 280.338 57.7883 280.537C58.4104 280.774 58.8644 281.06 59.1506 281.396C59.4491 281.731 59.5984 282.142 59.5984 282.627C59.5984 283.249 59.3621 283.753 58.8893 284.139C58.3793 284.574 57.6639 284.792 56.7433 284.792C56.3826 284.792 56.0031 284.742 55.605 284.642C55.294 284.58 55.0141 284.493 54.7653 284.381L55.1199 283.038Z" fill="#F55385"/>
<rect x="69.9197" y="277.736" width="65.3124" height="6.53124" rx="3.26562" fill="var(--vscode-tab-unfocusedInactiveForeground)"/>
<path d="M37.9317 303.768L33.8512 299.737L34.4484 299.14L38.7776 303.519V304.067L34.4484 308.446L33.8512 307.849L37.9317 303.768Z" fill=" var(--vscode-tab-unfocusedInactiveForeground)"/>
<g clip-path="url(#clip7_5852_443543)">
<path d="M51.7361 297.033V297.85H50.9197V297.033H51.7361ZM51.7361 298.666V299.482H50.9197V298.666H51.7361ZM51.7361 300.299V301.115H50.9197V300.299H51.7361ZM51.7361 301.932V302.748H50.9197V301.932H51.7361ZM51.7361 303.564V304.381H50.9197V303.564H51.7361ZM51.7361 305.197V306.014H50.9197V305.197H51.7361ZM51.7361 306.83V307.646H50.9197V306.83H51.7361ZM50.9197 308.463H51.7361V309.279H50.9197V308.463ZM51.7361 310.096V309.279H52.5525V310.096H51.7361ZM53.3689 297.033V297.85H52.5525V297.033H53.3689ZM53.3689 310.096V309.279H54.1853V310.096H53.3689ZM54.1853 297.85V297.033H55.0017V297.85H54.1853ZM56.6345 297.033V297.85H55.8181V297.033H56.6345ZM58.2673 297.033V297.85H57.4509V297.033H58.2673ZM59.9001 297.033V297.85H59.0837V297.033H59.9001ZM60.7165 298.666H59.9001V297.85H60.7165V298.666ZM60.7165 299.482V300.299H59.9001V299.482H60.7165ZM59.9001 301.932V301.115H60.7165V301.932H59.9001Z" fill="#B5A1FF"/>
<path fill-rule="evenodd" clip-rule="evenodd" d="M55.0017 303.75V302.34H63.7673V303.75H55.0017ZM63.7673 304.455V310.096H55.0017V304.455H63.7673Z" fill="#B5A1FF"/>
</g>
<path d="M78.9025 301.133L77.1316 307.564H75.8109L74.4783 302.767H74.3776L73.051 307.564H71.7421L69.9653 301.133H71.2564L72.4113 306.096H72.5061L73.8327 301.133H75.0528L76.3794 306.096H76.4801L77.6291 301.133H78.9025ZM84.1972 305.841H85.4232C85.1449 306.978 84.1025 307.689 82.6278 307.689C80.7799 307.689 79.6487 306.415 79.6487 304.36C79.6487 302.317 80.8036 301.008 82.6218 301.008C84.4164 301.008 85.5002 302.234 85.5002 304.248V304.686H80.9458V304.745C80.9872 305.912 81.6446 306.646 82.6633 306.646C83.4332 306.646 83.9603 306.362 84.1972 305.841ZM82.6159 302.045C81.6742 302.045 81.0168 302.732 80.9458 303.768H84.2032C84.1736 302.726 83.5576 302.045 82.6159 302.045ZM90.4456 307.671C89.5453 307.671 88.7932 307.256 88.4082 306.546H88.3134V307.564H87.0875V298.61H88.3608V302.151H88.4615C88.805 301.452 89.5631 301.02 90.4456 301.02C92.0802 301.02 93.1107 302.305 93.1107 304.348C93.1107 306.374 92.0743 307.671 90.4456 307.671ZM90.0784 302.11C89.0123 302.11 88.3431 302.969 88.3371 304.348C88.3431 305.728 89.0064 306.581 90.0784 306.581C91.1563 306.581 91.8018 305.74 91.8018 304.348C91.8018 302.957 91.1563 302.11 90.0784 302.11ZM98.5536 304.71H94.6684V303.531H98.5536V304.71ZM100.674 299.51H101.947V301.15H103.345V302.169H101.947V305.563C101.947 306.256 102.226 306.558 102.859 306.558C103.055 306.558 103.167 306.546 103.345 306.528V307.541C103.138 307.576 102.901 307.606 102.652 307.606C101.237 307.606 100.674 307.108 100.674 305.871V302.169H99.6493V301.15H100.674V299.51ZM109.001 305.841H110.227C109.949 306.978 108.906 307.689 107.432 307.689C105.584 307.689 104.452 306.415 104.452 304.36C104.452 302.317 105.607 301.008 107.426 301.008C109.22 301.008 110.304 302.234 110.304 304.248V304.686H105.75V304.745C105.791 305.912 106.448 306.646 107.467 306.646C108.237 306.646 108.764 306.362 109.001 305.841ZM107.42 302.045C106.478 302.045 105.821 302.732 105.75 303.768H109.007C108.977 302.726 108.361 302.045 107.42 302.045ZM111.832 307.564V301.133H113.058V302.157H113.153C113.437 301.435 114.089 301.008 114.947 301.008C115.83 301.008 116.44 301.464 116.724 302.157H116.825C117.15 301.464 117.891 301.008 118.785 301.008C120.088 301.008 120.846 301.79 120.846 303.128V307.564H119.573V303.436C119.573 302.548 119.158 302.116 118.323 302.116C117.5 302.116 116.961 302.72 116.961 303.496V307.564H115.711V303.306C115.711 302.572 115.226 302.116 114.468 302.116C113.692 302.116 113.105 302.773 113.105 303.614V307.564H111.832ZM125.981 301.02C127.622 301.02 128.658 302.305 128.658 304.348C128.658 306.38 127.622 307.671 125.993 307.671C125.075 307.671 124.346 307.274 124.009 306.593H123.908V309.708H122.635V301.133H123.861V302.199H123.956C124.346 301.464 125.105 301.02 125.981 301.02ZM125.62 306.581C126.704 306.581 127.349 305.746 127.349 304.348C127.349 302.951 126.704 302.11 125.626 302.11C124.554 302.11 123.884 302.969 123.884 304.348C123.884 305.723 124.554 306.581 125.62 306.581ZM130.251 307.564V298.61H131.525V307.564H130.251ZM135.22 307.671C133.977 307.671 133.07 306.925 133.07 305.752C133.07 304.597 133.935 303.928 135.469 303.833L137.216 303.727V303.164C137.216 302.459 136.766 302.062 135.895 302.062C135.185 302.062 134.693 302.329 134.551 302.797H133.319C133.449 301.713 134.492 301.008 135.955 301.008C137.572 301.008 138.484 301.814 138.484 303.164V307.564H137.258V306.652H137.157C136.772 307.304 136.067 307.671 135.22 307.671ZM135.546 306.646C136.505 306.646 137.216 306.019 137.216 305.189V304.633L135.641 304.739C134.752 304.799 134.35 305.113 134.35 305.699C134.35 306.297 134.853 306.646 135.546 306.646ZM140.746 299.51H142.019V301.15H143.417V302.169H142.019V305.563C142.019 306.256 142.298 306.558 142.931 306.558C143.127 306.558 143.239 306.546 143.417 306.528V307.541C143.21 307.576 142.973 307.606 142.724 307.606C141.309 307.606 140.746 307.108 140.746 305.871V302.169H139.721V301.15H140.746V299.51ZM149.073 305.841H150.299C150.021 306.978 148.978 307.689 147.504 307.689C145.656 307.689 144.525 306.415 144.525 304.36C144.525 302.317 145.68 301.008 147.498 301.008C149.292 301.008 150.376 302.234 150.376 304.248V304.686H145.822V304.745C145.863 305.912 146.521 306.646 147.539 306.646C148.309 306.646 148.836 306.362 149.073 305.841ZM147.492 302.045C146.55 302.045 145.893 302.732 145.822 303.768H149.079C149.049 302.726 148.434 302.045 147.492 302.045ZM151.756 302.933C151.756 301.814 152.804 301.008 154.261 301.008C155.712 301.008 156.66 301.683 156.784 302.797H155.564C155.446 302.317 154.984 302.003 154.261 302.003C153.551 302.003 153.012 302.353 153.012 302.874C153.012 303.271 153.337 303.519 154.036 303.685L155.108 303.934C156.334 304.218 156.909 304.745 156.909 305.681C156.909 306.877 155.778 307.689 154.238 307.689C152.704 307.689 151.703 306.996 151.59 305.877H152.864C153.024 306.38 153.497 306.694 154.267 306.694C155.061 306.694 155.624 306.327 155.624 305.8C155.624 305.397 155.322 305.136 154.676 304.982L153.551 304.716C152.325 304.431 151.756 303.887 151.756 302.933Z" fill="#A0A0A0"/>
</g>
<g filter="url(#filter1_d_5852_443543)">
<rect width="379" height="348" transform="translate(188 14.9512)" fill="var(--vscode-editor-background)"/>
<rect width="379" height="35" transform="translate(188 14.9512)" fill="var(--vscode-editorGroupHeader-tabsBackground, #1e1e1e)"/>
<g clip-path="url(#clip8_5852_443543)">
<rect width="103" height="35" transform="translate(188 14.9512)" fill="var(--vscode-tab-activeBackground, #252526)"/>
<rect x="200" y="28.9512" width="79" height="7" rx="3.5" fill="var(--vscode-tab-unfocusedInactiveForeground)"/>
</g>
<rect x="208" y="79.5176" width="83" height="8.75472" rx="4.37736" fill="#007ACC"/>
<g clip-path="url(#clip9_5852_443543)">
<rect width="379" height="24" transform="translate(188 191.951)" fill="#415C26" fill-opacity="0.75"/>
<path d="M216.027 202.938V203.951H210V209.925H208.987V203.951H203.013V202.938H208.987V196.965H210V202.938H216.027Z" fill="white"/>
<path d="M233.713 206.691L229.33 204.061V203.357L233.713 200.75V201.594L230.197 203.738L233.713 205.83V206.691ZM399.703 204.061L395.32 206.691V205.83L398.836 203.738L395.32 201.594V200.75L399.703 203.357V204.061ZM471.545 206.691L467.162 204.061V203.357L471.545 200.75V201.594L468.029 203.738L471.545 205.83V206.691ZM478.752 199.525L475.16 208.109H474.299L477.873 199.525H478.752ZM529.43 204.061L525.047 206.691V205.83L528.562 203.738L525.047 201.594V200.75L529.43 203.357V204.061Z" fill="#808081"/>
<path d="M237.381 202.637C237.584 202.355 237.857 202.129 238.201 201.957C238.549 201.785 238.914 201.699 239.297 201.699C240.008 201.699 240.561 201.984 240.955 202.555C241.354 203.125 241.553 203.875 241.553 204.805C241.553 205.746 241.342 206.533 240.92 207.166C240.498 207.795 239.934 208.109 239.227 208.109C238.848 208.109 238.492 208.016 238.16 207.828C237.832 207.637 237.572 207.385 237.381 207.072V207.951H236.467V199.684H237.381V202.637ZM237.381 203.545V206.082C237.553 206.426 237.785 206.713 238.078 206.943C238.371 207.174 238.674 207.289 238.986 207.289C239.479 207.289 239.869 207.055 240.158 206.586C240.451 206.117 240.598 205.541 240.598 204.857C240.598 204.154 240.459 203.584 240.182 203.146C239.904 202.709 239.518 202.49 239.021 202.49C238.377 202.49 237.83 202.842 237.381 203.545ZM248.367 207.951H247.453V207.049C246.797 207.748 246.105 208.098 245.379 208.098C244.234 208.098 243.662 207.404 243.662 206.018V201.846H244.576V205.754C244.576 206.273 244.658 206.662 244.822 206.92C244.986 207.174 245.264 207.301 245.654 207.301C246.213 207.301 246.812 206.953 247.453 206.258V201.846H248.367V207.951ZM255.645 207.676C255.031 207.957 254.428 208.098 253.834 208.098C252.744 208.098 252.199 207.521 252.199 206.369V202.637H251.027V201.846H252.199V200.176H253.09V201.846H255.164V202.637H253.09V206.129C253.09 206.5 253.172 206.789 253.336 206.996C253.5 207.199 253.723 207.301 254.004 207.301C254.504 207.301 254.998 207.189 255.486 206.967L255.645 207.676ZM262.852 207.676C262.238 207.957 261.635 208.098 261.041 208.098C259.951 208.098 259.406 207.521 259.406 206.369V202.637H258.234V201.846H259.406V200.176H260.297V201.846H262.371V202.637H260.297V206.129C260.297 206.5 260.379 206.789 260.543 206.996C260.707 207.199 260.93 207.301 261.211 207.301C261.711 207.301 262.205 207.189 262.693 206.967L262.852 207.676ZM267.633 201.699C268.473 201.699 269.141 201.992 269.637 202.578C270.133 203.164 270.381 203.936 270.381 204.893C270.381 205.857 270.133 206.635 269.637 207.225C269.141 207.814 268.473 208.109 267.633 208.109C266.789 208.109 266.119 207.816 265.623 207.23C265.131 206.641 264.885 205.861 264.885 204.893C264.885 203.932 265.133 203.16 265.629 202.578C266.125 201.992 266.793 201.699 267.633 201.699ZM267.633 207.312C268.188 207.312 268.625 207.078 268.945 206.609C269.266 206.141 269.426 205.572 269.426 204.904C269.426 204.201 269.268 203.623 268.951 203.17C268.635 202.717 268.195 202.49 267.633 202.49C267.066 202.49 266.627 202.715 266.314 203.164C266.002 203.609 265.846 204.189 265.846 204.904C265.846 205.584 266.004 206.156 266.32 206.621C266.637 207.082 267.074 207.312 267.633 207.312ZM277.207 207.951H276.293V204.037C276.293 203.494 276.205 203.102 276.029 202.859C275.857 202.613 275.586 202.49 275.215 202.49C274.656 202.49 274.057 202.838 273.416 203.533V207.951H272.502V201.846H273.416V202.742C274.072 202.047 274.764 201.699 275.49 201.699C276.635 201.699 277.207 202.391 277.207 203.773V207.951ZM291.598 207.746C291.066 207.988 290.482 208.109 289.846 208.109C288.885 208.109 288.117 207.818 287.543 207.236C286.973 206.65 286.688 205.873 286.688 204.904C286.688 203.936 286.975 203.16 287.549 202.578C288.127 201.992 288.885 201.699 289.822 201.699C290.436 201.699 291.02 201.807 291.574 202.021L291.334 202.777C290.779 202.586 290.279 202.49 289.834 202.49C289.162 202.49 288.629 202.707 288.234 203.141C287.844 203.574 287.648 204.162 287.648 204.904C287.648 205.584 287.852 206.156 288.258 206.621C288.664 207.082 289.193 207.312 289.846 207.312C290.361 207.312 290.893 207.213 291.439 207.014L291.598 207.746ZM298.383 207.951H295.887V200.475H294.293V199.684H296.801V207.16H298.383V207.951ZM306.188 207.951H305.279C305.205 207.705 305.168 207.377 305.168 206.967C304.648 207.729 303.941 208.109 303.047 208.109C302.594 208.109 302.193 207.949 301.846 207.629C301.502 207.305 301.33 206.889 301.33 206.381C301.33 206.08 301.391 205.814 301.512 205.584C301.633 205.354 301.811 205.16 302.045 205.004C302.279 204.844 302.564 204.719 302.9 204.629C303.236 204.535 303.635 204.471 304.096 204.436L305.121 204.354V204.061C305.121 203.014 304.633 202.49 303.656 202.49C303.426 202.49 303.133 202.541 302.777 202.643C302.426 202.74 302.123 202.857 301.869 202.994L301.629 202.338C302.461 201.912 303.234 201.699 303.949 201.699C305.34 201.699 306.035 202.436 306.035 203.908V206.533C306.035 207.064 306.086 207.537 306.188 207.951ZM305.121 206.141V205.033C304.297 205.107 303.73 205.178 303.422 205.244C303.117 205.307 302.852 205.426 302.625 205.602C302.402 205.777 302.291 206.016 302.291 206.316C302.291 206.59 302.387 206.811 302.578 206.979C302.77 207.146 303.014 207.23 303.311 207.23C303.635 207.23 303.957 207.135 304.277 206.943C304.598 206.748 304.879 206.48 305.121 206.141ZM312.604 202.719C312.092 202.551 311.609 202.467 311.156 202.467C310.66 202.467 310.268 202.551 309.979 202.719C309.689 202.883 309.545 203.104 309.545 203.381C309.545 203.557 309.611 203.711 309.744 203.844C309.877 203.973 310.143 204.094 310.541 204.207L311.414 204.459C311.816 204.572 312.145 204.709 312.398 204.869C312.652 205.025 312.842 205.217 312.967 205.443C313.096 205.666 313.16 205.926 313.16 206.223C313.16 206.805 312.916 207.266 312.428 207.605C311.939 207.941 311.318 208.109 310.564 208.109C309.814 208.109 309.195 207.996 308.707 207.77L308.883 206.979C309.395 207.221 309.943 207.342 310.529 207.342C311.037 207.342 311.449 207.248 311.766 207.061C312.086 206.869 312.246 206.617 312.246 206.305C312.246 206.094 312.166 205.906 312.006 205.742C311.85 205.574 311.479 205.4 310.893 205.221C310.42 205.076 310.072 204.969 309.85 204.898C309.627 204.824 309.42 204.717 309.229 204.576C309.037 204.436 308.891 204.268 308.789 204.072C308.691 203.877 308.643 203.658 308.643 203.416C308.643 202.889 308.873 202.471 309.334 202.162C309.795 201.854 310.406 201.699 311.168 201.699C311.66 201.699 312.207 201.783 312.809 201.951L312.604 202.719ZM319.811 202.719C319.299 202.551 318.816 202.467 318.363 202.467C317.867 202.467 317.475 202.551 317.186 202.719C316.896 202.883 316.752 203.104 316.752 203.381C316.752 203.557 316.818 203.711 316.951 203.844C317.084 203.973 317.35 204.094 317.748 204.207L318.621 204.459C319.023 204.572 319.352 204.709 319.605 204.869C319.859 205.025 320.049 205.217 320.174 205.443C320.303 205.666 320.367 205.926 320.367 206.223C320.367 206.805 320.123 207.266 319.635 207.605C319.146 207.941 318.525 208.109 317.771 208.109C317.021 208.109 316.402 207.996 315.914 207.77L316.09 206.979C316.602 207.221 317.15 207.342 317.736 207.342C318.244 207.342 318.656 207.248 318.973 207.061C319.293 206.869 319.453 206.617 319.453 206.305C319.453 206.094 319.373 205.906 319.213 205.742C319.057 205.574 318.686 205.4 318.1 205.221C317.627 205.076 317.279 204.969 317.057 204.898C316.834 204.824 316.627 204.717 316.436 204.576C316.244 204.436 316.098 204.268 315.996 204.072C315.898 203.877 315.85 203.658 315.85 203.416C315.85 202.889 316.08 202.471 316.541 202.162C317.002 201.854 317.613 201.699 318.375 201.699C318.867 201.699 319.414 201.783 320.016 201.951L319.811 202.719ZM482.42 202.637C482.623 202.355 482.896 202.129 483.24 201.957C483.588 201.785 483.953 201.699 484.336 201.699C485.047 201.699 485.6 201.984 485.994 202.555C486.393 203.125 486.592 203.875 486.592 204.805C486.592 205.746 486.381 206.533 485.959 207.166C485.537 207.795 484.973 208.109 484.266 208.109C483.887 208.109 483.531 208.016 483.199 207.828C482.871 207.637 482.611 207.385 482.42 207.072V207.951H481.506V199.684H482.42V202.637ZM482.42 203.545V206.082C482.592 206.426 482.824 206.713 483.117 206.943C483.41 207.174 483.713 207.289 484.025 207.289C484.518 207.289 484.908 207.055 485.197 206.586C485.49 206.117 485.637 205.541 485.637 204.857C485.637 204.154 485.498 203.584 485.221 203.146C484.943 202.709 484.557 202.49 484.061 202.49C483.416 202.49 482.869 202.842 482.42 203.545ZM493.406 207.951H492.492V207.049C491.836 207.748 491.145 208.098 490.418 208.098C489.273 208.098 488.701 207.404 488.701 206.018V201.846H489.615V205.754C489.615 206.273 489.697 206.662 489.861 206.92C490.025 207.174 490.303 207.301 490.693 207.301C491.252 207.301 491.852 206.953 492.492 206.258V201.846H493.406V207.951ZM500.684 207.676C500.07 207.957 499.467 208.098 498.873 208.098C497.783 208.098 497.238 207.521 497.238 206.369V202.637H496.066V201.846H497.238V200.176H498.129V201.846H500.203V202.637H498.129V206.129C498.129 206.5 498.211 206.789 498.375 206.996C498.539 207.199 498.762 207.301 499.043 207.301C499.543 207.301 500.037 207.189 500.525 206.967L500.684 207.676ZM507.891 207.676C507.277 207.957 506.674 208.098 506.08 208.098C504.99 208.098 504.445 207.521 504.445 206.369V202.637H503.273V201.846H504.445V200.176H505.336V201.846H507.41V202.637H505.336V206.129C505.336 206.5 505.418 206.789 505.582 206.996C505.746 207.199 505.969 207.301 506.25 207.301C506.75 207.301 507.244 207.189 507.732 206.967L507.891 207.676ZM512.672 201.699C513.512 201.699 514.18 201.992 514.676 202.578C515.172 203.164 515.42 203.936 515.42 204.893C515.42 205.857 515.172 206.635 514.676 207.225C514.18 207.814 513.512 208.109 512.672 208.109C511.828 208.109 511.158 207.816 510.662 207.23C510.17 206.641 509.924 205.861 509.924 204.893C509.924 203.932 510.172 203.16 510.668 202.578C511.164 201.992 511.832 201.699 512.672 201.699ZM512.672 207.312C513.227 207.312 513.664 207.078 513.984 206.609C514.305 206.141 514.465 205.572 514.465 204.904C514.465 204.201 514.307 203.623 513.99 203.17C513.674 202.717 513.234 202.49 512.672 202.49C512.105 202.49 511.666 202.715 511.354 203.164C511.041 203.609 510.885 204.189 510.885 204.904C510.885 205.584 511.043 206.156 511.359 206.621C511.676 207.082 512.113 207.312 512.672 207.312ZM522.246 207.951H521.332V204.037C521.332 203.494 521.244 203.102 521.068 202.859C520.896 202.613 520.625 202.49 520.254 202.49C519.695 202.49 519.096 202.838 518.455 203.533V207.951H517.541V201.846H518.455V202.742C519.111 202.047 519.803 201.699 520.529 201.699C521.674 201.699 522.246 202.391 522.246 203.773V207.951Z" fill="#9CDCFE"/>
<path d="M328.061 202.924H322.518V202.156H328.061V202.924ZM328.061 205.273H322.518V204.506H328.061V205.273ZM407.848 207.951H406.646L404.221 204.195H403.154V207.951H402.193V199.684H404.531C405.316 199.684 405.936 199.875 406.389 200.258C406.846 200.637 407.074 201.166 407.074 201.846C407.074 202.35 406.908 202.799 406.576 203.193C406.244 203.584 405.787 203.85 405.205 203.99L407.848 207.951ZM403.154 203.357H404.367C404.875 203.357 405.287 203.221 405.604 202.947C405.92 202.67 406.078 202.322 406.078 201.904C406.078 200.982 405.516 200.521 404.391 200.521H403.154V203.357ZM414.322 204.928H410.133C410.133 205.619 410.332 206.189 410.73 206.639C411.133 207.088 411.625 207.312 412.207 207.312C412.762 207.312 413.334 207.213 413.924 207.014L414.082 207.746C413.543 207.988 412.914 208.109 412.195 208.109C411.289 208.109 410.559 207.818 410.004 207.236C409.449 206.654 409.172 205.869 409.172 204.881C409.172 203.912 409.42 203.141 409.916 202.566C410.416 201.988 411.061 201.699 411.85 201.699C412.553 201.699 413.141 201.967 413.613 202.502C414.086 203.037 414.322 203.75 414.322 204.641V204.928ZM413.326 204.184C413.326 203.707 413.178 203.307 412.881 202.982C412.584 202.654 412.252 202.49 411.885 202.49C411.412 202.49 411.02 202.646 410.707 202.959C410.398 203.271 410.227 203.68 410.191 204.184H413.326ZM421.5 207.951H420.592C420.518 207.705 420.48 207.377 420.48 206.967C419.961 207.729 419.254 208.109 418.359 208.109C417.906 208.109 417.506 207.949 417.158 207.629C416.814 207.305 416.643 206.889 416.643 206.381C416.643 206.08 416.703 205.814 416.824 205.584C416.945 205.354 417.123 205.16 417.357 205.004C417.592 204.844 417.877 204.719 418.213 204.629C418.549 204.535 418.947 204.471 419.408 204.436L420.434 204.354V204.061C420.434 203.014 419.945 202.49 418.969 202.49C418.738 202.49 418.445 202.541 418.09 202.643C417.738 202.74 417.436 202.857 417.182 202.994L416.941 202.338C417.773 201.912 418.547 201.699 419.262 201.699C420.652 201.699 421.348 202.436 421.348 203.908V206.533C421.348 207.064 421.398 207.537 421.5 207.951ZM420.434 206.141V205.033C419.609 205.107 419.043 205.178 418.734 205.244C418.43 205.307 418.164 205.426 417.938 205.602C417.715 205.777 417.604 206.016 417.604 206.316C417.604 206.59 417.699 206.811 417.891 206.979C418.082 207.146 418.326 207.23 418.623 207.23C418.947 207.23 419.27 207.135 419.59 206.943C419.91 206.748 420.191 206.48 420.434 206.141ZM428.531 207.951H427.617V207.072C427.43 207.373 427.16 207.621 426.809 207.816C426.461 208.012 426.094 208.109 425.707 208.109C425.008 208.109 424.455 207.799 424.049 207.178C423.643 206.553 423.439 205.762 423.439 204.805C423.439 203.91 423.65 203.17 424.072 202.584C424.498 201.994 425.061 201.699 425.76 201.699C426.529 201.699 427.148 202.012 427.617 202.637V199.684H428.531V207.951ZM427.617 206.082V203.545C427.18 202.842 426.652 202.49 426.035 202.49C425.531 202.49 425.133 202.715 424.84 203.164C424.547 203.609 424.4 204.174 424.4 204.857C424.4 205.561 424.537 206.143 424.811 206.604C425.088 207.061 425.467 207.289 425.947 207.289C426.178 207.289 426.41 207.227 426.645 207.102C426.879 206.977 427.1 206.789 427.307 206.539C427.514 206.289 427.617 206.137 427.617 206.082ZM443.268 207.951H442.342V200.861L441.094 204.254H440.186L438.938 200.861V207.951H438.012V199.684H439.26L440.643 203.451L442.02 199.684H443.268V207.951ZM447.809 201.699C448.648 201.699 449.316 201.992 449.812 202.578C450.309 203.164 450.557 203.936 450.557 204.893C450.557 205.857 450.309 206.635 449.812 207.225C449.316 207.814 448.648 208.109 447.809 208.109C446.965 208.109 446.295 207.816 445.799 207.23C445.307 206.641 445.061 205.861 445.061 204.893C445.061 203.932 445.309 203.16 445.805 202.578C446.301 201.992 446.969 201.699 447.809 201.699ZM447.809 207.312C448.363 207.312 448.801 207.078 449.121 206.609C449.441 206.141 449.602 205.572 449.602 204.904C449.602 204.201 449.443 203.623 449.127 203.17C448.811 202.717 448.371 202.49 447.809 202.49C447.242 202.49 446.803 202.715 446.49 203.164C446.178 203.609 446.021 204.189 446.021 204.904C446.021 205.584 446.18 206.156 446.496 206.621C446.812 207.082 447.25 207.312 447.809 207.312ZM457.477 202.01L457.107 202.889C456.705 202.713 456.357 202.625 456.064 202.625C455.795 202.625 455.531 202.703 455.273 202.859C455.016 203.012 454.777 203.232 454.559 203.521C454.344 203.807 454.236 203.967 454.236 204.002V207.951H453.328V201.846H454.236V203.082C454.725 202.16 455.357 201.699 456.135 201.699C456.596 201.699 457.043 201.803 457.477 202.01ZM464.771 204.928H460.582C460.582 205.619 460.781 206.189 461.18 206.639C461.582 207.088 462.074 207.312 462.656 207.312C463.211 207.312 463.783 207.213 464.373 207.014L464.531 207.746C463.992 207.988 463.363 208.109 462.645 208.109C461.738 208.109 461.008 207.818 460.453 207.236C459.898 206.654 459.621 205.869 459.621 204.881C459.621 203.912 459.869 203.141 460.365 202.566C460.865 201.988 461.51 201.699 462.299 201.699C463.002 201.699 463.59 201.967 464.062 202.502C464.535 203.037 464.771 203.75 464.771 204.641V204.928ZM463.775 204.184C463.775 203.707 463.627 203.307 463.33 202.982C463.033 202.654 462.701 202.49 462.334 202.49C461.861 202.49 461.469 202.646 461.156 202.959C460.848 203.271 460.676 203.68 460.641 204.184H463.775Z" fill="#D4D4D4"/>
<path d="M334.008 201.09L333.797 202.73H333.328L333.111 201.09V199.684H334.008V201.09ZM331.887 201.09L331.67 202.73H331.201L330.984 201.09V199.684H331.887V201.09ZM391.664 201.09L391.453 202.73H390.984L390.768 201.09V199.684H391.664V201.09ZM389.543 201.09L389.326 202.73H388.857L388.641 201.09V199.684H389.543V201.09Z" fill="#CE9178"/>
<path d="M338.279 202.637C338.482 202.355 338.756 202.129 339.1 201.957C339.447 201.785 339.812 201.699 340.195 201.699C340.906 201.699 341.459 201.984 341.854 202.555C342.252 203.125 342.451 203.875 342.451 204.805C342.451 205.746 342.24 206.533 341.818 207.166C341.396 207.795 340.832 208.109 340.125 208.109C339.746 208.109 339.391 208.016 339.059 207.828C338.73 207.637 338.471 207.385 338.279 207.072V207.951H337.365V199.684H338.279V202.637ZM338.279 203.545V206.082C338.451 206.426 338.684 206.713 338.977 206.943C339.27 207.174 339.572 207.289 339.885 207.289C340.377 207.289 340.768 207.055 341.057 206.586C341.35 206.117 341.496 205.541 341.496 204.857C341.496 204.154 341.357 203.584 341.08 203.146C340.803 202.709 340.416 202.49 339.92 202.49C339.275 202.49 338.729 202.842 338.279 203.545ZM349.266 207.951H348.352V207.049C347.695 207.748 347.004 208.098 346.277 208.098C345.133 208.098 344.561 207.404 344.561 206.018V201.846H345.475V205.754C345.475 206.273 345.557 206.662 345.721 206.92C345.885 207.174 346.162 207.301 346.553 207.301C347.111 207.301 347.711 206.953 348.352 206.258V201.846H349.266V207.951ZM356.543 207.676C355.93 207.957 355.326 208.098 354.732 208.098C353.643 208.098 353.098 207.521 353.098 206.369V202.637H351.926V201.846H353.098V200.176H353.988V201.846H356.062V202.637H353.988V206.129C353.988 206.5 354.07 206.789 354.234 206.996C354.398 207.199 354.621 207.301 354.902 207.301C355.402 207.301 355.896 207.189 356.385 206.967L356.543 207.676ZM363.75 207.676C363.137 207.957 362.533 208.098 361.939 208.098C360.85 208.098 360.305 207.521 360.305 206.369V202.637H359.133V201.846H360.305V200.176H361.195V201.846H363.27V202.637H361.195V206.129C361.195 206.5 361.277 206.789 361.441 206.996C361.605 207.199 361.828 207.301 362.109 207.301C362.609 207.301 363.104 207.189 363.592 206.967L363.75 207.676ZM368.531 201.699C369.371 201.699 370.039 201.992 370.535 202.578C371.031 203.164 371.279 203.936 371.279 204.893C371.279 205.857 371.031 206.635 370.535 207.225C370.039 207.814 369.371 208.109 368.531 208.109C367.688 208.109 367.018 207.816 366.521 207.23C366.029 206.641 365.783 205.861 365.783 204.893C365.783 203.932 366.031 203.16 366.527 202.578C367.023 201.992 367.691 201.699 368.531 201.699ZM368.531 207.312C369.086 207.312 369.523 207.078 369.844 206.609C370.164 206.141 370.324 205.572 370.324 204.904C370.324 204.201 370.166 203.623 369.85 203.17C369.533 202.717 369.094 202.49 368.531 202.49C367.965 202.49 367.525 202.715 367.213 203.164C366.9 203.609 366.744 204.189 366.744 204.904C366.744 205.584 366.902 206.156 367.219 206.621C367.535 207.082 367.973 207.312 368.531 207.312ZM378.105 207.951H377.191V204.037C377.191 203.494 377.104 203.102 376.928 202.859C376.756 202.613 376.484 202.49 376.113 202.49C375.555 202.49 374.955 202.838 374.314 203.533V207.951H373.4V201.846H374.314V202.742C374.971 202.047 375.662 201.699 376.389 201.699C377.533 201.699 378.105 202.391 378.105 203.773V207.951ZM383.461 203.51C383.965 203.65 384.369 203.908 384.674 204.283C384.979 204.654 385.131 205.072 385.131 205.537C385.131 206.264 384.848 206.875 384.281 207.371C383.715 207.863 383.047 208.109 382.277 208.109C381.621 208.109 381.033 207.965 380.514 207.676L380.701 206.885C381.244 207.139 381.781 207.266 382.312 207.266C382.812 207.266 383.238 207.111 383.59 206.803C383.945 206.49 384.123 206.09 384.123 205.602C384.123 205.121 383.934 204.73 383.555 204.43C383.176 204.129 382.674 203.979 382.049 203.979H381.797V203.188H381.867C382.469 203.188 382.965 203.047 383.355 202.766C383.746 202.48 383.941 202.098 383.941 201.617C383.941 201.227 383.801 200.922 383.52 200.703C383.238 200.48 382.852 200.369 382.359 200.369C381.934 200.369 381.457 200.484 380.93 200.715L380.801 199.889C381.332 199.646 381.867 199.525 382.406 199.525C383.145 199.525 383.752 199.721 384.229 200.111C384.709 200.498 384.949 200.996 384.949 201.605C384.949 202.027 384.803 202.422 384.51 202.789C384.221 203.152 383.871 203.381 383.461 203.475V203.51Z" fill="#FFD9C9"/>
<rect width="47" height="24" transform="translate(235 192.402)" fill="#637E3A" fill-opacity="0.4"/>
<rect width="52" height="24" transform="translate(335 192.402)" fill="#637E3A" fill-opacity="0.4"/>
<rect width="44" height="24" transform="translate(480 192.402)" fill="#637E3A" fill-opacity="0.4"/>
</g>
<rect x="208" y="320.271" width="65" height="8.75472" rx="4.37736" fill="#007ACC"/>
<rect x="208" y="244" width="115" height="8.75472" rx="4.37736" fill="#B180D7"/>
<rect x="208" y="286" width="74" height="8.75472" rx="4.37736" fill="#B180D7"/>
<rect x="297" y="79.5176" width="42" height="8.75472" rx="4.37736" fill="#D7BA7D"/>
<rect x="279" y="320.271" width="108" height="8.75472" rx="4.37736" fill="#D7BA7D"/>
<rect x="228" y="107" width="74" height="8.75472" rx="4.37736" fill="#007ACC"/>
<rect x="208" y="133" width="75" height="8.75472" rx="4.37736" fill="#007ACC"/>
<rect x="310" y="107" width="58" height="8.75472" rx="4.37736" fill="#D88E73"/>
<g clip-path="url(#clip10_5852_443543)">
<rect width="379" height="24" transform="translate(187.993 168.059) rotate(-0.0327017)" fill="#A31515" fill-opacity="0.75"/>
<path d="M233.714 182.772L229.33 180.144L229.33 179.441L233.711 176.831L233.712 177.674L230.197 179.821L233.714 181.911L233.714 182.772ZM378.082 180.059L373.701 182.692L373.7 181.831L377.215 179.737L373.698 177.595L373.697 176.751L378.082 179.356L378.082 180.059ZM449.925 182.649L445.541 180.02L445.541 179.317L449.922 176.707L449.922 177.551L446.408 179.698L449.925 181.787L449.925 182.649ZM457.128 175.479L453.541 184.065L452.68 184.065L456.249 175.479L457.128 175.479ZM486.188 179.997L481.806 182.631L481.806 181.769L485.32 179.675L481.803 177.533L481.803 176.689L486.187 179.294L486.188 179.997Z" fill="#808081"/>
<path d="M241.151 184.028L240.237 184.028L240.236 183.149C240.049 183.45 239.779 183.698 239.428 183.894C239.08 184.089 238.713 184.187 238.327 184.187C237.627 184.188 237.074 183.878 236.668 183.257C236.261 182.632 236.058 181.841 236.057 180.884C236.057 179.99 236.267 179.249 236.689 178.663C237.114 178.073 237.676 177.778 238.376 177.777C239.145 177.777 239.765 178.089 240.234 178.714L240.232 175.761L241.146 175.76L241.151 184.028ZM240.236 182.159L240.234 179.622C239.796 178.919 239.269 178.568 238.652 178.568C238.148 178.568 237.749 178.793 237.457 179.243C237.164 179.688 237.018 180.253 237.018 180.936C237.019 181.639 237.156 182.221 237.429 182.682C237.707 183.139 238.086 183.367 238.566 183.367C238.797 183.367 239.029 183.304 239.264 183.179C239.498 183.054 239.718 182.866 239.925 182.616C240.132 182.366 240.236 182.214 240.236 182.159ZM246.408 175.611C246.58 175.61 246.726 175.673 246.847 175.798C246.968 175.919 247.029 176.065 247.029 176.237C247.029 176.417 246.969 176.567 246.848 176.688C246.731 176.81 246.584 176.87 246.408 176.87C246.248 176.87 246.106 176.808 245.981 176.683C245.859 176.554 245.799 176.406 245.799 176.238C245.799 176.07 245.859 175.923 245.98 175.798C246.105 175.673 246.247 175.611 246.408 175.611ZM246.858 184.024L245.944 184.025L245.941 178.71L244.142 178.711L244.141 177.92L246.854 177.919L246.858 184.024ZM255.86 177.914L253.549 184.021L252.717 184.021L250.411 177.917L251.407 177.916L253.138 182.773L254.864 177.914L255.86 177.914ZM269.979 183.806C269.448 184.049 268.864 184.17 268.227 184.17C267.266 184.171 266.498 183.88 265.924 183.299C265.353 182.713 265.068 181.936 265.067 180.967C265.066 179.998 265.353 179.223 265.927 178.64C266.505 178.054 267.262 177.761 268.2 177.76C268.813 177.76 269.397 177.867 269.952 178.082L269.712 178.838C269.157 178.646 268.657 178.551 268.212 178.551C267.54 178.552 267.007 178.769 266.613 179.203C266.222 179.636 266.027 180.224 266.028 180.967C266.028 181.646 266.232 182.218 266.638 182.683C267.045 183.144 267.574 183.374 268.227 183.374C268.742 183.373 269.273 183.273 269.82 183.074L269.979 183.806ZM276.764 184.007L274.268 184.009L274.264 176.532L272.67 176.533L272.669 175.742L275.177 175.741L275.182 183.217L276.764 183.216L276.764 184.007ZM284.569 184.003L283.66 184.003C283.586 183.757 283.549 183.429 283.549 183.019C283.029 183.781 282.323 184.162 281.428 184.163C280.975 184.163 280.575 184.003 280.227 183.683C279.883 183.359 279.711 182.943 279.71 182.435C279.71 182.135 279.771 181.869 279.892 181.638C280.013 181.408 280.19 181.214 280.424 181.058C280.659 180.898 280.944 180.773 281.28 180.682C281.616 180.589 282.014 180.524 282.475 180.488L283.5 180.406L283.5 180.113C283.499 179.066 283.011 178.543 282.034 178.543C281.804 178.544 281.511 178.594 281.156 178.696C280.804 178.794 280.501 178.911 280.248 179.048L280.007 178.392C280.839 177.966 281.612 177.753 282.327 177.752C283.717 177.751 284.413 178.487 284.414 179.96L284.416 182.585C284.416 183.116 284.467 183.589 284.569 184.003ZM283.501 182.193L283.501 181.086C282.676 181.16 282.11 181.231 281.802 181.297C281.497 181.36 281.231 181.479 281.005 181.655C280.782 181.831 280.671 182.07 280.671 182.37C280.671 182.644 280.767 182.864 280.959 183.032C281.15 183.2 281.394 183.284 281.691 183.284C282.016 183.284 282.338 183.188 282.658 182.996C282.978 182.801 283.259 182.533 283.501 182.193ZM290.982 178.767C290.47 178.599 289.987 178.515 289.534 178.516C289.038 178.516 288.646 178.6 288.357 178.768C288.068 178.933 287.923 179.153 287.924 179.431C287.924 179.606 287.99 179.761 288.123 179.893C288.256 180.022 288.522 180.143 288.92 180.256L289.793 180.508C290.196 180.621 290.524 180.757 290.778 180.917C291.032 181.073 291.221 181.265 291.347 181.491C291.476 181.714 291.54 181.973 291.54 182.27C291.541 182.852 291.297 183.313 290.809 183.654C290.321 183.99 289.7 184.158 288.946 184.159C288.196 184.159 287.577 184.046 287.088 183.82L287.263 183.029C287.775 183.271 288.324 183.391 288.91 183.391C289.418 183.391 289.83 183.297 290.146 183.109C290.467 182.917 290.627 182.665 290.626 182.353C290.626 182.142 290.546 181.955 290.386 181.791C290.229 181.623 289.858 181.449 289.272 181.27C288.799 181.125 288.452 181.018 288.229 180.948C288.006 180.874 287.799 180.767 287.608 180.626C287.416 180.486 287.27 180.318 287.168 180.122C287.07 179.927 287.021 179.708 287.021 179.466C287.021 178.939 287.251 178.521 287.712 178.212C288.173 177.903 288.784 177.749 289.546 177.748C290.038 177.748 290.585 177.831 291.186 177.999L290.982 178.767ZM298.189 178.763C297.677 178.595 297.194 178.511 296.741 178.512C296.245 178.512 295.853 178.596 295.564 178.764C295.275 178.928 295.13 179.149 295.131 179.427C295.131 179.602 295.197 179.757 295.33 179.889C295.463 180.018 295.729 180.139 296.127 180.252L297 180.504C297.403 180.617 297.731 180.753 297.985 180.913C298.239 181.069 298.428 181.261 298.554 181.487C298.683 181.71 298.747 181.969 298.747 182.266C298.748 182.848 298.504 183.309 298.016 183.649C297.528 183.986 296.907 184.154 296.153 184.154C295.403 184.155 294.784 184.042 294.295 183.816L294.47 183.025C294.982 183.266 295.531 183.387 296.117 183.387C296.625 183.387 297.037 183.293 297.353 183.105C297.674 182.913 297.834 182.661 297.833 182.349C297.833 182.138 297.753 181.95 297.593 181.786C297.436 181.619 297.065 181.445 296.479 181.266C296.006 181.121 295.659 181.014 295.436 180.944C295.213 180.87 295.006 180.763 294.815 180.622C294.623 180.482 294.477 180.314 294.375 180.118C294.277 179.923 294.228 179.704 294.228 179.462C294.228 178.935 294.458 178.517 294.919 178.208C295.38 177.899 295.991 177.744 296.753 177.744C297.245 177.744 297.792 177.827 298.393 177.995L298.189 178.763ZM464.569 183.9L463.655 183.901L463.654 183.022C463.467 183.323 463.197 183.571 462.846 183.766C462.498 183.962 462.131 184.06 461.745 184.06C461.045 184.06 460.492 183.75 460.086 183.129C459.679 182.504 459.476 181.714 459.475 180.757C459.475 179.862 459.685 179.122 460.107 178.535C460.532 177.945 461.094 177.65 461.794 177.65C462.563 177.649 463.182 177.961 463.652 178.586L463.65 175.633L464.564 175.633L464.569 183.9ZM463.654 182.032L463.652 179.494C463.214 178.792 462.687 178.44 462.069 178.441C461.566 178.441 461.167 178.666 460.875 179.115C460.582 179.561 460.436 180.125 460.436 180.809C460.436 181.512 460.573 182.094 460.847 182.555C461.125 183.011 461.504 183.24 461.984 183.239C462.215 183.239 462.447 183.177 462.681 183.052C462.916 182.926 463.136 182.739 463.343 182.489C463.55 182.239 463.654 182.086 463.654 182.032ZM469.826 175.483C469.997 175.483 470.144 175.545 470.265 175.67C470.386 175.791 470.447 175.938 470.447 176.11C470.447 176.289 470.387 176.44 470.266 176.561C470.149 176.682 470.002 176.743 469.826 176.743C469.666 176.743 469.524 176.681 469.398 176.556C469.277 176.427 469.217 176.278 469.217 176.11C469.216 175.942 469.277 175.796 469.398 175.671C469.523 175.546 469.665 175.483 469.826 175.483ZM470.276 183.897L469.362 183.897L469.359 178.583L467.56 178.584L467.559 177.793L470.272 177.791L470.276 183.897ZM479.278 177.786L476.967 183.893L476.135 183.894L473.829 177.789L474.825 177.789L476.556 182.645L478.282 177.787L479.278 177.786Z" fill="#9CDCFE"/>
<path d="M306.439 178.963L300.896 178.966L300.895 178.199L306.438 178.195L306.439 178.963ZM306.44 181.313L300.897 181.316L300.897 180.548L306.44 180.545L306.44 181.313ZM386.229 183.945L385.028 183.946L382.6 180.191L381.533 180.192L381.535 183.948L380.575 183.948L380.57 175.68L382.908 175.679C383.693 175.679 384.312 175.87 384.765 176.252C385.223 176.631 385.452 177.16 385.452 177.84C385.452 178.344 385.286 178.793 384.955 179.188C384.623 179.579 384.166 179.844 383.584 179.985L386.229 183.945ZM381.533 179.354L382.746 179.353C383.254 179.353 383.666 179.216 383.982 178.942C384.298 178.665 384.456 178.317 384.456 177.899C384.455 176.977 383.893 176.516 382.768 176.517L381.531 176.518L381.533 179.354ZM392.702 180.918L388.512 180.92C388.513 181.612 388.712 182.182 389.111 182.631C389.513 183.08 390.006 183.304 390.588 183.304C391.143 183.303 391.715 183.203 392.304 183.004L392.463 183.736C391.924 183.979 391.295 184.1 390.577 184.101C389.67 184.101 388.94 183.81 388.385 183.229C387.83 182.647 387.552 181.862 387.551 180.874C387.551 179.905 387.798 179.133 388.294 178.559C388.794 177.98 389.438 177.691 390.227 177.691C390.93 177.69 391.518 177.957 391.991 178.492C392.464 179.027 392.701 179.74 392.702 180.631L392.702 180.918ZM391.705 180.174C391.705 179.698 391.556 179.297 391.259 178.973C390.962 178.645 390.63 178.481 390.263 178.482C389.79 178.482 389.398 178.638 389.085 178.951C388.777 179.264 388.605 179.672 388.57 180.176L391.705 180.174ZM399.881 183.937L398.973 183.938C398.899 183.692 398.861 183.363 398.861 182.953C398.342 183.715 397.635 184.097 396.741 184.097C396.288 184.097 395.887 183.937 395.539 183.617C395.195 183.293 395.023 182.877 395.023 182.37C395.023 182.069 395.083 181.803 395.204 181.573C395.325 181.342 395.503 181.149 395.737 180.992C395.971 180.832 396.256 180.707 396.592 180.617C396.928 180.523 397.326 180.458 397.787 180.423L398.813 180.34L398.813 180.047C398.812 179 398.323 178.477 397.347 178.478C397.116 178.478 396.823 178.529 396.468 178.63C396.116 178.728 395.814 178.846 395.56 178.982L395.319 178.326C396.151 177.9 396.924 177.687 397.639 177.686C399.03 177.686 399.726 178.422 399.727 179.894L399.728 182.519C399.728 183.05 399.779 183.523 399.881 183.937ZM398.814 182.127L398.813 181.02C397.989 181.094 397.423 181.165 397.114 181.232C396.809 181.294 396.544 181.414 396.317 181.589C396.095 181.765 395.984 182.004 395.984 182.305C395.984 182.578 396.08 182.799 396.271 182.966C396.463 183.134 396.707 183.218 397.004 183.218C397.328 183.218 397.65 183.122 397.97 182.93C398.291 182.735 398.572 182.467 398.814 182.127ZM406.912 183.933L405.998 183.934L405.998 183.055C405.811 183.356 405.541 183.604 405.19 183.799C404.842 183.995 404.475 184.093 404.088 184.093C403.389 184.093 402.836 183.783 402.43 183.162C402.023 182.537 401.819 181.746 401.819 180.789C401.818 179.895 402.029 179.155 402.45 178.568C402.876 177.978 403.438 177.683 404.137 177.683C404.907 177.682 405.526 177.994 405.995 178.619L405.994 175.666L406.908 175.665L406.912 183.933ZM405.997 182.064L405.996 179.527C405.558 178.824 405.03 178.473 404.413 178.474C403.909 178.474 403.511 178.699 403.218 179.148C402.926 179.594 402.779 180.158 402.78 180.842C402.78 181.545 402.917 182.127 403.191 182.588C403.469 183.044 403.848 183.273 404.328 183.272C404.559 183.272 404.791 183.21 405.025 183.085C405.26 182.959 405.48 182.772 405.687 182.522C405.894 182.272 405.997 182.119 405.997 182.064ZM421.649 183.925L420.723 183.925L420.719 176.835L419.473 180.229L418.565 180.229L417.315 176.837L417.319 183.927L416.393 183.928L416.388 175.66L417.636 175.659L419.021 179.426L420.396 175.658L421.644 175.657L421.649 183.925ZM426.186 177.67C427.026 177.67 427.694 177.962 428.191 178.548C428.687 179.134 428.936 179.905 428.936 180.862C428.937 181.827 428.689 182.604 428.193 183.194C427.697 183.784 427.03 184.08 426.19 184.08C425.346 184.081 424.676 183.788 424.18 183.202C423.687 182.613 423.441 181.834 423.44 180.865C423.439 179.904 423.687 179.132 424.183 178.55C424.679 177.964 425.346 177.671 426.186 177.67ZM426.189 183.283C426.744 183.283 427.181 183.048 427.501 182.579C427.822 182.111 427.981 181.542 427.981 180.874C427.981 180.171 427.822 179.593 427.505 179.14C427.189 178.687 426.749 178.461 426.187 178.461C425.62 178.461 425.181 178.686 424.869 179.136C424.556 179.581 424.401 180.161 424.401 180.876C424.401 181.556 424.56 182.128 424.876 182.593C425.193 183.053 425.631 183.284 426.189 183.283ZM435.854 177.975L435.486 178.854C435.083 178.679 434.736 178.591 434.443 178.591C434.173 178.591 433.909 178.67 433.652 178.826C433.394 178.978 433.156 179.199 432.937 179.488C432.723 179.774 432.615 179.934 432.615 179.969L432.617 183.918L431.709 183.919L431.706 177.813L432.614 177.813L432.615 179.049C433.102 178.127 433.735 177.666 434.512 177.665C434.973 177.665 435.421 177.768 435.854 177.975ZM443.151 180.889L438.961 180.891C438.962 181.583 439.161 182.153 439.56 182.602C439.963 183.051 440.455 183.275 441.037 183.275C441.592 183.275 442.164 183.175 442.754 182.975L442.912 183.707C442.373 183.95 441.745 184.071 441.026 184.072C440.12 184.072 439.389 183.782 438.834 183.2C438.279 182.618 438.001 181.833 438.001 180.845C438 179.876 438.248 179.105 438.743 178.53C439.243 177.952 439.887 177.662 440.676 177.662C441.38 177.661 441.968 177.929 442.441 178.464C442.914 178.998 443.15 179.711 443.151 180.602L443.151 180.889ZM442.154 180.145C442.154 179.669 442.005 179.268 441.708 178.944C441.411 178.616 441.079 178.453 440.712 178.453C440.239 178.453 439.847 178.61 439.535 178.922C439.226 179.235 439.055 179.643 439.02 180.147L442.154 180.145ZM491.049 177.692C491.249 177.692 491.417 177.76 491.554 177.896C491.69 178.029 491.759 178.193 491.759 178.389C491.759 178.588 491.691 178.754 491.554 178.887C491.417 179.02 491.25 179.086 491.05 179.086C490.855 179.086 490.691 179.02 490.558 178.887C490.425 178.751 490.359 178.585 490.358 178.389C490.358 178.194 490.425 178.03 490.557 177.897C490.69 177.76 490.854 177.692 491.049 177.692ZM491.065 184.043C490.862 184.02 490.694 183.936 490.561 183.792C490.428 183.647 490.361 183.483 490.361 183.299C490.361 183.1 490.426 182.932 490.554 182.795C490.683 182.659 490.845 182.59 491.041 182.59C491.259 182.59 491.449 182.68 491.609 182.859C491.769 183.035 491.85 183.248 491.85 183.498C491.85 184.263 491.425 184.861 490.573 185.292L490.35 184.87C490.827 184.635 491.065 184.36 491.065 184.043Z" fill="#D4D4D4"/>
<path d="M312.385 177.126L312.175 178.766L311.706 178.767L311.489 177.126L311.488 175.72L312.384 175.719L312.385 177.126ZM310.264 177.127L310.048 178.768L309.579 178.768L309.362 177.127L309.361 175.721L310.263 175.721L310.264 177.127ZM370.041 177.093L369.831 178.734L369.363 178.734L369.145 177.093L369.144 175.687L370.041 175.687L370.041 177.093ZM367.92 177.094L367.704 178.735L367.236 178.735L367.018 177.094L367.017 175.688L367.919 175.688L367.92 177.094Z" fill="#CE9178"/>
<path d="M316.657 178.67C316.86 178.389 317.134 178.162 317.477 177.99C317.825 177.818 318.19 177.732 318.573 177.732C319.284 177.731 319.837 178.016 320.232 178.586C320.63 179.156 320.83 179.906 320.831 180.836C320.831 181.777 320.621 182.564 320.199 183.197C319.778 183.827 319.213 184.141 318.506 184.142C318.127 184.142 317.772 184.048 317.44 183.861C317.111 183.67 316.852 183.418 316.66 183.106L316.66 183.985L315.746 183.985L315.742 175.717L316.656 175.717L316.657 178.67ZM316.658 179.578L316.659 182.115C316.831 182.459 317.064 182.746 317.357 182.976C317.65 183.207 317.953 183.322 318.266 183.322C318.758 183.321 319.148 183.087 319.437 182.618C319.73 182.149 319.876 181.573 319.876 180.889C319.875 180.186 319.736 179.616 319.459 179.178C319.181 178.741 318.794 178.522 318.298 178.523C317.653 178.523 317.107 178.875 316.658 179.578ZM327.647 183.978L326.733 183.979L326.732 183.076C326.076 183.776 325.385 184.126 324.659 184.126C323.514 184.127 322.941 183.434 322.941 182.047L322.938 177.875L323.852 177.875L323.855 181.783C323.855 182.303 323.937 182.691 324.101 182.949C324.266 183.203 324.543 183.33 324.934 183.329C325.492 183.329 326.092 182.981 326.732 182.285L326.729 177.873L327.643 177.873L327.647 183.978ZM334.924 183.699C334.311 183.98 333.707 184.121 333.114 184.122C332.024 184.122 331.479 183.546 331.478 182.394L331.476 178.662L330.304 178.662L330.303 177.871L331.475 177.871L331.474 176.201L332.365 176.2L332.366 177.87L334.44 177.869L334.441 178.66L332.366 178.661L332.368 182.153C332.369 182.524 332.451 182.813 332.615 183.02C332.779 183.223 333.002 183.325 333.283 183.325C333.783 183.324 334.277 183.213 334.765 182.99L334.924 183.699ZM342.131 183.695C341.518 183.976 340.914 184.117 340.321 184.118C339.231 184.118 338.686 183.542 338.685 182.39L338.683 178.658L337.511 178.658L337.511 177.867L338.682 177.867L338.681 176.197L339.572 176.196L339.573 177.866L341.647 177.865L341.648 178.656L339.573 178.657L339.575 182.149C339.576 182.52 339.658 182.809 339.822 183.016C339.986 183.219 340.209 183.321 340.49 183.321C340.99 183.32 341.484 183.209 341.972 182.986L342.131 183.695ZM346.909 177.715C347.749 177.715 348.417 178.007 348.913 178.593C349.41 179.179 349.658 179.95 349.659 180.907C349.659 181.872 349.412 182.649 348.916 183.24C348.42 183.83 347.752 184.125 346.913 184.125C346.069 184.126 345.399 183.833 344.902 183.248C344.41 182.658 344.163 181.879 344.163 180.91C344.162 179.949 344.41 179.178 344.905 178.595C345.401 178.009 346.069 177.716 346.909 177.715ZM346.912 183.329C347.467 183.328 347.904 183.094 348.224 182.625C348.544 182.156 348.704 181.587 348.704 180.919C348.703 180.216 348.545 179.638 348.228 179.185C347.911 178.732 347.472 178.506 346.909 178.506C346.343 178.507 345.904 178.732 345.591 179.181C345.279 179.626 345.123 180.207 345.124 180.921C345.124 181.601 345.282 182.173 345.599 182.638C345.916 183.099 346.353 183.329 346.912 183.329ZM356.487 183.962L355.573 183.962L355.57 180.048C355.57 179.505 355.482 179.113 355.306 178.871C355.134 178.625 354.862 178.502 354.491 178.502C353.933 178.502 353.333 178.85 352.693 179.546L352.696 183.964L351.782 183.965L351.778 177.859L352.692 177.859L352.693 178.755C353.349 178.059 354.04 177.711 354.766 177.711C355.911 177.71 356.483 178.401 356.484 179.784L356.487 183.962ZM363.694 183.958L359.346 183.96L359.346 183.122L361.097 183.121L361.094 176.699L359.442 177.527L359.441 176.566L361.228 175.645L362.054 175.644L362.058 183.121L363.693 183.12L363.694 183.958Z" fill="#FFCDB9"/>
<path d="M215.027 180.079L215.027 181.092L203.987 181.098L203.987 180.085L215.027 180.079Z" fill="white"/>
<rect width="20.1398" height="24" transform="translate(236 168.092) rotate(-0.0327017)" fill="#DD1A1A" fill-opacity="0.4"/>
<rect width="50.4391" height="24" transform="translate(315 168.129) rotate(-0.0327017)" fill="#DD1A1A" fill-opacity="0.4"/>
<rect width="20.3357" height="24" transform="translate(459 168.133) rotate(-0.0327017)" fill="#DD1A1A" fill-opacity="0.4"/>
</g>
</g>
<defs>
<filter id="filter0_d_5852_443543" x="0.535728" y="25.4018" width="211.116" height="334.026" filterUnits="userSpaceOnUse" color-interpolation-filters="sRGB">
<feFlood flood-opacity="0" result="BackgroundImageFix"/>
<feColorMatrix in="SourceAlpha" type="matrix" values="0 0 0 0 0 0 0 0 0 0 0 0 0 0 0 0 0 0 127 0" result="hardAlpha"/>
<feOffset dy="1.86607"/>
<feGaussianBlur stdDeviation="3.73214"/>
<feColorMatrix type="matrix" values="0 0 0 0 0 0 0 0 0 0 0 0 0 0 0 0 0 0 0.4 0"/>
<feBlend mode="normal" in2="BackgroundImageFix" result="effect1_dropShadow_5852_443543"/>
<feBlend mode="normal" in="SourceGraphic" in2="effect1_dropShadow_5852_443543" result="shape"/>
</filter>
<filter id="filter1_d_5852_443543" x="171.993" y="0.951172" width="411.014" height="380" filterUnits="userSpaceOnUse" color-interpolation-filters="sRGB">
<feFlood flood-opacity="0" result="BackgroundImageFix"/>
<feColorMatrix in="SourceAlpha" type="matrix" values="0 0 0 0 0 0 0 0 0 0 0 0 0 0 0 0 0 0 127 0" result="hardAlpha"/>
<feOffset dy="2"/>
<feGaussianBlur stdDeviation="8"/>
<feColorMatrix type="matrix" values="0 0 0 0 0 0 0 0 0 0 0 0 0 0 0 0 0 0 0.36 0"/>
<feBlend mode="normal" in2="BackgroundImageFix" result="effect1_dropShadow_5852_443543"/>
<feBlend mode="normal" in="SourceGraphic" in2="effect1_dropShadow_5852_443543" result="shape"/>
</filter>
<clipPath id="clip0_5852_443543">
<rect width="11.1964" height="11.1964" fill="white" transform="translate(43.4553 73.0195)"/>
</clipPath>
<clipPath id="clip1_5852_443543">
<rect width="13.0625" height="13.0625" fill="white" transform="translate(50.9197 94.4805)"/>
</clipPath>
<clipPath id="clip2_5852_443543">
<rect width="13.0625" height="13.0625" fill="white" transform="translate(50.9197 116.873)"/>
</clipPath>
<clipPath id="clip3_5852_443543">
<rect width="13.0625" height="13.0625" fill="white" transform="translate(50.9197 139.266)"/>
</clipPath>
<clipPath id="clip4_5852_443543">
<rect width="13.0625" height="13.0625" fill="white" transform="translate(50.9197 161.658)"/>
</clipPath>
<clipPath id="clip5_5852_443543">
<rect width="13.0625" height="13.0625" fill="white" transform="translate(50.9197 184.053)"/>
</clipPath>
<clipPath id="clip6_5852_443543">
<rect width="13.0625" height="13.0625" fill="white" transform="translate(50.9197 206.445)"/>
</clipPath>
<clipPath id="clip7_5852_443543">
<rect width="13.0625" height="13.0625" fill="white" transform="translate(50.9197 297.033)"/>
</clipPath>
<clipPath id="clip8_5852_443543">
<rect width="103" height="35" fill="white" transform="translate(188 14.9512)"/>
</clipPath>
<clipPath id="clip9_5852_443543">
<rect width="379" height="24" fill="white" transform="translate(188 191.951)"/>
</clipPath>
<clipPath id="clip10_5852_443543">
<rect width="379" height="24" fill="white" transform="translate(187.993 168.059) rotate(-0.0327017)"/>
</clipPath>
</defs>
</svg>
