<svg width="32" height="32" viewBox="0 0 32 32" fill="none" xmlns="http://www.w3.org/2000/svg">
<path d="M31.7344 24.0156L27.5781 27.0938L29.1719 31.9844L25 28.9688L20.8438 32L22.4219 27.0938L18.2656 24.0156H23.5L25.0156 19.1719L26.5 24.0156H31.7344ZM10.6094 22C10.6927 22.3854 10.8125 22.849 10.9688 23.3906C11.125 23.9323 11.3177 24.5 11.5469 25.0938C11.776 25.6875 12.0417 26.276 12.3438 26.8594C12.6458 27.4427 12.9792 27.9688 13.3438 28.4375C13.7083 28.9062 14.1146 29.2812 14.5625 29.5625C15.0104 29.8438 15.4896 29.9896 16 30C16.375 30 16.7344 29.9115 17.0781 29.7344C17.4219 29.5573 17.7292 29.3438 18 29.0938V31.875C17.6667 31.9167 17.3333 31.9479 17 31.9688C16.6667 31.9896 16.3333 32 16 32C14.5312 32 13.1146 31.8125 11.75 31.4375C10.3854 31.0625 9.11458 30.5208 7.9375 29.8125C6.76042 29.1042 5.68229 28.2708 4.70312 27.3125C3.72396 26.3542 2.88542 25.276 2.1875 24.0781C1.48958 22.8802 0.953125 21.6042 0.578125 20.25C0.203125 18.8958 0.0104167 17.4792 0 16C0 14.5312 0.1875 13.1146 0.5625 11.75C0.9375 10.3854 1.47917 9.11458 2.1875 7.9375C2.89583 6.76042 3.72917 5.68229 4.6875 4.70312C5.64583 3.72396 6.72396 2.88542 7.92188 2.1875C9.11979 1.48958 10.3958 0.953125 11.75 0.578125C13.1042 0.203125 14.5208 0.0104167 16 0C17.4688 0 18.8854 0.1875 20.25 0.5625C21.6146 0.9375 22.8854 1.47917 24.0625 2.1875C25.2396 2.89583 26.3177 3.72917 27.2969 4.6875C28.276 5.64583 29.1146 6.72396 29.8125 7.92188C30.5104 9.11979 31.0469 10.3958 31.4219 11.75C31.7969 13.1042 31.9896 14.5208 32 16C32 17.0312 31.901 18.0469 31.7031 19.0469C31.5052 20.0469 31.2135 21.0312 30.8281 22H28V20H29.4219C29.8073 18.7188 30 17.3854 30 16C30 14.6146 29.8073 13.2812 29.4219 12H23.75C23.7604 12.125 23.7865 12.375 23.8281 12.75C23.8698 13.125 23.9062 13.5208 23.9375 13.9375C23.9688 14.3542 23.9896 14.7396 24 15.0938C24.0104 15.4479 24.0104 15.6615 24 15.7344L22.0312 22H10.6094ZM21.7344 20C21.8281 19.3333 21.8958 18.6719 21.9375 18.0156C21.9792 17.3594 22 16.6875 22 16C22 15.3229 21.9792 14.6562 21.9375 14C21.8958 13.3438 21.8281 12.6771 21.7344 12H10.2656C10.1719 12.6667 10.1042 13.3281 10.0625 13.9844C10.0208 14.6406 10 15.3125 10 16C10 16.6771 10.0208 17.3438 10.0625 18C10.1042 18.6562 10.1719 19.3229 10.2656 20H21.7344ZM28.6406 10C28.2448 9.15625 27.7656 8.35938 27.2031 7.60938C26.6406 6.85938 26.0156 6.17708 25.3281 5.5625C24.6406 4.94792 23.8958 4.40625 23.0938 3.9375C22.2917 3.46875 21.4427 3.07812 20.5469 2.76562C20.9219 3.27604 21.2604 3.82292 21.5625 4.40625C21.8646 4.98958 22.1354 5.59375 22.375 6.21875C22.6146 6.84375 22.8177 7.47396 22.9844 8.10938C23.151 8.74479 23.3021 9.375 23.4375 10H28.6406ZM16 2C15.4896 2 15.0156 2.14062 14.5781 2.42188C14.1406 2.70312 13.7344 3.08333 13.3594 3.5625C12.9844 4.04167 12.6458 4.56771 12.3438 5.14062C12.0417 5.71354 11.776 6.30208 11.5469 6.90625C11.3177 7.51042 11.125 8.07812 10.9688 8.60938C10.8125 9.14062 10.6927 9.60417 10.6094 10H21.3906C21.3073 9.61458 21.1875 9.15104 21.0312 8.60938C20.875 8.06771 20.6823 7.5 20.4531 6.90625C20.224 6.3125 19.9583 5.72396 19.6562 5.14062C19.3542 4.55729 19.0208 4.03125 18.6562 3.5625C18.2917 3.09375 17.8854 2.71875 17.4375 2.4375C16.9896 2.15625 16.5104 2.01042 16 2ZM11.4531 2.76562C10.5677 3.06771 9.72396 3.45312 8.92188 3.92188C8.11979 4.39062 7.36979 4.9375 6.67188 5.5625C5.97396 6.1875 5.34896 6.86979 4.79688 7.60938C4.24479 8.34896 3.76562 9.14583 3.35938 10H8.5625C8.6875 9.375 8.83333 8.74479 9 8.10938C9.16667 7.47396 9.36979 6.84375 9.60938 6.21875C9.84896 5.59375 10.1198 4.98958 10.4219 4.40625C10.724 3.82292 11.0677 3.27604 11.4531 2.76562ZM2 16C2 17.3854 2.19271 18.7188 2.57812 20H8.25C8.16667 19.3333 8.10417 18.6719 8.0625 18.0156C8.02083 17.3594 8 16.6875 8 16C8 15.3229 8.02083 14.6562 8.0625 14C8.10417 13.3438 8.16667 12.6771 8.25 12H2.57812C2.19271 13.2812 2 14.6146 2 16ZM3.35938 22C3.75521 22.8438 4.23438 23.6406 4.79688 24.3906C5.35938 25.1406 5.98438 25.8229 6.67188 26.4375C7.35938 27.0521 8.10417 27.5938 8.90625 28.0625C9.70833 28.5312 10.5573 28.9219 11.4531 29.2344C11.0781 28.724 10.7396 28.1771 10.4375 27.5938C10.1354 27.0104 9.86458 26.4062 9.625 25.7812C9.38542 25.1562 9.18229 24.526 9.01562 23.8906C8.84896 23.2552 8.69792 22.625 8.5625 22H3.35938Z" fill="#FF8080"/>
</svg>
