<svg width="32" height="32" viewBox="0 0 32 32" fill="none" xmlns="http://www.w3.org/2000/svg">
<path d="M16 14C16.8229 14 17.599 14.1562 18.3281 14.4688C19.0573 14.7812 19.6927 15.2083 20.2344 15.75C20.776 16.2917 21.2083 16.9323 21.5312 17.6719C21.8542 18.4115 22.0104 19.1875 22 20C22 20.8333 21.8438 21.6094 21.5312 22.3281C21.2188 23.0469 20.7917 23.6823 20.25 24.2344C19.7083 24.7865 19.0677 25.2188 18.3281 25.5312C17.5885 25.8438 16.8125 26 16 26C15.1667 26 14.3906 25.8438 13.6719 25.5312C12.9531 25.2188 12.3177 24.7917 11.7656 24.25C11.2135 23.7083 10.7812 23.0729 10.4688 22.3438C10.1562 21.6146 10 20.8333 10 20C10 19.1771 10.1562 18.401 10.4688 17.6719C10.7812 16.9427 11.2083 16.3073 11.75 15.7656C12.2917 15.224 12.9271 14.7917 13.6562 14.4688C14.3854 14.1458 15.1667 13.9896 16 14ZM16 6C17.4896 6 18.9688 6.18229 20.4375 6.54688C21.9062 6.91146 23.2917 7.45833 24.5938 8.1875C25.8958 8.91667 27.0729 9.80208 28.125 10.8438C29.1771 11.8854 30.0417 13.1042 30.7188 14.5C31.1354 15.3646 31.4531 16.2552 31.6719 17.1719C31.8906 18.0885 32 19.0312 32 20H30C30 18.7708 29.8125 17.6198 29.4375 16.5469C29.0625 15.474 28.5469 14.4948 27.8906 13.6094C27.2344 12.724 26.4531 11.9323 25.5469 11.2344C24.6406 10.5365 23.6771 9.94792 22.6562 9.46875C21.6354 8.98958 20.5469 8.625 19.3906 8.375C18.2344 8.125 17.1042 8 16 8C14.875 8 13.7448 8.125 12.6094 8.375C11.474 8.625 10.3906 8.98958 9.35938 9.46875C8.32812 9.94792 7.35938 10.5365 6.45312 11.2344C5.54688 11.9323 4.77083 12.724 4.125 13.6094C3.47917 14.4948 2.95833 15.474 2.5625 16.5469C2.16667 17.6198 1.97917 18.7708 2 20H0C0 19.0417 0.109375 18.1042 0.328125 17.1875C0.546875 16.2708 0.864583 15.375 1.28125 14.5C1.94792 13.125 2.80729 11.9115 3.85938 10.8594C4.91146 9.80729 6.09375 8.91667 7.40625 8.1875C8.71875 7.45833 10.1042 6.91667 11.5625 6.5625C13.0208 6.20833 14.5 6.02083 16 6Z" fill="white"/>
</svg>
