<svg xmlns="http://www.w3.org/2000/svg" width="16" height="16" viewBox="0 0 16 16" fill="none">
<path d="M11.32 8.74C11 8.74 10.7267 8.63333 10.5 8.42C10.2867 8.20667 10.18 7.94667 10.18 7.64C10.18 7.32 10.2867 7.05333 10.5 6.84C10.7267 6.61333 10.9933 6.5 11.3 6.5C11.62 6.5 11.8867 6.61333 12.1 6.84C12.3267 7.05333 12.44 7.32 12.44 7.64C12.44 7.94667 12.3267 8.20667 12.1 8.42C11.8867 8.63333 11.6267 8.74 11.32 8.74ZM4.38 5.32H13.94V13.06H4.38V5.32ZM4.82 5.74V11.5L7.12 8.62L9.88 11.56L11.26 9.94L13.5 12.5V5.74H4.82ZM10.94 2.94V4H3.26V9.68H2.06V2.94H10.94Z" fill="#A074C4"/>
</svg>