<svg width="32" height="32" viewBox="0 0 32 32" fill="none" xmlns="http://www.w3.org/2000/svg">
<path fill-rule="evenodd" clip-rule="evenodd" d="M21.4522 1.66341V6.8176H26.6425L21.4522 1.66341ZM28.3186 31.9999H3V0H19.1119V9.14284H28.3186V31.9999ZM20.5 24.5V16.75H19L19 15.0586L19 15.054C18.9955 14.5735 18.9085 14.1153 18.7357 13.6834C18.5632 13.2522 18.3161 12.8714 17.9947 12.5454C17.6761 12.2223 17.3051 11.9678 16.8853 11.7827C16.4539 11.5926 15.9901 11.5 15.5 11.5C15.0066 11.5 14.5408 11.5923 14.1088 11.7827C13.6884 11.9681 13.3183 12.2233 13.0028 12.548C12.6871 12.8728 12.4416 13.2514 12.266 13.6793C12.0876 14.1137 12 14.575 12 15.0586V16.75H10.5V24.5H20.5ZM17.25 16.75H13.75V15.0586C13.75 14.7986 13.7957 14.5644 13.8828 14.3512C13.9727 14.1311 14.0965 13.9408 14.2547 13.7765C14.4119 13.6132 14.5963 13.4843 14.8118 13.3888C15.0163 13.2983 15.2426 13.2504 15.497 13.25C15.7555 13.2535 15.9888 13.3022 16.2019 13.3922C16.4158 13.4826 16.595 13.6082 16.7447 13.7697C16.9021 13.9394 17.0261 14.1341 17.1172 14.357C17.2046 14.571 17.25 14.8033 17.25 15.0586V16.75Z" fill="#F2C700"/>
</svg>
