<svg width="32" height="32" viewBox="0 0 32 32" fill="none" xmlns="http://www.w3.org/2000/svg">
<rect width="32" height="32" fill="#E5E5E5"/>
<path d="M-11.5 -11.5H269.5V43.5H-11.5V-11.5Z" fill="#2B2A29" stroke="#CCCCCC"/>
<path d="M9.39062 18L14 31.8438V32H11.9531L10.6094 28H5.39062L4.04688 32H2V31.8438L6.60938 18H9.39062ZM9.95312 26L8 20.1562L6.04688 26H9.95312ZM13.9531 8C13.9844 8.67708 14 9.34375 14 10V11C14 11.3333 13.9896 11.6667 13.9688 12H12V14H8.17188L8.32812 15C8.38021 15.3333 8.45312 15.6667 8.54688 16H6.53125C6.44792 15.6667 6.38542 15.3333 6.34375 15C6.30208 14.6667 6.25521 14.3333 6.20312 14H2.9375C3.14583 14.375 3.38542 14.7292 3.65625 15.0625C3.92708 15.3958 4.22396 15.7083 4.54688 16H4L3.29688 17.4062C2.24479 16.4583 1.43229 15.3438 0.859375 14.0625C0.286458 12.7812 0 11.4271 0 10C0 9.08333 0.119792 8.19792 0.359375 7.34375C0.598958 6.48958 0.932292 5.69271 1.35938 4.95312C1.78646 4.21354 2.30729 3.54167 2.92188 2.9375C3.53646 2.33333 4.21354 1.8125 4.95312 1.375C5.69271 0.9375 6.48958 0.598958 7.34375 0.359375C8.19792 0.119792 9.08333 0 10 0C10.9167 0 11.8021 0.119792 12.6562 0.359375C13.5104 0.598958 14.3073 0.932292 15.0469 1.35938C15.7865 1.78646 16.4583 2.30729 17.0625 2.92188C17.6667 3.53646 18.1875 4.21354 18.625 4.95312C19.0625 5.69271 19.401 6.48958 19.6406 7.34375C19.8802 8.19792 20 9.08333 20 10C20 10.3333 19.9844 10.6667 19.9531 11C19.9219 11.3333 19.8698 11.6667 19.7969 12H17.8594C18.0365 11.3229 18.125 10.6562 18.125 10C18.125 9.34375 18.0365 8.67708 17.8594 8H13.9531ZM10 1.875C9.80208 1.875 9.625 1.95833 9.46875 2.125C9.3125 2.29167 9.16667 2.50521 9.03125 2.76562C8.89583 3.02604 8.78125 3.31771 8.6875 3.64062C8.59375 3.96354 8.51562 4.27604 8.45312 4.57812C8.39062 4.88021 8.33333 5.16146 8.28125 5.42188C8.22917 5.68229 8.19792 5.875 8.1875 6H11.7969C11.776 5.88542 11.7448 5.70312 11.7031 5.45312C11.6615 5.20312 11.6094 4.92188 11.5469 4.60938C11.4844 4.29688 11.401 3.98438 11.2969 3.67188C11.1927 3.35938 11.0781 3.06771 10.9531 2.79688C10.8281 2.52604 10.6823 2.30729 10.5156 2.14062C10.349 1.97396 10.1771 1.88542 10 1.875ZM6.04688 12C6.01562 11.3333 6 10.6667 6 10C6 9.34375 6.01562 8.67708 6.04688 8H2.14062C1.96354 8.67708 1.875 9.34375 1.875 10C1.875 10.6562 1.96354 11.3229 2.14062 12H6.04688ZM6.21875 6C6.28125 5.39583 6.375 4.79167 6.5 4.1875C6.625 3.58333 6.80208 3 7.03125 2.4375C6.16667 2.78125 5.38542 3.25521 4.6875 3.85938C3.98958 4.46354 3.40625 5.17708 2.9375 6H6.21875ZM11.9844 12C12.0156 11.3333 12.0312 10.6667 12.0312 10C12.0312 9.34375 12.0156 8.67708 11.9844 8H8.01562C7.98438 8.67708 7.96875 9.34375 7.96875 10C7.96875 10.6667 7.98438 11.3333 8.01562 12H11.9844ZM12.8906 2.42188C13.1302 2.98438 13.3177 3.56771 13.4531 4.17188C13.5885 4.77604 13.6927 5.38542 13.7656 6H17.0625C16.5938 5.1875 16.0052 4.47396 15.2969 3.85938C14.5885 3.24479 13.7865 2.76562 12.8906 2.42188ZM21.7344 13.8906C21.7344 13.5781 21.7292 13.2604 21.7188 12.9375C21.7083 12.6146 21.6667 12.3021 21.5938 12C22.3125 12 23.026 12.0312 23.7344 12.0938C23.7969 12.1042 23.8594 12.1198 23.9219 12.1406C23.9844 12.1615 24.0208 12.2135 24.0312 12.2969C24.0312 12.349 24.0156 12.4115 23.9844 12.4844C23.9531 12.5573 23.9271 12.6198 23.9062 12.6719C23.8854 12.7344 23.8698 12.8177 23.8594 12.9219C23.849 13.026 23.8385 13.1354 23.8281 13.25C23.8177 13.3646 23.8125 13.4792 23.8125 13.5938C23.8125 13.7083 23.8125 13.7969 23.8125 13.8594V14.0625H28.4375C28.875 14.0625 29.3073 14.0573 29.7344 14.0469C30.1615 14.0365 30.599 14.026 31.0469 14.0156C31.1198 14.0156 31.1875 14.0312 31.25 14.0625C31.2812 14.1146 31.2969 14.1667 31.2969 14.2188C31.2865 14.3958 31.276 14.5781 31.2656 14.7656C31.2552 14.9531 31.25 15.1406 31.25 15.3281V16.2344C31.25 16.6094 31.2552 16.9844 31.2656 17.3594C31.276 17.7344 31.2865 18.1146 31.2969 18.5V18.6094C31.2969 18.651 31.2812 18.6823 31.25 18.7031C31.1667 18.724 31.099 18.7344 31.0469 18.7344H30.6562C30.4479 18.7344 30.2344 18.7396 30.0156 18.75C29.8177 18.75 29.6406 18.7448 29.4844 18.7344C29.3281 18.724 29.2396 18.7083 29.2188 18.6875C29.1979 18.6042 29.1875 18.4792 29.1875 18.3125C29.1875 18.1458 29.1823 17.9583 29.1719 17.75C29.1719 17.4062 29.1771 17.0521 29.1875 16.6875C29.1979 16.3229 29.2031 16.0521 29.2031 15.875H16.6719V16.4844C16.6719 16.6406 16.6771 16.8021 16.6875 16.9688C16.6979 17.1354 16.6979 17.3125 16.6875 17.5C16.6875 17.8021 16.6823 18.0729 16.6719 18.3125C16.6615 18.5521 16.6458 18.6875 16.625 18.7188C16.5417 18.7396 16.474 18.75 16.4219 18.75H14.8281C14.7135 18.75 14.6458 18.7344 14.625 18.7031C14.6042 18.6719 14.5938 18.6042 14.5938 18.5C14.6042 18.0833 14.6094 17.6719 14.6094 17.2656C14.6094 16.8594 14.6094 16.4479 14.6094 16.0312V15.125C14.6094 14.8229 14.6042 14.5208 14.5938 14.2188C14.5938 14.1667 14.6042 14.1094 14.625 14.0469C14.7083 14.026 14.776 14.0156 14.8281 14.0156C15.2656 14.026 15.6979 14.0365 16.125 14.0469C16.5521 14.0573 16.9896 14.0625 17.4375 14.0625H21.7344V13.8906ZM31.7188 22.5312C31.7396 22.6146 31.75 22.6823 31.75 22.7344V24.2344C31.75 24.276 31.7396 24.3385 31.7188 24.4219C31.6354 24.4427 31.5677 24.4531 31.5156 24.4531C31.099 24.4427 30.6875 24.4323 30.2812 24.4219C29.875 24.4115 29.4635 24.4062 29.0469 24.4062H24.0312V24.9219C24.0312 25.4635 24.0365 26.0052 24.0469 26.5469C24.0573 27.0885 24.0729 27.6302 24.0938 28.1719V28.2344C24.0938 28.4844 24.0469 28.7344 23.9531 28.9844C23.8594 29.2344 23.7083 29.4323 23.5 29.5781C23.3542 29.6823 23.151 29.7604 22.8906 29.8125C22.6302 29.8646 22.3438 29.9062 22.0312 29.9375C21.7188 29.9688 21.4271 29.9844 21.1562 29.9844C20.8854 29.9844 20.6562 29.9896 20.4688 30H20.1719C20.0365 30 19.9427 29.9688 19.8906 29.9062C19.8594 29.875 19.8229 29.7917 19.7812 29.6562C19.7396 29.5208 19.7083 29.4271 19.6875 29.375C19.6146 29.1042 19.5312 28.8542 19.4375 28.625C19.3438 28.3958 19.2188 28.1562 19.0625 27.9062C19.4167 27.9479 19.7708 27.974 20.125 27.9844C20.4792 27.9948 20.8333 28.0052 21.1875 28.0156C21.4375 28.0156 21.625 27.9792 21.75 27.9062C21.875 27.8333 21.9427 27.6562 21.9531 27.375V24.4062H16.9688C16.5521 24.4062 16.1354 24.4115 15.7188 24.4219C15.3021 24.4323 14.8854 24.4427 14.4688 24.4531C14.3854 24.4531 14.3229 24.4375 14.2812 24.4062C14.2604 24.3438 14.25 24.2865 14.25 24.2344V22.7344V22.625C14.25 22.5833 14.2656 22.5469 14.2969 22.5156C14.3594 22.4948 14.4167 22.4844 14.4688 22.4844L15.7188 22.5156C16.1354 22.526 16.5521 22.5312 16.9688 22.5312H21.9531C21.9323 22.2604 21.9219 21.9896 21.9219 21.7188C21.9219 21.4479 21.8906 21.1719 21.8281 20.8906C22.0365 20.9115 22.2396 20.9271 22.4375 20.9375C22.6354 20.9479 22.8438 20.9688 23.0625 21H23.1094C23.1198 21 23.1406 21.0052 23.1719 21.0156C23.5365 20.7552 23.8854 20.4792 24.2188 20.1875C24.5521 19.8958 24.8854 19.599 25.2188 19.2969H20.4062C19.9688 19.2969 19.5365 19.3021 19.1094 19.3125C18.6823 19.3229 18.2448 19.3333 17.7969 19.3438C17.7135 19.3438 17.651 19.3281 17.6094 19.2969C17.5885 19.2344 17.5781 19.1771 17.5781 19.125V17.6406C17.5781 17.599 17.5885 17.5365 17.6094 17.4531C17.6927 17.4323 17.7552 17.4219 17.7969 17.4219C18.2344 17.4323 18.6667 17.4427 19.0938 17.4531C19.5208 17.4635 19.9583 17.4688 20.4062 17.4688H26.2344C26.401 17.4688 26.5573 17.4479 26.7031 17.4062C26.849 17.3646 26.9792 17.3385 27.0938 17.3281C27.1771 17.3281 27.2969 17.3906 27.4531 17.5156C27.6094 17.6406 27.7656 17.7865 27.9219 17.9531C28.0781 18.1198 28.2135 18.2865 28.3281 18.4531C28.4427 18.6198 28.5052 18.75 28.5156 18.8438C28.5156 18.9479 28.4844 19.026 28.4219 19.0781C28.3594 19.1302 28.2812 19.1823 28.1875 19.2344C28.0417 19.3073 27.901 19.401 27.7656 19.5156C27.6302 19.6302 27.5 19.7396 27.375 19.8438C26.8333 20.2917 26.2917 20.724 25.75 21.1406C25.2083 21.5573 24.6354 21.9635 24.0312 22.3594V22.5312H29.0469C29.4635 22.5312 29.875 22.526 30.2812 22.5156C30.6875 22.5052 31.099 22.4948 31.5156 22.4844C31.5885 22.4844 31.6562 22.5 31.7188 22.5312Z" fill="#FF8080"/>
</svg>
