<svg xmlns="http://www.w3.org/2000/svg" width="16" height="16" viewBox="0 0 16 16" fill="none">
<path d="M8.68 10.06C8.57333 10.06 8.43333 10.0733 8.26 10.1C8.14 10.1133 8.05333 10.12 8 10.12H6.88C6.96 9.22667 7.07333 7.89333 7.22 6.12C7.36667 4.34667 7.48 3.01333 7.56 2.12H8.3C8.87333 2.09333 9.29333 2.09333 9.56 2.12C9.65333 2.12 9.74667 2.18 9.84 2.3C9.93333 2.42 9.96667 2.52667 9.94 2.62C9.84667 3.28667 9.68 4.29333 9.44 5.64L9.18 7C9.11333 7.56 8.98 8.42 8.78 9.58L8.68 10.06ZM8.94 12.56C8.96667 12.9067 8.85333 13.22 8.6 13.5C8.34667 13.7667 8.02 13.9133 7.62 13.94C7.22 13.9667 6.85333 13.8733 6.52 13.66C6.2 13.4333 6.02667 13.1533 6 12.82C5.97333 12.4333 6.08667 12.1133 6.34 11.86C6.59333 11.6067 6.94 11.4667 7.38 11.44C7.82 11.4133 8.18 11.5 8.46 11.7C8.75333 11.9 8.91333 12.1867 8.94 12.56Z" fill="#A074C4"/>
</svg>